G04 #@! TF.GenerationSoftware,KiCad,Pcbnew,9.0.5*
G04 #@! TF.CreationDate,2025-10-26T00:34:48+02:00*
G04 #@! TF.ProjectId,totem_0_3,746f7465-6d5f-4305-9f33-2e6b69636164,0.3*
G04 #@! TF.SameCoordinates,Original*
G04 #@! TF.FileFunction,Paste,Top*
G04 #@! TF.FilePolarity,Positive*
%FSLAX46Y46*%
G04 Gerber Fmt 4.6, Leading zero omitted, Abs format (unit mm)*
G04 Created by KiCad (PCBNEW 9.0.5) date 2025-10-26 00:34:48*
%MOMM*%
%LPD*%
G01*
G04 APERTURE LIST*
G04 Aperture macros list*
%AMRotRect*
0 Rectangle, with rotation*
0 The origin of the aperture is its center*
0 $1 length*
0 $2 width*
0 $3 Rotation angle, in degrees counterclockwise*
0 Add horizontal line*
21,1,$1,$2,0,0,$3*%
G04 Aperture macros list end*
%ADD10RotRect,2.150000X5.000000X30.000000*%
%ADD11RotRect,2.150000X3.200000X30.000000*%
%ADD12RotRect,2.000000X2.700000X30.000000*%
%ADD13RotRect,2.000000X2.600000X30.000000*%
%ADD14RotRect,2.000000X2.300000X30.000000*%
%ADD15RotRect,2.150000X5.000000X15.000000*%
%ADD16RotRect,2.150000X3.200000X15.000000*%
%ADD17RotRect,2.000000X2.700000X15.000000*%
%ADD18RotRect,2.000000X2.600000X15.000000*%
%ADD19RotRect,2.000000X2.300000X15.000000*%
%ADD20R,2.150000X5.000000*%
%ADD21R,2.150000X3.200000*%
%ADD22R,2.000000X2.700000*%
%ADD23R,2.000000X2.600000*%
%ADD24R,2.000000X2.300000*%
%ADD25RotRect,2.150000X5.000000X350.000000*%
%ADD26RotRect,2.150000X3.200000X350.000000*%
%ADD27RotRect,2.000000X2.700000X350.000000*%
%ADD28RotRect,2.000000X2.600000X350.000000*%
%ADD29RotRect,2.000000X2.300000X350.000000*%
%ADD30RotRect,2.150000X5.000000X356.000000*%
%ADD31RotRect,2.150000X3.200000X356.000000*%
%ADD32RotRect,2.000000X2.700000X356.000000*%
%ADD33RotRect,2.000000X2.600000X356.000000*%
%ADD34RotRect,2.000000X2.300000X356.000000*%
%ADD35RotRect,2.000000X2.300000X345.000000*%
%ADD36RotRect,2.000000X2.600000X345.000000*%
%ADD37RotRect,2.000000X2.700000X345.000000*%
%ADD38RotRect,2.150000X3.200000X345.000000*%
%ADD39RotRect,2.150000X5.000000X345.000000*%
%ADD40RotRect,2.150000X5.000000X330.000000*%
%ADD41RotRect,2.150000X3.200000X330.000000*%
%ADD42RotRect,2.000000X2.700000X330.000000*%
%ADD43RotRect,2.000000X2.600000X330.000000*%
%ADD44RotRect,2.000000X2.300000X330.000000*%
%ADD45RotRect,2.000000X2.300000X10.000000*%
%ADD46RotRect,2.000000X2.600000X10.000000*%
%ADD47RotRect,2.000000X2.700000X10.000000*%
%ADD48RotRect,2.150000X3.200000X10.000000*%
%ADD49RotRect,2.150000X5.000000X10.000000*%
%ADD50RotRect,2.000000X2.300000X4.000000*%
%ADD51RotRect,2.000000X2.600000X4.000000*%
%ADD52RotRect,2.000000X2.700000X4.000000*%
%ADD53RotRect,2.150000X3.200000X4.000000*%
%ADD54RotRect,2.150000X5.000000X4.000000*%
%ADD55R,1.500000X1.800000*%
%ADD56R,0.700000X1.000000*%
%ADD57R,1.000000X2.800000*%
%ADD58RotRect,1.800000X1.500000X170.000000*%
%ADD59RotRect,1.800000X1.500000X10.000000*%
G04 APERTURE END LIST*
D10*
X155599239Y-126973996D03*
D11*
X160549239Y-135547648D03*
D12*
X166109365Y-119578067D03*
D13*
X168984365Y-124557713D03*
D14*
X171859365Y-129537359D03*
D15*
X174501442Y-117297510D03*
D16*
X177063751Y-126860176D03*
D17*
X186567651Y-112873812D03*
D18*
X188055860Y-118427885D03*
D19*
X189544070Y-123981959D03*
D20*
X195384060Y-112714673D03*
D21*
X195384060Y-122614673D03*
D22*
X208184060Y-111564673D03*
D23*
X208184060Y-117314673D03*
D24*
X208184060Y-123064673D03*
D25*
X263207427Y-103454331D03*
D26*
X261488310Y-113203928D03*
D27*
X276012662Y-104544499D03*
D28*
X275014185Y-110207143D03*
D29*
X274015708Y-115869788D03*
D25*
X247109142Y-91117081D03*
D26*
X245390025Y-100866678D03*
D27*
X259914377Y-92207249D03*
D28*
X258915900Y-97869893D03*
D29*
X257917423Y-103532538D03*
D30*
X226860159Y-93321591D03*
D31*
X226169570Y-103197475D03*
D32*
X239709199Y-93067275D03*
D33*
X239308099Y-98803268D03*
D34*
X238906999Y-104539262D03*
D30*
X228046726Y-76368378D03*
D31*
X227356137Y-86244262D03*
D32*
X240895766Y-76114062D03*
D33*
X240494666Y-81850055D03*
D34*
X240093566Y-87586049D03*
D30*
X229239062Y-59413578D03*
D31*
X228548473Y-69289462D03*
D32*
X242088102Y-59159262D03*
D33*
X241687002Y-64895255D03*
D34*
X241285902Y-70631249D03*
D20*
X208356538Y-83572882D03*
D21*
X208356538Y-93472882D03*
D22*
X221156538Y-82422882D03*
D23*
X221156538Y-88172882D03*
D24*
X221156538Y-93922882D03*
D20*
X190360200Y-58005072D03*
D21*
X190360200Y-67905072D03*
D22*
X203160200Y-56855072D03*
D23*
X203160200Y-62605072D03*
D24*
X203160200Y-68355072D03*
D20*
X190360200Y-75009740D03*
D21*
X190360200Y-84909740D03*
D22*
X203160200Y-73859740D03*
D23*
X203160200Y-79609740D03*
D24*
X203160200Y-85359740D03*
D20*
X190360200Y-92002066D03*
D21*
X190360200Y-101902066D03*
D22*
X203160200Y-90852066D03*
D23*
X203160200Y-96602066D03*
D24*
X203160200Y-102352066D03*
D20*
X172359967Y-94821375D03*
D21*
X172359967Y-104721375D03*
D22*
X185159967Y-93671375D03*
D23*
X185159967Y-99421375D03*
D24*
X185159967Y-105171375D03*
D20*
X172359967Y-77808089D03*
D21*
X172359967Y-87708089D03*
D22*
X185159967Y-76658089D03*
D23*
X185159967Y-82408089D03*
D24*
X185159967Y-88158089D03*
D20*
X172359967Y-60727947D03*
D21*
X172359967Y-70627947D03*
D22*
X185159967Y-59577947D03*
D23*
X185159967Y-65327947D03*
D24*
X185159967Y-71077947D03*
D20*
X91719405Y-112711657D03*
D21*
X91719405Y-122611657D03*
D22*
X104519405Y-111561657D03*
D23*
X104519405Y-117311657D03*
D24*
X104519405Y-123061657D03*
D35*
X122726268Y-127289294D03*
D36*
X124214477Y-121735221D03*
D37*
X125702687Y-116181147D03*
D38*
X110478886Y-123541744D03*
D39*
X113041194Y-113979078D03*
D40*
X133237402Y-120567348D03*
D41*
X128287402Y-129141000D03*
D42*
X144897528Y-125971419D03*
D43*
X142022528Y-130951065D03*
D44*
X139147528Y-135930711D03*
D24*
X127530625Y-88075630D03*
D23*
X127530625Y-82325630D03*
D22*
X127530625Y-76575630D03*
D21*
X114730625Y-87625630D03*
D20*
X114730625Y-77725630D03*
X114730625Y-60716315D03*
D21*
X114730625Y-70616315D03*
D22*
X127530625Y-59566315D03*
D23*
X127530625Y-65316315D03*
D24*
X127530625Y-71066315D03*
D20*
X114730625Y-94717955D03*
D21*
X114730625Y-104617955D03*
D22*
X127530625Y-93567955D03*
D23*
X127530625Y-99317955D03*
D24*
X127530625Y-105067955D03*
X109533378Y-102352067D03*
D23*
X109533378Y-96602067D03*
D22*
X109533378Y-90852067D03*
D21*
X96733378Y-101902067D03*
D20*
X96733378Y-92002067D03*
X96733378Y-75002067D03*
D21*
X96733378Y-84902067D03*
D22*
X109533378Y-73852067D03*
D23*
X109533378Y-79602067D03*
D24*
X109533378Y-85352067D03*
D20*
X96727226Y-58012070D03*
D21*
X96727226Y-67912070D03*
D22*
X109527226Y-56862070D03*
D23*
X109527226Y-62612070D03*
D24*
X109527226Y-68362070D03*
D20*
X78726274Y-83562615D03*
D21*
X78726274Y-93462615D03*
D22*
X91526274Y-82412615D03*
D23*
X91526274Y-88162615D03*
D24*
X91526274Y-93912615D03*
D20*
X78728179Y-66565632D03*
D21*
X78728179Y-76465632D03*
D22*
X91528179Y-65415632D03*
D23*
X91528179Y-71165632D03*
D24*
X91528179Y-76915632D03*
D20*
X78741199Y-49572883D03*
D21*
X78741199Y-59472883D03*
D22*
X91541199Y-48422883D03*
D23*
X91541199Y-54172883D03*
D24*
X91541199Y-59922883D03*
D45*
X57555366Y-118025679D03*
D46*
X56556889Y-112363035D03*
D47*
X55558412Y-106700390D03*
D48*
X44871685Y-119805212D03*
D49*
X43152568Y-110055616D03*
D50*
X72503807Y-86686041D03*
D51*
X72102707Y-80950048D03*
D52*
X71701607Y-75214054D03*
D53*
X59703596Y-87130020D03*
D54*
X59013007Y-77254136D03*
D45*
X54603582Y-101283485D03*
D46*
X53605105Y-95620841D03*
D47*
X52606628Y-89958196D03*
D48*
X41919901Y-103063018D03*
D49*
X40200784Y-93313422D03*
D50*
X73702072Y-103755799D03*
D51*
X73300972Y-98019806D03*
D52*
X72899872Y-92283812D03*
D53*
X60901861Y-104199778D03*
D54*
X60211272Y-94323894D03*
D50*
X71307925Y-69732617D03*
D51*
X70906825Y-63996624D03*
D52*
X70505725Y-58260630D03*
D53*
X58507714Y-70176596D03*
D54*
X57817125Y-60300712D03*
D45*
X38459198Y-113623487D03*
D46*
X37460721Y-107960843D03*
D47*
X36462244Y-102298198D03*
D48*
X25775517Y-115403020D03*
D49*
X24056400Y-105653424D03*
X37258051Y-76571229D03*
D48*
X38977168Y-86320825D03*
D47*
X49663895Y-73216003D03*
D46*
X50662372Y-78878648D03*
D45*
X51660849Y-84541292D03*
D55*
X162872435Y-67194348D03*
X162872435Y-70594348D03*
X137127565Y-74393348D03*
X137127565Y-77793348D03*
X166422435Y-103194348D03*
X166422435Y-106594348D03*
X159322435Y-81597348D03*
X159322435Y-84997348D03*
X162872435Y-88796348D03*
X162872435Y-92196348D03*
X166422435Y-67194348D03*
X166422435Y-70594348D03*
X140677565Y-67194348D03*
X140677565Y-70594348D03*
D56*
X67500000Y-53200000D03*
X64500000Y-53200000D03*
X63000000Y-53200000D03*
D57*
X69100000Y-51300000D03*
X61150000Y-51300000D03*
D58*
X267674173Y-98795202D03*
X264325827Y-98204798D03*
D55*
X162872435Y-81597348D03*
X162872435Y-84997348D03*
X137127565Y-103194348D03*
X137127565Y-106594348D03*
D56*
X237300000Y-53200000D03*
X234300000Y-53200000D03*
X232800000Y-53200000D03*
D57*
X238900000Y-51300000D03*
X230950000Y-51300000D03*
D55*
X137127565Y-88796348D03*
X137127565Y-92196348D03*
X137127565Y-81597348D03*
X137127565Y-84997348D03*
X159322435Y-103194348D03*
X159322435Y-106594348D03*
X162872435Y-103194348D03*
X162872435Y-106594348D03*
X133577565Y-74393348D03*
X133577565Y-77793348D03*
X159322435Y-67194348D03*
X159322435Y-70594348D03*
X162872435Y-95995348D03*
X162872435Y-99395348D03*
X159322435Y-88796348D03*
X159322435Y-92196348D03*
X166422435Y-95995348D03*
X166422435Y-99395348D03*
X133577565Y-88796348D03*
X133577565Y-92196348D03*
D59*
X32325827Y-98795202D03*
X35674173Y-98204798D03*
D55*
X140677565Y-81592348D03*
X140677565Y-84992348D03*
X133577565Y-81597348D03*
X133577565Y-84997348D03*
X159322435Y-95995348D03*
X159322435Y-99395348D03*
X140677565Y-95995348D03*
X140677565Y-99395348D03*
X140677565Y-88796348D03*
X140677565Y-92196348D03*
X133577565Y-103194348D03*
X133577565Y-106594348D03*
X137127565Y-67194348D03*
X137127565Y-70594348D03*
X133577565Y-67194348D03*
X133577565Y-70594348D03*
X137127565Y-95995348D03*
X137127565Y-99395348D03*
X166422435Y-81597348D03*
X166422435Y-84997348D03*
X140677565Y-103194348D03*
X140677565Y-106594348D03*
X159322435Y-74393348D03*
X159322435Y-77793348D03*
X140677565Y-74393348D03*
X140677565Y-77793348D03*
X166422435Y-74393348D03*
X166422435Y-77793348D03*
X166422435Y-88796348D03*
X166422435Y-92196348D03*
X133577565Y-95995348D03*
X133577565Y-99395348D03*
X162872435Y-74393348D03*
X162872435Y-77793348D03*
D20*
X208356538Y-66567536D03*
D21*
X208356538Y-76467536D03*
D22*
X221156538Y-65417536D03*
D23*
X221156538Y-71167536D03*
D24*
X221156538Y-76917536D03*
X221156538Y-59914943D03*
D23*
X221156538Y-54164943D03*
D22*
X221156538Y-48414943D03*
D21*
X208356538Y-59464943D03*
D20*
X208356538Y-49564943D03*
D25*
X250049758Y-74373512D03*
D26*
X248330641Y-84123109D03*
D27*
X262854993Y-75463680D03*
D28*
X261856516Y-81126324D03*
D29*
X260858039Y-86788969D03*
D25*
X244154553Y-107862556D03*
D26*
X242435436Y-117612153D03*
D27*
X256959788Y-108952724D03*
D28*
X255961311Y-114615368D03*
D29*
X254962834Y-120278013D03*
M02*
