G04 #@! TF.GenerationSoftware,KiCad,Pcbnew,9.0.5*
G04 #@! TF.CreationDate,2025-10-26T00:34:49+02:00*
G04 #@! TF.ProjectId,totem_0_3,746f7465-6d5f-4305-9f33-2e6b69636164,0.3*
G04 #@! TF.SameCoordinates,Original*
G04 #@! TF.FileFunction,Soldermask,Top*
G04 #@! TF.FilePolarity,Negative*
%FSLAX46Y46*%
G04 Gerber Fmt 4.6, Leading zero omitted, Abs format (unit mm)*
G04 Created by KiCad (PCBNEW 9.0.5) date 2025-10-26 00:34:49*
%MOMM*%
%LPD*%
G01*
G04 APERTURE LIST*
G04 Aperture macros list*
%AMHorizOval*
0 Thick line with rounded ends*
0 $1 width*
0 $2 $3 position (X,Y) of the first rounded end (center of the circle)*
0 $4 $5 position (X,Y) of the second rounded end (center of the circle)*
0 Add line between two ends*
20,1,$1,$2,$3,$4,$5,0*
0 Add two circle primitives to create the rounded ends*
1,1,$1,$2,$3*
1,1,$1,$4,$5*%
%AMRotRect*
0 Rectangle, with rotation*
0 The origin of the aperture is its center*
0 $1 length*
0 $2 width*
0 $3 Rotation angle, in degrees counterclockwise*
0 Add horizontal line*
21,1,$1,$2,0,0,$3*%
G04 Aperture macros list end*
%ADD10C,0.750000*%
%ADD11C,1.050000*%
%ADD12HorizOval,1.200000X-0.150000X0.259808X0.150000X-0.259808X0*%
%ADD13C,1.200000*%
%ADD14C,1.300000*%
%ADD15RotRect,2.150000X5.000000X30.000000*%
%ADD16RotRect,2.150000X3.200000X30.000000*%
%ADD17RotRect,2.000000X2.700000X30.000000*%
%ADD18RotRect,2.000000X2.600000X30.000000*%
%ADD19RotRect,2.000000X2.300000X30.000000*%
%ADD20HorizOval,1.200000X-0.077646X0.289778X0.077646X-0.289778X0*%
%ADD21RotRect,2.150000X5.000000X15.000000*%
%ADD22RotRect,2.150000X3.200000X15.000000*%
%ADD23RotRect,2.000000X2.700000X15.000000*%
%ADD24RotRect,2.000000X2.600000X15.000000*%
%ADD25RotRect,2.000000X2.300000X15.000000*%
%ADD26O,1.200000X1.800000*%
%ADD27R,2.150000X5.000000*%
%ADD28R,2.150000X3.200000*%
%ADD29R,2.000000X2.700000*%
%ADD30R,2.000000X2.600000*%
%ADD31R,2.000000X2.300000*%
%ADD32HorizOval,1.200000X-0.052094X-0.295442X0.052094X0.295442X0*%
%ADD33RotRect,2.150000X5.000000X350.000000*%
%ADD34RotRect,2.150000X3.200000X350.000000*%
%ADD35RotRect,2.000000X2.700000X350.000000*%
%ADD36RotRect,2.000000X2.600000X350.000000*%
%ADD37RotRect,2.000000X2.300000X350.000000*%
%ADD38HorizOval,1.200000X-0.020927X-0.299269X0.020927X0.299269X0*%
%ADD39RotRect,2.150000X5.000000X356.000000*%
%ADD40RotRect,2.150000X3.200000X356.000000*%
%ADD41RotRect,2.000000X2.700000X356.000000*%
%ADD42RotRect,2.000000X2.600000X356.000000*%
%ADD43RotRect,2.000000X2.300000X356.000000*%
%ADD44RotRect,2.000000X2.300000X345.000000*%
%ADD45RotRect,2.000000X2.600000X345.000000*%
%ADD46RotRect,2.000000X2.700000X345.000000*%
%ADD47RotRect,2.150000X3.200000X345.000000*%
%ADD48RotRect,2.150000X5.000000X345.000000*%
%ADD49HorizOval,1.200000X-0.077646X-0.289778X0.077646X0.289778X0*%
%ADD50HorizOval,1.200000X-0.150000X-0.259808X0.150000X0.259808X0*%
%ADD51RotRect,2.150000X5.000000X330.000000*%
%ADD52RotRect,2.150000X3.200000X330.000000*%
%ADD53RotRect,2.000000X2.700000X330.000000*%
%ADD54RotRect,2.000000X2.600000X330.000000*%
%ADD55RotRect,2.000000X2.300000X330.000000*%
%ADD56RotRect,2.000000X2.300000X10.000000*%
%ADD57RotRect,2.000000X2.600000X10.000000*%
%ADD58RotRect,2.000000X2.700000X10.000000*%
%ADD59RotRect,2.150000X3.200000X10.000000*%
%ADD60RotRect,2.150000X5.000000X10.000000*%
%ADD61HorizOval,1.200000X-0.052094X0.295442X0.052094X-0.295442X0*%
%ADD62RotRect,2.000000X2.300000X4.000000*%
%ADD63RotRect,2.000000X2.600000X4.000000*%
%ADD64RotRect,2.000000X2.700000X4.000000*%
%ADD65RotRect,2.150000X3.200000X4.000000*%
%ADD66RotRect,2.150000X5.000000X4.000000*%
%ADD67HorizOval,1.200000X-0.020927X0.299269X0.020927X-0.299269X0*%
%ADD68R,1.500000X1.800000*%
%ADD69C,0.500000*%
%ADD70C,5.600000*%
%ADD71O,1.800000X2.750000*%
%ADD72C,1.397000*%
%ADD73C,2.500000*%
%ADD74C,0.900000*%
%ADD75R,0.700000X1.000000*%
%ADD76R,1.000000X2.800000*%
%ADD77C,2.100000*%
%ADD78RotRect,1.800000X1.500000X170.000000*%
%ADD79RotRect,1.800000X1.500000X10.000000*%
G04 APERTURE END LIST*
D10*
X89500000Y-99000000D02*
X89500000Y-101500000D01*
X88500000Y-103000000D02*
X90500000Y-103000000D01*
X210500000Y-99000000D02*
X210500000Y-103000000D01*
X212000000Y-101000000D02*
X212000000Y-103000000D01*
X209000000Y-101000000D02*
X209000000Y-103000000D01*
X209000000Y-101000000D02*
X212000000Y-101000000D01*
D11*
X159018855Y-131696943D03*
X159793854Y-133039282D03*
D12*
X166984749Y-122294278D03*
D13*
X170094749Y-127680956D03*
D14*
X164208789Y-130086174D03*
X166200648Y-128936174D03*
D15*
X155599239Y-126973996D03*
D16*
X160549239Y-135547648D03*
D17*
X166109365Y-119578067D03*
D18*
X168984365Y-124557713D03*
D19*
X171859365Y-129537359D03*
D11*
X176582148Y-122744588D03*
X176983317Y-124241773D03*
D20*
X186710200Y-115724036D03*
D13*
X188320055Y-121732095D03*
D14*
X182012138Y-122531959D03*
X184233767Y-121936675D03*
D21*
X174501442Y-117297510D03*
D22*
X177063751Y-126860176D03*
D23*
X186567651Y-112873812D03*
D24*
X188055860Y-118427885D03*
D25*
X189544070Y-123981959D03*
D11*
X195984060Y-118514673D03*
X195984060Y-120064672D03*
D26*
X207584060Y-114354673D03*
D13*
X207584060Y-120574673D03*
D14*
X201284060Y-119714673D03*
X203584060Y-119714673D03*
D27*
X195384060Y-112714673D03*
D28*
X195384060Y-122614673D03*
D29*
X208184060Y-111564673D03*
D30*
X208184060Y-117314673D03*
D31*
X208184060Y-123064673D03*
D11*
X262791152Y-109270405D03*
X262521998Y-110796856D03*
D32*
X274937299Y-107187923D03*
D13*
X273857207Y-113313428D03*
D14*
X267802255Y-111372510D03*
X270067313Y-111771900D03*
D33*
X263207427Y-103454331D03*
D34*
X261488310Y-113203928D03*
D35*
X276012662Y-104544499D03*
D36*
X275014185Y-110207143D03*
D37*
X274015708Y-115869788D03*
D11*
X246692867Y-96933155D03*
X246423713Y-98459606D03*
D32*
X258839014Y-94850673D03*
D13*
X257758922Y-100976178D03*
D14*
X251703970Y-99035260D03*
X253969028Y-99434650D03*
D33*
X247109142Y-91117081D03*
D34*
X245390025Y-100866678D03*
D35*
X259914377Y-92207249D03*
D36*
X258915900Y-97869893D03*
D37*
X257917423Y-103532538D03*
D11*
X227054110Y-99149316D03*
X226945987Y-100695540D03*
D38*
X238916040Y-95808625D03*
D13*
X238482154Y-102013473D03*
D14*
X232257491Y-100716102D03*
X234551889Y-100876542D03*
D39*
X226860159Y-93321591D03*
D40*
X226169570Y-103197475D03*
D41*
X239709199Y-93067275D03*
D42*
X239308099Y-98803268D03*
D43*
X238906999Y-104539262D03*
D11*
X228240677Y-82196103D03*
X228132554Y-83742327D03*
D38*
X240102607Y-78855412D03*
D13*
X239668721Y-85060260D03*
D14*
X233444058Y-83762889D03*
X235738456Y-83923329D03*
D39*
X228046726Y-76368378D03*
D40*
X227356137Y-86244262D03*
D41*
X240895766Y-76114062D03*
D42*
X240494666Y-81850055D03*
D43*
X240093566Y-87586049D03*
D11*
X229433013Y-65241303D03*
X229324890Y-66787527D03*
D38*
X241294943Y-61900612D03*
D13*
X240861057Y-68105460D03*
D14*
X234636394Y-66808089D03*
X236930792Y-66968529D03*
D39*
X229239062Y-59413578D03*
D40*
X228548473Y-69289462D03*
D41*
X242088102Y-59159262D03*
D42*
X241687002Y-64895255D03*
D43*
X241285902Y-70631249D03*
D11*
X208956538Y-89372882D03*
X208956538Y-90922881D03*
D26*
X220556538Y-85212882D03*
D13*
X220556538Y-91432882D03*
D14*
X214256538Y-90572882D03*
X216556538Y-90572882D03*
D27*
X208356538Y-83572882D03*
D28*
X208356538Y-93472882D03*
D29*
X221156538Y-82422882D03*
D30*
X221156538Y-88172882D03*
D31*
X221156538Y-93922882D03*
D11*
X190960200Y-63805072D03*
X190960200Y-65355071D03*
D26*
X202560200Y-59645072D03*
D13*
X202560200Y-65865072D03*
D14*
X196260200Y-65005072D03*
X198560200Y-65005072D03*
D27*
X190360200Y-58005072D03*
D28*
X190360200Y-67905072D03*
D29*
X203160200Y-56855072D03*
D30*
X203160200Y-62605072D03*
D31*
X203160200Y-68355072D03*
D11*
X190960200Y-80809740D03*
X190960200Y-82359739D03*
D26*
X202560200Y-76649740D03*
D13*
X202560200Y-82869740D03*
D14*
X196260200Y-82009740D03*
X198560200Y-82009740D03*
D27*
X190360200Y-75009740D03*
D28*
X190360200Y-84909740D03*
D29*
X203160200Y-73859740D03*
D30*
X203160200Y-79609740D03*
D31*
X203160200Y-85359740D03*
D11*
X190960200Y-97802066D03*
X190960200Y-99352065D03*
D26*
X202560200Y-93642066D03*
D13*
X202560200Y-99862066D03*
D14*
X196260200Y-99002066D03*
X198560200Y-99002066D03*
D27*
X190360200Y-92002066D03*
D28*
X190360200Y-101902066D03*
D29*
X203160200Y-90852066D03*
D30*
X203160200Y-96602066D03*
D31*
X203160200Y-102352066D03*
D11*
X172959967Y-100621375D03*
X172959967Y-102171374D03*
D26*
X184559967Y-96461375D03*
D13*
X184559967Y-102681375D03*
D14*
X178259967Y-101821375D03*
X180559967Y-101821375D03*
D27*
X172359967Y-94821375D03*
D28*
X172359967Y-104721375D03*
D29*
X185159967Y-93671375D03*
D30*
X185159967Y-99421375D03*
D31*
X185159967Y-105171375D03*
D11*
X172959967Y-83608089D03*
X172959967Y-85158088D03*
D26*
X184559967Y-79448089D03*
D13*
X184559967Y-85668089D03*
D14*
X178259967Y-84808089D03*
X180559967Y-84808089D03*
D27*
X172359967Y-77808089D03*
D28*
X172359967Y-87708089D03*
D29*
X185159967Y-76658089D03*
D30*
X185159967Y-82408089D03*
D31*
X185159967Y-88158089D03*
D11*
X172959967Y-66527947D03*
X172959967Y-68077946D03*
D26*
X184559967Y-62367947D03*
D13*
X184559967Y-68587947D03*
D14*
X178259967Y-67727947D03*
X180559967Y-67727947D03*
D27*
X172359967Y-60727947D03*
D28*
X172359967Y-70627947D03*
D29*
X185159967Y-59577947D03*
D30*
X185159967Y-65327947D03*
D31*
X185159967Y-71077947D03*
D11*
X92319405Y-118511657D03*
X92319405Y-120061656D03*
D26*
X103919405Y-114351657D03*
D13*
X103919405Y-120571657D03*
D14*
X97619405Y-119711657D03*
X99919405Y-119711657D03*
D27*
X91719405Y-112711657D03*
D28*
X91719405Y-122611657D03*
D29*
X104519405Y-111561657D03*
D30*
X104519405Y-117311657D03*
D31*
X104519405Y-123061657D03*
D44*
X122726268Y-127289294D03*
D45*
X124214477Y-121735221D03*
D46*
X125702687Y-116181147D03*
D47*
X110478886Y-123541744D03*
D48*
X113041194Y-113979078D03*
D14*
X119150053Y-122862875D03*
X116928423Y-122267591D03*
D13*
X122791172Y-124728848D03*
D49*
X124401026Y-118720789D03*
D11*
X111718430Y-121233924D03*
X112119599Y-119736740D03*
X130857018Y-125890295D03*
X130082018Y-127232634D03*
D50*
X142982912Y-128087630D03*
D13*
X139872912Y-133474308D03*
D14*
X134846952Y-129579526D03*
X136838811Y-130729526D03*
D51*
X133237402Y-120567348D03*
D52*
X128287402Y-129141000D03*
D53*
X144897528Y-125971419D03*
D54*
X142022528Y-130951065D03*
D55*
X139147528Y-135930711D03*
D31*
X127530625Y-88075630D03*
D30*
X127530625Y-82325630D03*
D29*
X127530625Y-76575630D03*
D28*
X114730625Y-87625630D03*
D27*
X114730625Y-77725630D03*
D14*
X122930625Y-84725630D03*
X120630625Y-84725630D03*
D13*
X126930625Y-85585630D03*
D26*
X126930625Y-79365630D03*
D11*
X115330625Y-85075629D03*
X115330625Y-83525630D03*
X115330625Y-66516315D03*
X115330625Y-68066314D03*
D26*
X126930625Y-62356315D03*
D13*
X126930625Y-68576315D03*
D14*
X120630625Y-67716315D03*
X122930625Y-67716315D03*
D27*
X114730625Y-60716315D03*
D28*
X114730625Y-70616315D03*
D29*
X127530625Y-59566315D03*
D30*
X127530625Y-65316315D03*
D31*
X127530625Y-71066315D03*
D11*
X115330625Y-100517955D03*
X115330625Y-102067954D03*
D26*
X126930625Y-96357955D03*
D13*
X126930625Y-102577955D03*
D14*
X120630625Y-101717955D03*
X122930625Y-101717955D03*
D27*
X114730625Y-94717955D03*
D28*
X114730625Y-104617955D03*
D29*
X127530625Y-93567955D03*
D30*
X127530625Y-99317955D03*
D31*
X127530625Y-105067955D03*
X109533378Y-102352067D03*
D30*
X109533378Y-96602067D03*
D29*
X109533378Y-90852067D03*
D28*
X96733378Y-101902067D03*
D27*
X96733378Y-92002067D03*
D14*
X104933378Y-99002067D03*
X102633378Y-99002067D03*
D13*
X108933378Y-99862067D03*
D26*
X108933378Y-93642067D03*
D11*
X97333378Y-99352066D03*
X97333378Y-97802067D03*
X97333378Y-80802067D03*
X97333378Y-82352066D03*
D26*
X108933378Y-76642067D03*
D13*
X108933378Y-82862067D03*
D14*
X102633378Y-82002067D03*
X104933378Y-82002067D03*
D27*
X96733378Y-75002067D03*
D28*
X96733378Y-84902067D03*
D29*
X109533378Y-73852067D03*
D30*
X109533378Y-79602067D03*
D31*
X109533378Y-85352067D03*
D11*
X97327226Y-63812070D03*
X97327226Y-65362069D03*
D26*
X108927226Y-59652070D03*
D13*
X108927226Y-65872070D03*
D14*
X102627226Y-65012070D03*
X104927226Y-65012070D03*
D27*
X96727226Y-58012070D03*
D28*
X96727226Y-67912070D03*
D29*
X109527226Y-56862070D03*
D30*
X109527226Y-62612070D03*
D31*
X109527226Y-68362070D03*
D11*
X79326274Y-89362615D03*
X79326274Y-90912614D03*
D26*
X90926274Y-85202615D03*
D13*
X90926274Y-91422615D03*
D14*
X84626274Y-90562615D03*
X86926274Y-90562615D03*
D27*
X78726274Y-83562615D03*
D28*
X78726274Y-93462615D03*
D29*
X91526274Y-82412615D03*
D30*
X91526274Y-88162615D03*
D31*
X91526274Y-93912615D03*
D11*
X79328179Y-72365632D03*
X79328179Y-73915631D03*
D26*
X90928179Y-68205632D03*
D13*
X90928179Y-74425632D03*
D14*
X84628179Y-73565632D03*
X86928179Y-73565632D03*
D27*
X78728179Y-66565632D03*
D28*
X78728179Y-76465632D03*
D29*
X91528179Y-65415632D03*
D30*
X91528179Y-71165632D03*
D31*
X91528179Y-76915632D03*
D11*
X79341199Y-55372883D03*
X79341199Y-56922882D03*
D26*
X90941199Y-51212883D03*
D13*
X90941199Y-57432883D03*
D14*
X84641199Y-56572883D03*
X86941199Y-56572883D03*
D27*
X78741199Y-49572883D03*
D28*
X78741199Y-59472883D03*
D29*
X91541199Y-48422883D03*
D30*
X91541199Y-54172883D03*
D31*
X91541199Y-59922883D03*
D56*
X57555366Y-118025679D03*
D57*
X56556889Y-112363035D03*
D58*
X55558412Y-106700390D03*
D59*
X44871685Y-119805212D03*
D60*
X43152568Y-110055616D03*
D14*
X52443529Y-115525355D03*
X50178471Y-115924746D03*
D13*
X56532097Y-115677697D03*
D61*
X55452005Y-109552193D03*
D11*
X45019766Y-117189763D03*
X44750612Y-115663312D03*
D62*
X72503807Y-86686041D03*
D63*
X72102707Y-80950048D03*
D64*
X71701607Y-75214054D03*
D65*
X59703596Y-87130020D03*
D66*
X59013007Y-77254136D03*
D14*
X67681328Y-83665081D03*
X65386931Y-83825521D03*
D13*
X71731575Y-84243960D03*
D67*
X71297689Y-78039112D03*
D11*
X60124256Y-84544377D03*
X60016133Y-82998153D03*
D56*
X54603582Y-101283485D03*
D57*
X53605105Y-95620841D03*
D58*
X52606628Y-89958196D03*
D59*
X41919901Y-103063018D03*
D60*
X40200784Y-93313422D03*
D14*
X49491745Y-98783161D03*
X47226687Y-99182552D03*
D13*
X53580313Y-98935503D03*
D61*
X52500221Y-92809999D03*
D11*
X42067982Y-100447569D03*
X41798828Y-98921118D03*
D62*
X73702072Y-103755799D03*
D63*
X73300972Y-98019806D03*
D64*
X72899872Y-92283812D03*
D65*
X60901861Y-104199778D03*
D66*
X60211272Y-94323894D03*
D14*
X68879593Y-100734839D03*
X66585196Y-100895279D03*
D13*
X72929840Y-101313718D03*
D67*
X72495954Y-95108870D03*
D11*
X61322521Y-101614135D03*
X61214398Y-100067911D03*
D62*
X71307925Y-69732617D03*
D63*
X70906825Y-63996624D03*
D64*
X70505725Y-58260630D03*
D65*
X58507714Y-70176596D03*
D66*
X57817125Y-60300712D03*
D14*
X66485446Y-66711657D03*
X64191049Y-66872097D03*
D13*
X70535693Y-67290536D03*
D67*
X70101807Y-61085688D03*
D11*
X58928374Y-67590953D03*
X58820251Y-66044729D03*
D56*
X38459198Y-113623487D03*
D57*
X37460721Y-107960843D03*
D58*
X36462244Y-102298198D03*
D59*
X25775517Y-115403020D03*
D60*
X24056400Y-105653424D03*
D14*
X33347361Y-111123163D03*
X31082303Y-111522554D03*
D13*
X37435929Y-111275505D03*
D61*
X36355837Y-105150001D03*
D11*
X25923598Y-112787571D03*
X25654444Y-111261120D03*
X38856095Y-82178925D03*
X39125249Y-83705376D03*
D61*
X49557488Y-76067806D03*
D13*
X50637580Y-82193310D03*
D14*
X44283954Y-82440359D03*
X46549012Y-82040968D03*
D60*
X37258051Y-76571229D03*
D59*
X38977168Y-86320825D03*
D58*
X49663895Y-73216003D03*
D57*
X50662372Y-78878648D03*
D56*
X51660849Y-84541292D03*
D68*
X162872435Y-67194348D03*
X162872435Y-70594348D03*
X137127565Y-74393348D03*
X137127565Y-77793348D03*
D69*
X156392565Y-107434348D03*
X156392565Y-108174348D03*
X156392565Y-108914348D03*
X156392565Y-109654348D03*
X156392565Y-110394348D03*
X156392565Y-111134348D03*
D70*
X139500000Y-112000000D03*
D13*
X161800000Y-51200000D03*
X161800000Y-58200000D03*
D71*
X266420000Y-51505000D03*
X263880000Y-51505000D03*
X261340000Y-51505000D03*
X258800000Y-51505000D03*
X256260000Y-51505000D03*
X253720000Y-51505000D03*
X251180000Y-51505000D03*
X251180000Y-67695000D03*
X253720000Y-67695000D03*
X256260000Y-67695000D03*
X258800000Y-67695000D03*
X261340000Y-67695000D03*
X263880000Y-67695000D03*
X266420000Y-67695000D03*
D72*
X267372000Y-58330000D03*
X267372000Y-60870000D03*
X264832000Y-58330000D03*
X264832000Y-60870000D03*
X259117000Y-55155000D03*
X261022000Y-55155000D03*
D73*
X213000000Y-99000000D03*
D68*
X166422435Y-103194348D03*
X166422435Y-106594348D03*
X159322435Y-81597348D03*
X159322435Y-84997348D03*
D73*
X92000000Y-99000000D03*
D68*
X162872435Y-88796348D03*
X162872435Y-92196348D03*
D70*
X34300000Y-121014348D03*
D68*
X166422435Y-67194348D03*
X166422435Y-70594348D03*
X140677565Y-67194348D03*
X140677565Y-70594348D03*
D74*
X63750000Y-51350000D03*
X66750000Y-51400000D03*
D75*
X67500000Y-53200000D03*
X64500000Y-53200000D03*
X63000000Y-53200000D03*
D76*
X69100000Y-51300000D03*
X61150000Y-51300000D03*
D77*
X173500000Y-53850000D03*
X180500000Y-53850000D03*
D70*
X265700000Y-121000000D03*
X243000000Y-52700000D03*
D78*
X267674173Y-98795202D03*
X264325827Y-98204798D03*
D68*
X162872435Y-81597348D03*
X162872435Y-84997348D03*
X137127565Y-103194348D03*
X137127565Y-106594348D03*
D74*
X233550000Y-51350000D03*
X236550000Y-51400000D03*
D75*
X237300000Y-53200000D03*
X234300000Y-53200000D03*
X232800000Y-53200000D03*
D76*
X238900000Y-51300000D03*
X230950000Y-51300000D03*
D68*
X137127565Y-88796348D03*
X137127565Y-92196348D03*
X137127565Y-81597348D03*
X137127565Y-84997348D03*
X159322435Y-103194348D03*
X159322435Y-106594348D03*
X162872435Y-103194348D03*
X162872435Y-106594348D03*
X133577565Y-74393348D03*
X133577565Y-77793348D03*
X159322435Y-67194348D03*
X159322435Y-70594348D03*
D70*
X57000000Y-52700000D03*
D69*
X143597565Y-111134348D03*
X143597565Y-110394348D03*
X143597565Y-109654348D03*
X143597565Y-108914348D03*
X143597565Y-108174348D03*
X143597565Y-107434348D03*
D68*
X162872435Y-95995348D03*
X162872435Y-99395348D03*
D73*
X208000000Y-99000000D03*
D68*
X159322435Y-88796348D03*
X159322435Y-92196348D03*
X166422435Y-95995348D03*
X166422435Y-99395348D03*
X133577565Y-88796348D03*
X133577565Y-92196348D03*
D77*
X119500000Y-53850000D03*
X126500000Y-53850000D03*
D79*
X32325827Y-98795202D03*
X35674173Y-98204798D03*
D68*
X140677565Y-81592348D03*
X140677565Y-84992348D03*
X133577565Y-81597348D03*
X133577565Y-84997348D03*
X159322435Y-95995348D03*
X159322435Y-99395348D03*
D13*
X138200000Y-51200000D03*
X138200000Y-58200000D03*
D68*
X140677565Y-95995348D03*
X140677565Y-99395348D03*
D69*
X156422565Y-65034348D03*
X156422565Y-65774348D03*
X156422565Y-66514348D03*
X156422565Y-67254348D03*
X156422565Y-67994348D03*
X156422565Y-68734348D03*
D68*
X140677565Y-88796348D03*
X140677565Y-92196348D03*
X133577565Y-103194348D03*
X133577565Y-106594348D03*
X137127565Y-67194348D03*
X137127565Y-70594348D03*
X133577565Y-67194348D03*
X133577565Y-70594348D03*
D73*
X87000000Y-99000000D03*
D68*
X137127565Y-95995348D03*
X137127565Y-99395348D03*
X166422435Y-81597348D03*
X166422435Y-84997348D03*
X140677565Y-103194348D03*
X140677565Y-106594348D03*
X159322435Y-74393348D03*
X159322435Y-77793348D03*
D70*
X160500000Y-112000000D03*
D68*
X140677565Y-74393348D03*
X140677565Y-77793348D03*
D70*
X131200000Y-52700000D03*
D68*
X166422435Y-74393348D03*
X166422435Y-77793348D03*
X166422435Y-88796348D03*
X166422435Y-92196348D03*
X133577565Y-95995348D03*
X133577565Y-99395348D03*
D69*
X143627565Y-68734348D03*
X143627565Y-67994348D03*
X143627565Y-67254348D03*
X143627565Y-66514348D03*
X143627565Y-65774348D03*
X143627565Y-65034348D03*
D71*
X33580000Y-67695000D03*
X36120000Y-67695000D03*
X38660000Y-67695000D03*
X41200000Y-67695000D03*
X43740000Y-67695000D03*
X46280000Y-67695000D03*
X48820000Y-67695000D03*
X48820000Y-51505000D03*
X46280000Y-51505000D03*
X43740000Y-51505000D03*
X41200000Y-51505000D03*
X38660000Y-51505000D03*
X36120000Y-51505000D03*
X33580000Y-51505000D03*
D72*
X32628000Y-60870000D03*
X32628000Y-58330000D03*
X35168000Y-60870000D03*
X35168000Y-58330000D03*
X40883000Y-64045000D03*
X38978000Y-64045000D03*
D70*
X168800000Y-52700000D03*
D68*
X162872435Y-74393348D03*
X162872435Y-77793348D03*
D11*
X208956538Y-72367536D03*
X208956538Y-73917535D03*
D26*
X220556538Y-68207536D03*
D13*
X220556538Y-74427536D03*
D14*
X214256538Y-73567536D03*
X216556538Y-73567536D03*
D27*
X208356538Y-66567536D03*
D28*
X208356538Y-76467536D03*
D29*
X221156538Y-65417536D03*
D30*
X221156538Y-71167536D03*
D31*
X221156538Y-76917536D03*
X221156538Y-59914943D03*
D30*
X221156538Y-54164943D03*
D29*
X221156538Y-48414943D03*
D28*
X208356538Y-59464943D03*
D27*
X208356538Y-49564943D03*
D14*
X216556538Y-56564943D03*
X214256538Y-56564943D03*
D13*
X220556538Y-57424943D03*
D26*
X220556538Y-51204943D03*
D11*
X208956538Y-56914942D03*
X208956538Y-55364943D03*
X249633483Y-80189586D03*
X249364329Y-81716037D03*
D32*
X261779630Y-78107104D03*
D13*
X260699538Y-84232609D03*
D14*
X254644586Y-82291691D03*
X256909644Y-82691081D03*
D33*
X250049758Y-74373512D03*
D34*
X248330641Y-84123109D03*
D35*
X262854993Y-75463680D03*
D36*
X261856516Y-81126324D03*
D37*
X260858039Y-86788969D03*
D11*
X243738278Y-113678630D03*
X243469124Y-115205081D03*
D32*
X255884425Y-111596148D03*
D13*
X254804333Y-117721653D03*
D14*
X248749381Y-115780735D03*
X251014439Y-116180125D03*
D33*
X244154553Y-107862556D03*
D34*
X242435436Y-117612153D03*
D35*
X256959788Y-108952724D03*
D36*
X255961311Y-114615368D03*
D37*
X254962834Y-120278013D03*
M02*
