M48
; DRILL file {KiCad 9.0.5} date 2025-10-26T00:34:38+0200
; FORMAT={-:-/ absolute / metric / decimal}
; #@! TF.CreationDate,2025-10-26T00:34:38+02:00
; #@! TF.GenerationSoftware,Kicad,Pcbnew,9.0.5
; #@! TF.FileFunction,NonPlated,1,2,NPTH
FMAT,2
METRIC
; #@! TA.AperFunction,NonPlated,NPTH,ComponentDrill
T1C0.500
; #@! TA.AperFunction,NonPlated,NPTH,ComponentDrill
T2C0.700
; #@! TA.AperFunction,NonPlated,NPTH,ComponentDrill
T3C1.050
; #@! TA.AperFunction,NonPlated,NPTH,ComponentDrill
T4C1.200
%
G90
G05
T1
X143.598Y-107.434
X143.598Y-108.174
X143.598Y-108.914
X143.598Y-109.654
X143.598Y-110.394
X143.598Y-111.134
X143.628Y-65.034
X143.628Y-65.774
X143.628Y-66.514
X143.628Y-67.254
X143.628Y-67.994
X143.628Y-68.734
X156.393Y-107.434
X156.393Y-108.174
X156.393Y-108.914
X156.393Y-109.654
X156.393Y-110.394
X156.393Y-111.134
X156.423Y-65.034
X156.423Y-65.774
X156.423Y-66.514
X156.423Y-67.254
X156.423Y-67.994
X156.423Y-68.734
T2
X63.75Y-51.35
X66.75Y-51.4
X233.55Y-51.35
X236.55Y-51.4
T3
X25.654Y-111.261
X25.924Y-112.788
X38.856Y-82.179
X39.125Y-83.705
X41.799Y-98.921
X42.068Y-100.448
X44.751Y-115.663
X45.02Y-117.19
X58.82Y-66.045
X58.928Y-67.591
X60.016Y-82.998
X60.124Y-84.544
X61.214Y-100.068
X61.323Y-101.614
X79.326Y-89.363
X79.326Y-90.913
X79.328Y-72.366
X79.328Y-73.916
X79.341Y-55.373
X79.341Y-56.923
X92.319Y-118.512
X92.319Y-120.062
X97.327Y-63.812
X97.327Y-65.362
X97.333Y-80.802
X97.333Y-82.352
X97.333Y-97.802
X97.333Y-99.352
X111.718Y-121.234
X112.12Y-119.737
X115.331Y-66.516
X115.331Y-68.066
X115.331Y-83.526
X115.331Y-85.076
X115.331Y-100.518
X115.331Y-102.068
X130.082Y-127.233
X130.857Y-125.89
X159.019Y-131.697
X159.794Y-133.039
X172.96Y-66.528
X172.96Y-68.078
X172.96Y-83.608
X172.96Y-85.158
X172.96Y-100.621
X172.96Y-102.171
X176.582Y-122.745
X176.983Y-124.242
X190.96Y-63.805
X190.96Y-65.355
X190.96Y-80.81
X190.96Y-82.36
X190.96Y-97.802
X190.96Y-99.352
X195.984Y-118.515
X195.984Y-120.065
X208.957Y-55.365
X208.957Y-56.915
X208.957Y-72.368
X208.957Y-73.918
X208.957Y-89.373
X208.957Y-90.923
X226.946Y-100.696
X227.054Y-99.149
X228.133Y-83.742
X228.241Y-82.196
X229.325Y-66.788
X229.433Y-65.241
X243.469Y-115.205
X243.738Y-113.679
X246.424Y-98.46
X246.693Y-96.933
X249.364Y-81.716
X249.633Y-80.19
X262.522Y-110.797
X262.791Y-109.27
T4
X37.436Y-111.276
X50.638Y-82.193
X53.58Y-98.936
X56.532Y-115.678
X70.536Y-67.291
X71.732Y-84.244
X72.93Y-101.314
X90.926Y-91.423
X90.928Y-74.426
X90.941Y-57.433
X103.919Y-120.572
X108.927Y-65.872
X108.933Y-82.862
X108.933Y-99.862
X122.791Y-124.729
X126.931Y-68.576
X126.931Y-85.586
X126.931Y-102.578
X138.2Y-51.2
X138.2Y-58.2
X139.873Y-133.474
X161.8Y-51.2
X161.8Y-58.2
X170.095Y-127.681
X184.56Y-68.588
X184.56Y-85.668
X184.56Y-102.681
X188.32Y-121.732
X202.56Y-65.865
X202.56Y-82.87
X202.56Y-99.862
X207.584Y-120.575
X220.557Y-57.425
X220.557Y-74.428
X220.557Y-91.433
X238.482Y-102.013
X239.669Y-85.06
X240.861Y-68.105
X254.804Y-117.722
X257.759Y-100.976
X260.7Y-84.233
X273.857Y-113.313
T4
G00X36.304Y-104.855
M15
G01X36.408Y-105.445
M16
G05
G00X49.505Y-75.772
M15
G01X49.61Y-76.363
M16
G05
G00X52.448Y-92.515
M15
G01X52.552Y-93.105
M16
G05
G00X55.4Y-109.257
M15
G01X55.504Y-109.848
M16
G05
G00X70.081Y-60.786
M15
G01X70.123Y-61.385
M16
G05
G00X71.277Y-77.74
M15
G01X71.319Y-78.338
M16
G05
G00X72.475Y-94.81
M15
G01X72.517Y-95.408
M16
G05
G00X90.926Y-84.903
M15
G01X90.926Y-85.503
M16
G05
G00X90.928Y-67.906
M15
G01X90.928Y-68.506
M16
G05
G00X90.941Y-50.913
M15
G01X90.941Y-51.513
M16
G05
G00X103.919Y-114.052
M15
G01X103.919Y-114.652
M16
G05
G00X108.927Y-59.352
M15
G01X108.927Y-59.952
M16
G05
G00X108.933Y-76.342
M15
G01X108.933Y-76.942
M16
G05
G00X108.933Y-93.342
M15
G01X108.933Y-93.942
M16
G05
G00X124.479Y-118.431
M15
G01X124.323Y-119.011
M16
G05
G00X126.931Y-62.056
M15
G01X126.931Y-62.656
M16
G05
G00X126.931Y-79.066
M15
G01X126.931Y-79.666
M16
G05
G00X126.931Y-96.058
M15
G01X126.931Y-96.658
M16
G05
G00X143.133Y-127.828
M15
G01X142.833Y-128.347
M16
G05
G00X166.835Y-122.034
M15
G01X167.135Y-122.554
M16
G05
G00X184.56Y-62.068
M15
G01X184.56Y-62.668
M16
G05
G00X184.56Y-79.148
M15
G01X184.56Y-79.748
M16
G05
G00X184.56Y-96.161
M15
G01X184.56Y-96.761
M16
G05
G00X186.633Y-115.434
M15
G01X186.788Y-116.014
M16
G05
G00X202.56Y-59.345
M15
G01X202.56Y-59.945
M16
G05
G00X202.56Y-76.35
M15
G01X202.56Y-76.95
M16
G05
G00X202.56Y-93.342
M15
G01X202.56Y-93.942
M16
G05
G00X207.584Y-114.055
M15
G01X207.584Y-114.655
M16
G05
G00X220.557Y-50.905
M15
G01X220.557Y-51.505
M16
G05
G00X220.557Y-67.908
M15
G01X220.557Y-68.508
M16
G05
G00X220.557Y-84.913
M15
G01X220.557Y-85.513
M16
G05
G00X238.937Y-95.509
M15
G01X238.895Y-96.108
M16
G05
G00X240.124Y-78.556
M15
G01X240.082Y-79.155
M16
G05
G00X241.316Y-61.601
M15
G01X241.274Y-62.2
M16
G05
G00X255.937Y-111.301
M15
G01X255.832Y-111.892
M16
G05
G00X258.891Y-94.555
M15
G01X258.787Y-95.146
M16
G05
G00X261.832Y-77.812
M15
G01X261.728Y-78.403
M16
G05
G00X274.989Y-106.892
M15
G01X274.885Y-107.483
M16
G05
M30
