G04 #@! TF.GenerationSoftware,KiCad,Pcbnew,9.0.5*
G04 #@! TF.CreationDate,2025-10-26T00:34:48+02:00*
G04 #@! TF.ProjectId,totem_0_3,746f7465-6d5f-4305-9f33-2e6b69636164,0.3*
G04 #@! TF.SameCoordinates,Original*
G04 #@! TF.FileFunction,Legend,Top*
G04 #@! TF.FilePolarity,Positive*
%FSLAX46Y46*%
G04 Gerber Fmt 4.6, Leading zero omitted, Abs format (unit mm)*
G04 Created by KiCad (PCBNEW 9.0.5) date 2025-10-26 00:34:48*
%MOMM*%
%LPD*%
G01*
G04 APERTURE LIST*
G04 Aperture macros list*
%AMHorizOval*
0 Thick line with rounded ends*
0 $1 width*
0 $2 $3 position (X,Y) of the first rounded end (center of the circle)*
0 $4 $5 position (X,Y) of the second rounded end (center of the circle)*
0 Add line between two ends*
20,1,$1,$2,$3,$4,$5,0*
0 Add two circle primitives to create the rounded ends*
1,1,$1,$2,$3*
1,1,$1,$4,$5*%
%AMRotRect*
0 Rectangle, with rotation*
0 The origin of the aperture is its center*
0 $1 length*
0 $2 width*
0 $3 Rotation angle, in degrees counterclockwise*
0 Add horizontal line*
21,1,$1,$2,0,0,$3*%
G04 Aperture macros list end*
%ADD10C,0.150000*%
%ADD11C,0.475000*%
%ADD12C,0.100000*%
%ADD13C,0.120000*%
%ADD14C,2.500000*%
%ADD15C,0.750000*%
%ADD16C,1.050000*%
%ADD17HorizOval,1.200000X-0.150000X0.259808X0.150000X-0.259808X0*%
%ADD18C,1.200000*%
%ADD19C,1.300000*%
%ADD20RotRect,2.150000X5.000000X30.000000*%
%ADD21RotRect,2.150000X3.200000X30.000000*%
%ADD22RotRect,2.000000X2.700000X30.000000*%
%ADD23RotRect,2.000000X2.600000X30.000000*%
%ADD24RotRect,2.000000X2.300000X30.000000*%
%ADD25HorizOval,1.200000X-0.077646X0.289778X0.077646X-0.289778X0*%
%ADD26RotRect,2.150000X5.000000X15.000000*%
%ADD27RotRect,2.150000X3.200000X15.000000*%
%ADD28RotRect,2.000000X2.700000X15.000000*%
%ADD29RotRect,2.000000X2.600000X15.000000*%
%ADD30RotRect,2.000000X2.300000X15.000000*%
%ADD31O,1.200000X1.800000*%
%ADD32R,2.150000X5.000000*%
%ADD33R,2.150000X3.200000*%
%ADD34R,2.000000X2.700000*%
%ADD35R,2.000000X2.600000*%
%ADD36R,2.000000X2.300000*%
%ADD37HorizOval,1.200000X-0.052094X-0.295442X0.052094X0.295442X0*%
%ADD38RotRect,2.150000X5.000000X350.000000*%
%ADD39RotRect,2.150000X3.200000X350.000000*%
%ADD40RotRect,2.000000X2.700000X350.000000*%
%ADD41RotRect,2.000000X2.600000X350.000000*%
%ADD42RotRect,2.000000X2.300000X350.000000*%
%ADD43HorizOval,1.200000X-0.020927X-0.299269X0.020927X0.299269X0*%
%ADD44RotRect,2.150000X5.000000X356.000000*%
%ADD45RotRect,2.150000X3.200000X356.000000*%
%ADD46RotRect,2.000000X2.700000X356.000000*%
%ADD47RotRect,2.000000X2.600000X356.000000*%
%ADD48RotRect,2.000000X2.300000X356.000000*%
%ADD49RotRect,2.000000X2.300000X345.000000*%
%ADD50RotRect,2.000000X2.600000X345.000000*%
%ADD51RotRect,2.000000X2.700000X345.000000*%
%ADD52RotRect,2.150000X3.200000X345.000000*%
%ADD53RotRect,2.150000X5.000000X345.000000*%
%ADD54HorizOval,1.200000X-0.077646X-0.289778X0.077646X0.289778X0*%
%ADD55HorizOval,1.200000X-0.150000X-0.259808X0.150000X0.259808X0*%
%ADD56RotRect,2.150000X5.000000X330.000000*%
%ADD57RotRect,2.150000X3.200000X330.000000*%
%ADD58RotRect,2.000000X2.700000X330.000000*%
%ADD59RotRect,2.000000X2.600000X330.000000*%
%ADD60RotRect,2.000000X2.300000X330.000000*%
%ADD61RotRect,2.000000X2.300000X10.000000*%
%ADD62RotRect,2.000000X2.600000X10.000000*%
%ADD63RotRect,2.000000X2.700000X10.000000*%
%ADD64RotRect,2.150000X3.200000X10.000000*%
%ADD65RotRect,2.150000X5.000000X10.000000*%
%ADD66HorizOval,1.200000X-0.052094X0.295442X0.052094X-0.295442X0*%
%ADD67RotRect,2.000000X2.300000X4.000000*%
%ADD68RotRect,2.000000X2.600000X4.000000*%
%ADD69RotRect,2.000000X2.700000X4.000000*%
%ADD70RotRect,2.150000X3.200000X4.000000*%
%ADD71RotRect,2.150000X5.000000X4.000000*%
%ADD72HorizOval,1.200000X-0.020927X0.299269X0.020927X-0.299269X0*%
%ADD73R,1.500000X1.800000*%
%ADD74C,0.500000*%
%ADD75C,5.600000*%
%ADD76O,1.800000X2.750000*%
%ADD77C,1.397000*%
%ADD78C,0.900000*%
%ADD79R,0.700000X1.000000*%
%ADD80R,1.000000X2.800000*%
%ADD81C,2.100000*%
%ADD82RotRect,1.800000X1.500000X170.000000*%
%ADD83RotRect,1.800000X1.500000X10.000000*%
G04 APERTURE END LIST*
D10*
X70600000Y-51300000D02*
G75*
G02*
X69800000Y-51300000I-400000J0D01*
G01*
X69800000Y-51300000D02*
G75*
G02*
X70600000Y-51300000I400000J0D01*
G01*
X213305500Y-101091000D02*
X212688500Y-101091000D01*
X91676000Y-101090000D02*
X92293000Y-101090000D01*
D11*
X60337500Y-51300000D02*
G75*
G02*
X59862500Y-51300000I-237500J0D01*
G01*
X59862500Y-51300000D02*
G75*
G02*
X60337500Y-51300000I237500J0D01*
G01*
D10*
X86699500Y-101090000D02*
X87316500Y-101090000D01*
X208301500Y-101091000D02*
X207684500Y-101091000D01*
X240400000Y-51300000D02*
G75*
G02*
X239600000Y-51300000I-400000J0D01*
G01*
X239600000Y-51300000D02*
G75*
G02*
X240400000Y-51300000I400000J0D01*
G01*
D11*
X230137500Y-51300000D02*
G75*
G02*
X229662500Y-51300000I-237500J0D01*
G01*
X229662500Y-51300000D02*
G75*
G02*
X230137500Y-51300000I237500J0D01*
G01*
D10*
X213002000Y-101388000D02*
X213002000Y-100771000D01*
X87003000Y-100793000D02*
X87003000Y-101410000D01*
X250351064Y-59784200D02*
X250465350Y-59822295D01*
X250465350Y-59822295D02*
X250655826Y-59822295D01*
X250655826Y-59822295D02*
X250732017Y-59784200D01*
X250732017Y-59784200D02*
X250770112Y-59746104D01*
X250770112Y-59746104D02*
X250808207Y-59669914D01*
X250808207Y-59669914D02*
X250808207Y-59593723D01*
X250808207Y-59593723D02*
X250770112Y-59517533D01*
X250770112Y-59517533D02*
X250732017Y-59479438D01*
X250732017Y-59479438D02*
X250655826Y-59441342D01*
X250655826Y-59441342D02*
X250503445Y-59403247D01*
X250503445Y-59403247D02*
X250427255Y-59365152D01*
X250427255Y-59365152D02*
X250389160Y-59327057D01*
X250389160Y-59327057D02*
X250351064Y-59250866D01*
X250351064Y-59250866D02*
X250351064Y-59174676D01*
X250351064Y-59174676D02*
X250389160Y-59098485D01*
X250389160Y-59098485D02*
X250427255Y-59060390D01*
X250427255Y-59060390D02*
X250503445Y-59022295D01*
X250503445Y-59022295D02*
X250693922Y-59022295D01*
X250693922Y-59022295D02*
X250808207Y-59060390D01*
X251151065Y-59403247D02*
X251417731Y-59403247D01*
X251532017Y-59822295D02*
X251151065Y-59822295D01*
X251151065Y-59822295D02*
X251151065Y-59022295D01*
X251151065Y-59022295D02*
X251532017Y-59022295D01*
X251874875Y-59403247D02*
X252141541Y-59403247D01*
X252255827Y-59822295D02*
X251874875Y-59822295D01*
X251874875Y-59822295D02*
X251874875Y-59022295D01*
X251874875Y-59022295D02*
X252255827Y-59022295D01*
X252598685Y-59403247D02*
X252865351Y-59403247D01*
X252979637Y-59822295D02*
X252598685Y-59822295D01*
X252598685Y-59822295D02*
X252598685Y-59022295D01*
X252598685Y-59022295D02*
X252979637Y-59022295D01*
X253322495Y-59822295D02*
X253322495Y-59022295D01*
X253322495Y-59022295D02*
X253512971Y-59022295D01*
X253512971Y-59022295D02*
X253627257Y-59060390D01*
X253627257Y-59060390D02*
X253703447Y-59136580D01*
X253703447Y-59136580D02*
X253741542Y-59212771D01*
X253741542Y-59212771D02*
X253779638Y-59365152D01*
X253779638Y-59365152D02*
X253779638Y-59479438D01*
X253779638Y-59479438D02*
X253741542Y-59631819D01*
X253741542Y-59631819D02*
X253703447Y-59708009D01*
X253703447Y-59708009D02*
X253627257Y-59784200D01*
X253627257Y-59784200D02*
X253512971Y-59822295D01*
X253512971Y-59822295D02*
X253322495Y-59822295D01*
X254655828Y-59022295D02*
X255189162Y-59822295D01*
X255189162Y-59022295D02*
X254655828Y-59822295D01*
X255493924Y-59822295D02*
X255493924Y-59022295D01*
X255836780Y-59593723D02*
X256217733Y-59593723D01*
X255760590Y-59822295D02*
X256027257Y-59022295D01*
X256027257Y-59022295D02*
X256293923Y-59822295D01*
X256712971Y-59022295D02*
X256865352Y-59022295D01*
X256865352Y-59022295D02*
X256941542Y-59060390D01*
X256941542Y-59060390D02*
X257017733Y-59136580D01*
X257017733Y-59136580D02*
X257055828Y-59288961D01*
X257055828Y-59288961D02*
X257055828Y-59555628D01*
X257055828Y-59555628D02*
X257017733Y-59708009D01*
X257017733Y-59708009D02*
X256941542Y-59784200D01*
X256941542Y-59784200D02*
X256865352Y-59822295D01*
X256865352Y-59822295D02*
X256712971Y-59822295D01*
X256712971Y-59822295D02*
X256636780Y-59784200D01*
X256636780Y-59784200D02*
X256560590Y-59708009D01*
X256560590Y-59708009D02*
X256522494Y-59555628D01*
X256522494Y-59555628D02*
X256522494Y-59288961D01*
X256522494Y-59288961D02*
X256560590Y-59136580D01*
X256560590Y-59136580D02*
X256636780Y-59060390D01*
X256636780Y-59060390D02*
X256712971Y-59022295D01*
X258465352Y-59822295D02*
X258198685Y-59441342D01*
X258008209Y-59822295D02*
X258008209Y-59022295D01*
X258008209Y-59022295D02*
X258312971Y-59022295D01*
X258312971Y-59022295D02*
X258389161Y-59060390D01*
X258389161Y-59060390D02*
X258427256Y-59098485D01*
X258427256Y-59098485D02*
X258465352Y-59174676D01*
X258465352Y-59174676D02*
X258465352Y-59288961D01*
X258465352Y-59288961D02*
X258427256Y-59365152D01*
X258427256Y-59365152D02*
X258389161Y-59403247D01*
X258389161Y-59403247D02*
X258312971Y-59441342D01*
X258312971Y-59441342D02*
X258008209Y-59441342D01*
X258808209Y-59822295D02*
X258808209Y-59022295D01*
X258808209Y-59022295D02*
X259112971Y-59022295D01*
X259112971Y-59022295D02*
X259189161Y-59060390D01*
X259189161Y-59060390D02*
X259227256Y-59098485D01*
X259227256Y-59098485D02*
X259265352Y-59174676D01*
X259265352Y-59174676D02*
X259265352Y-59288961D01*
X259265352Y-59288961D02*
X259227256Y-59365152D01*
X259227256Y-59365152D02*
X259189161Y-59403247D01*
X259189161Y-59403247D02*
X259112971Y-59441342D01*
X259112971Y-59441342D02*
X258808209Y-59441342D01*
X259570113Y-59098485D02*
X259608209Y-59060390D01*
X259608209Y-59060390D02*
X259684399Y-59022295D01*
X259684399Y-59022295D02*
X259874875Y-59022295D01*
X259874875Y-59022295D02*
X259951066Y-59060390D01*
X259951066Y-59060390D02*
X259989161Y-59098485D01*
X259989161Y-59098485D02*
X260027256Y-59174676D01*
X260027256Y-59174676D02*
X260027256Y-59250866D01*
X260027256Y-59250866D02*
X259989161Y-59365152D01*
X259989161Y-59365152D02*
X259532018Y-59822295D01*
X259532018Y-59822295D02*
X260027256Y-59822295D01*
X260522495Y-59022295D02*
X260598685Y-59022295D01*
X260598685Y-59022295D02*
X260674876Y-59060390D01*
X260674876Y-59060390D02*
X260712971Y-59098485D01*
X260712971Y-59098485D02*
X260751066Y-59174676D01*
X260751066Y-59174676D02*
X260789161Y-59327057D01*
X260789161Y-59327057D02*
X260789161Y-59517533D01*
X260789161Y-59517533D02*
X260751066Y-59669914D01*
X260751066Y-59669914D02*
X260712971Y-59746104D01*
X260712971Y-59746104D02*
X260674876Y-59784200D01*
X260674876Y-59784200D02*
X260598685Y-59822295D01*
X260598685Y-59822295D02*
X260522495Y-59822295D01*
X260522495Y-59822295D02*
X260446304Y-59784200D01*
X260446304Y-59784200D02*
X260408209Y-59746104D01*
X260408209Y-59746104D02*
X260370114Y-59669914D01*
X260370114Y-59669914D02*
X260332018Y-59517533D01*
X260332018Y-59517533D02*
X260332018Y-59327057D01*
X260332018Y-59327057D02*
X260370114Y-59174676D01*
X260370114Y-59174676D02*
X260408209Y-59098485D01*
X260408209Y-59098485D02*
X260446304Y-59060390D01*
X260446304Y-59060390D02*
X260522495Y-59022295D01*
X261474876Y-59288961D02*
X261474876Y-59822295D01*
X261284400Y-58984200D02*
X261093923Y-59555628D01*
X261093923Y-59555628D02*
X261589162Y-59555628D01*
X262046305Y-59022295D02*
X262122495Y-59022295D01*
X262122495Y-59022295D02*
X262198686Y-59060390D01*
X262198686Y-59060390D02*
X262236781Y-59098485D01*
X262236781Y-59098485D02*
X262274876Y-59174676D01*
X262274876Y-59174676D02*
X262312971Y-59327057D01*
X262312971Y-59327057D02*
X262312971Y-59517533D01*
X262312971Y-59517533D02*
X262274876Y-59669914D01*
X262274876Y-59669914D02*
X262236781Y-59746104D01*
X262236781Y-59746104D02*
X262198686Y-59784200D01*
X262198686Y-59784200D02*
X262122495Y-59822295D01*
X262122495Y-59822295D02*
X262046305Y-59822295D01*
X262046305Y-59822295D02*
X261970114Y-59784200D01*
X261970114Y-59784200D02*
X261932019Y-59746104D01*
X261932019Y-59746104D02*
X261893924Y-59669914D01*
X261893924Y-59669914D02*
X261855828Y-59517533D01*
X261855828Y-59517533D02*
X261855828Y-59327057D01*
X261855828Y-59327057D02*
X261893924Y-59174676D01*
X261893924Y-59174676D02*
X261932019Y-59098485D01*
X261932019Y-59098485D02*
X261970114Y-59060390D01*
X261970114Y-59060390D02*
X262046305Y-59022295D01*
X36701064Y-59484200D02*
X36815350Y-59522295D01*
X36815350Y-59522295D02*
X37005826Y-59522295D01*
X37005826Y-59522295D02*
X37082017Y-59484200D01*
X37082017Y-59484200D02*
X37120112Y-59446104D01*
X37120112Y-59446104D02*
X37158207Y-59369914D01*
X37158207Y-59369914D02*
X37158207Y-59293723D01*
X37158207Y-59293723D02*
X37120112Y-59217533D01*
X37120112Y-59217533D02*
X37082017Y-59179438D01*
X37082017Y-59179438D02*
X37005826Y-59141342D01*
X37005826Y-59141342D02*
X36853445Y-59103247D01*
X36853445Y-59103247D02*
X36777255Y-59065152D01*
X36777255Y-59065152D02*
X36739160Y-59027057D01*
X36739160Y-59027057D02*
X36701064Y-58950866D01*
X36701064Y-58950866D02*
X36701064Y-58874676D01*
X36701064Y-58874676D02*
X36739160Y-58798485D01*
X36739160Y-58798485D02*
X36777255Y-58760390D01*
X36777255Y-58760390D02*
X36853445Y-58722295D01*
X36853445Y-58722295D02*
X37043922Y-58722295D01*
X37043922Y-58722295D02*
X37158207Y-58760390D01*
X37501065Y-59103247D02*
X37767731Y-59103247D01*
X37882017Y-59522295D02*
X37501065Y-59522295D01*
X37501065Y-59522295D02*
X37501065Y-58722295D01*
X37501065Y-58722295D02*
X37882017Y-58722295D01*
X38224875Y-59103247D02*
X38491541Y-59103247D01*
X38605827Y-59522295D02*
X38224875Y-59522295D01*
X38224875Y-59522295D02*
X38224875Y-58722295D01*
X38224875Y-58722295D02*
X38605827Y-58722295D01*
X38948685Y-59103247D02*
X39215351Y-59103247D01*
X39329637Y-59522295D02*
X38948685Y-59522295D01*
X38948685Y-59522295D02*
X38948685Y-58722295D01*
X38948685Y-58722295D02*
X39329637Y-58722295D01*
X39672495Y-59522295D02*
X39672495Y-58722295D01*
X39672495Y-58722295D02*
X39862971Y-58722295D01*
X39862971Y-58722295D02*
X39977257Y-58760390D01*
X39977257Y-58760390D02*
X40053447Y-58836580D01*
X40053447Y-58836580D02*
X40091542Y-58912771D01*
X40091542Y-58912771D02*
X40129638Y-59065152D01*
X40129638Y-59065152D02*
X40129638Y-59179438D01*
X40129638Y-59179438D02*
X40091542Y-59331819D01*
X40091542Y-59331819D02*
X40053447Y-59408009D01*
X40053447Y-59408009D02*
X39977257Y-59484200D01*
X39977257Y-59484200D02*
X39862971Y-59522295D01*
X39862971Y-59522295D02*
X39672495Y-59522295D01*
X41005828Y-58722295D02*
X41539162Y-59522295D01*
X41539162Y-58722295D02*
X41005828Y-59522295D01*
X41843924Y-59522295D02*
X41843924Y-58722295D01*
X42186780Y-59293723D02*
X42567733Y-59293723D01*
X42110590Y-59522295D02*
X42377257Y-58722295D01*
X42377257Y-58722295D02*
X42643923Y-59522295D01*
X43062971Y-58722295D02*
X43215352Y-58722295D01*
X43215352Y-58722295D02*
X43291542Y-58760390D01*
X43291542Y-58760390D02*
X43367733Y-58836580D01*
X43367733Y-58836580D02*
X43405828Y-58988961D01*
X43405828Y-58988961D02*
X43405828Y-59255628D01*
X43405828Y-59255628D02*
X43367733Y-59408009D01*
X43367733Y-59408009D02*
X43291542Y-59484200D01*
X43291542Y-59484200D02*
X43215352Y-59522295D01*
X43215352Y-59522295D02*
X43062971Y-59522295D01*
X43062971Y-59522295D02*
X42986780Y-59484200D01*
X42986780Y-59484200D02*
X42910590Y-59408009D01*
X42910590Y-59408009D02*
X42872494Y-59255628D01*
X42872494Y-59255628D02*
X42872494Y-58988961D01*
X42872494Y-58988961D02*
X42910590Y-58836580D01*
X42910590Y-58836580D02*
X42986780Y-58760390D01*
X42986780Y-58760390D02*
X43062971Y-58722295D01*
X44815352Y-59522295D02*
X44548685Y-59141342D01*
X44358209Y-59522295D02*
X44358209Y-58722295D01*
X44358209Y-58722295D02*
X44662971Y-58722295D01*
X44662971Y-58722295D02*
X44739161Y-58760390D01*
X44739161Y-58760390D02*
X44777256Y-58798485D01*
X44777256Y-58798485D02*
X44815352Y-58874676D01*
X44815352Y-58874676D02*
X44815352Y-58988961D01*
X44815352Y-58988961D02*
X44777256Y-59065152D01*
X44777256Y-59065152D02*
X44739161Y-59103247D01*
X44739161Y-59103247D02*
X44662971Y-59141342D01*
X44662971Y-59141342D02*
X44358209Y-59141342D01*
X45158209Y-59522295D02*
X45158209Y-58722295D01*
X45158209Y-58722295D02*
X45462971Y-58722295D01*
X45462971Y-58722295D02*
X45539161Y-58760390D01*
X45539161Y-58760390D02*
X45577256Y-58798485D01*
X45577256Y-58798485D02*
X45615352Y-58874676D01*
X45615352Y-58874676D02*
X45615352Y-58988961D01*
X45615352Y-58988961D02*
X45577256Y-59065152D01*
X45577256Y-59065152D02*
X45539161Y-59103247D01*
X45539161Y-59103247D02*
X45462971Y-59141342D01*
X45462971Y-59141342D02*
X45158209Y-59141342D01*
X45920113Y-58798485D02*
X45958209Y-58760390D01*
X45958209Y-58760390D02*
X46034399Y-58722295D01*
X46034399Y-58722295D02*
X46224875Y-58722295D01*
X46224875Y-58722295D02*
X46301066Y-58760390D01*
X46301066Y-58760390D02*
X46339161Y-58798485D01*
X46339161Y-58798485D02*
X46377256Y-58874676D01*
X46377256Y-58874676D02*
X46377256Y-58950866D01*
X46377256Y-58950866D02*
X46339161Y-59065152D01*
X46339161Y-59065152D02*
X45882018Y-59522295D01*
X45882018Y-59522295D02*
X46377256Y-59522295D01*
X46872495Y-58722295D02*
X46948685Y-58722295D01*
X46948685Y-58722295D02*
X47024876Y-58760390D01*
X47024876Y-58760390D02*
X47062971Y-58798485D01*
X47062971Y-58798485D02*
X47101066Y-58874676D01*
X47101066Y-58874676D02*
X47139161Y-59027057D01*
X47139161Y-59027057D02*
X47139161Y-59217533D01*
X47139161Y-59217533D02*
X47101066Y-59369914D01*
X47101066Y-59369914D02*
X47062971Y-59446104D01*
X47062971Y-59446104D02*
X47024876Y-59484200D01*
X47024876Y-59484200D02*
X46948685Y-59522295D01*
X46948685Y-59522295D02*
X46872495Y-59522295D01*
X46872495Y-59522295D02*
X46796304Y-59484200D01*
X46796304Y-59484200D02*
X46758209Y-59446104D01*
X46758209Y-59446104D02*
X46720114Y-59369914D01*
X46720114Y-59369914D02*
X46682018Y-59217533D01*
X46682018Y-59217533D02*
X46682018Y-59027057D01*
X46682018Y-59027057D02*
X46720114Y-58874676D01*
X46720114Y-58874676D02*
X46758209Y-58798485D01*
X46758209Y-58798485D02*
X46796304Y-58760390D01*
X46796304Y-58760390D02*
X46872495Y-58722295D01*
X47824876Y-58988961D02*
X47824876Y-59522295D01*
X47634400Y-58684200D02*
X47443923Y-59255628D01*
X47443923Y-59255628D02*
X47939162Y-59255628D01*
X48396305Y-58722295D02*
X48472495Y-58722295D01*
X48472495Y-58722295D02*
X48548686Y-58760390D01*
X48548686Y-58760390D02*
X48586781Y-58798485D01*
X48586781Y-58798485D02*
X48624876Y-58874676D01*
X48624876Y-58874676D02*
X48662971Y-59027057D01*
X48662971Y-59027057D02*
X48662971Y-59217533D01*
X48662971Y-59217533D02*
X48624876Y-59369914D01*
X48624876Y-59369914D02*
X48586781Y-59446104D01*
X48586781Y-59446104D02*
X48548686Y-59484200D01*
X48548686Y-59484200D02*
X48472495Y-59522295D01*
X48472495Y-59522295D02*
X48396305Y-59522295D01*
X48396305Y-59522295D02*
X48320114Y-59484200D01*
X48320114Y-59484200D02*
X48282019Y-59446104D01*
X48282019Y-59446104D02*
X48243924Y-59369914D01*
X48243924Y-59369914D02*
X48205828Y-59217533D01*
X48205828Y-59217533D02*
X48205828Y-59027057D01*
X48205828Y-59027057D02*
X48243924Y-58874676D01*
X48243924Y-58874676D02*
X48282019Y-58798485D01*
X48282019Y-58798485D02*
X48320114Y-58760390D01*
X48320114Y-58760390D02*
X48396305Y-58722295D01*
X36681064Y-58284200D02*
X36795350Y-58322295D01*
X36795350Y-58322295D02*
X36985826Y-58322295D01*
X36985826Y-58322295D02*
X37062017Y-58284200D01*
X37062017Y-58284200D02*
X37100112Y-58246104D01*
X37100112Y-58246104D02*
X37138207Y-58169914D01*
X37138207Y-58169914D02*
X37138207Y-58093723D01*
X37138207Y-58093723D02*
X37100112Y-58017533D01*
X37100112Y-58017533D02*
X37062017Y-57979438D01*
X37062017Y-57979438D02*
X36985826Y-57941342D01*
X36985826Y-57941342D02*
X36833445Y-57903247D01*
X36833445Y-57903247D02*
X36757255Y-57865152D01*
X36757255Y-57865152D02*
X36719160Y-57827057D01*
X36719160Y-57827057D02*
X36681064Y-57750866D01*
X36681064Y-57750866D02*
X36681064Y-57674676D01*
X36681064Y-57674676D02*
X36719160Y-57598485D01*
X36719160Y-57598485D02*
X36757255Y-57560390D01*
X36757255Y-57560390D02*
X36833445Y-57522295D01*
X36833445Y-57522295D02*
X37023922Y-57522295D01*
X37023922Y-57522295D02*
X37138207Y-57560390D01*
X37481065Y-57903247D02*
X37747731Y-57903247D01*
X37862017Y-58322295D02*
X37481065Y-58322295D01*
X37481065Y-58322295D02*
X37481065Y-57522295D01*
X37481065Y-57522295D02*
X37862017Y-57522295D01*
X38204875Y-57903247D02*
X38471541Y-57903247D01*
X38585827Y-58322295D02*
X38204875Y-58322295D01*
X38204875Y-58322295D02*
X38204875Y-57522295D01*
X38204875Y-57522295D02*
X38585827Y-57522295D01*
X38928685Y-57903247D02*
X39195351Y-57903247D01*
X39309637Y-58322295D02*
X38928685Y-58322295D01*
X38928685Y-58322295D02*
X38928685Y-57522295D01*
X38928685Y-57522295D02*
X39309637Y-57522295D01*
X39652495Y-58322295D02*
X39652495Y-57522295D01*
X39652495Y-57522295D02*
X39842971Y-57522295D01*
X39842971Y-57522295D02*
X39957257Y-57560390D01*
X39957257Y-57560390D02*
X40033447Y-57636580D01*
X40033447Y-57636580D02*
X40071542Y-57712771D01*
X40071542Y-57712771D02*
X40109638Y-57865152D01*
X40109638Y-57865152D02*
X40109638Y-57979438D01*
X40109638Y-57979438D02*
X40071542Y-58131819D01*
X40071542Y-58131819D02*
X40033447Y-58208009D01*
X40033447Y-58208009D02*
X39957257Y-58284200D01*
X39957257Y-58284200D02*
X39842971Y-58322295D01*
X39842971Y-58322295D02*
X39652495Y-58322295D01*
X40985828Y-57522295D02*
X41519162Y-58322295D01*
X41519162Y-57522295D02*
X40985828Y-58322295D01*
X41823924Y-58322295D02*
X41823924Y-57522295D01*
X42166780Y-58093723D02*
X42547733Y-58093723D01*
X42090590Y-58322295D02*
X42357257Y-57522295D01*
X42357257Y-57522295D02*
X42623923Y-58322295D01*
X43042971Y-57522295D02*
X43195352Y-57522295D01*
X43195352Y-57522295D02*
X43271542Y-57560390D01*
X43271542Y-57560390D02*
X43347733Y-57636580D01*
X43347733Y-57636580D02*
X43385828Y-57788961D01*
X43385828Y-57788961D02*
X43385828Y-58055628D01*
X43385828Y-58055628D02*
X43347733Y-58208009D01*
X43347733Y-58208009D02*
X43271542Y-58284200D01*
X43271542Y-58284200D02*
X43195352Y-58322295D01*
X43195352Y-58322295D02*
X43042971Y-58322295D01*
X43042971Y-58322295D02*
X42966780Y-58284200D01*
X42966780Y-58284200D02*
X42890590Y-58208009D01*
X42890590Y-58208009D02*
X42852494Y-58055628D01*
X42852494Y-58055628D02*
X42852494Y-57788961D01*
X42852494Y-57788961D02*
X42890590Y-57636580D01*
X42890590Y-57636580D02*
X42966780Y-57560390D01*
X42966780Y-57560390D02*
X43042971Y-57522295D01*
X44604875Y-57903247D02*
X44719161Y-57941342D01*
X44719161Y-57941342D02*
X44757256Y-57979438D01*
X44757256Y-57979438D02*
X44795352Y-58055628D01*
X44795352Y-58055628D02*
X44795352Y-58169914D01*
X44795352Y-58169914D02*
X44757256Y-58246104D01*
X44757256Y-58246104D02*
X44719161Y-58284200D01*
X44719161Y-58284200D02*
X44642971Y-58322295D01*
X44642971Y-58322295D02*
X44338209Y-58322295D01*
X44338209Y-58322295D02*
X44338209Y-57522295D01*
X44338209Y-57522295D02*
X44604875Y-57522295D01*
X44604875Y-57522295D02*
X44681066Y-57560390D01*
X44681066Y-57560390D02*
X44719161Y-57598485D01*
X44719161Y-57598485D02*
X44757256Y-57674676D01*
X44757256Y-57674676D02*
X44757256Y-57750866D01*
X44757256Y-57750866D02*
X44719161Y-57827057D01*
X44719161Y-57827057D02*
X44681066Y-57865152D01*
X44681066Y-57865152D02*
X44604875Y-57903247D01*
X44604875Y-57903247D02*
X44338209Y-57903247D01*
X45519161Y-58322295D02*
X45138209Y-58322295D01*
X45138209Y-58322295D02*
X45138209Y-57522295D01*
X45785828Y-57903247D02*
X46052494Y-57903247D01*
X46166780Y-58322295D02*
X45785828Y-58322295D01*
X45785828Y-58322295D02*
X45785828Y-57522295D01*
X45785828Y-57522295D02*
X46166780Y-57522295D01*
X250331064Y-58584200D02*
X250445350Y-58622295D01*
X250445350Y-58622295D02*
X250635826Y-58622295D01*
X250635826Y-58622295D02*
X250712017Y-58584200D01*
X250712017Y-58584200D02*
X250750112Y-58546104D01*
X250750112Y-58546104D02*
X250788207Y-58469914D01*
X250788207Y-58469914D02*
X250788207Y-58393723D01*
X250788207Y-58393723D02*
X250750112Y-58317533D01*
X250750112Y-58317533D02*
X250712017Y-58279438D01*
X250712017Y-58279438D02*
X250635826Y-58241342D01*
X250635826Y-58241342D02*
X250483445Y-58203247D01*
X250483445Y-58203247D02*
X250407255Y-58165152D01*
X250407255Y-58165152D02*
X250369160Y-58127057D01*
X250369160Y-58127057D02*
X250331064Y-58050866D01*
X250331064Y-58050866D02*
X250331064Y-57974676D01*
X250331064Y-57974676D02*
X250369160Y-57898485D01*
X250369160Y-57898485D02*
X250407255Y-57860390D01*
X250407255Y-57860390D02*
X250483445Y-57822295D01*
X250483445Y-57822295D02*
X250673922Y-57822295D01*
X250673922Y-57822295D02*
X250788207Y-57860390D01*
X251131065Y-58203247D02*
X251397731Y-58203247D01*
X251512017Y-58622295D02*
X251131065Y-58622295D01*
X251131065Y-58622295D02*
X251131065Y-57822295D01*
X251131065Y-57822295D02*
X251512017Y-57822295D01*
X251854875Y-58203247D02*
X252121541Y-58203247D01*
X252235827Y-58622295D02*
X251854875Y-58622295D01*
X251854875Y-58622295D02*
X251854875Y-57822295D01*
X251854875Y-57822295D02*
X252235827Y-57822295D01*
X252578685Y-58203247D02*
X252845351Y-58203247D01*
X252959637Y-58622295D02*
X252578685Y-58622295D01*
X252578685Y-58622295D02*
X252578685Y-57822295D01*
X252578685Y-57822295D02*
X252959637Y-57822295D01*
X253302495Y-58622295D02*
X253302495Y-57822295D01*
X253302495Y-57822295D02*
X253492971Y-57822295D01*
X253492971Y-57822295D02*
X253607257Y-57860390D01*
X253607257Y-57860390D02*
X253683447Y-57936580D01*
X253683447Y-57936580D02*
X253721542Y-58012771D01*
X253721542Y-58012771D02*
X253759638Y-58165152D01*
X253759638Y-58165152D02*
X253759638Y-58279438D01*
X253759638Y-58279438D02*
X253721542Y-58431819D01*
X253721542Y-58431819D02*
X253683447Y-58508009D01*
X253683447Y-58508009D02*
X253607257Y-58584200D01*
X253607257Y-58584200D02*
X253492971Y-58622295D01*
X253492971Y-58622295D02*
X253302495Y-58622295D01*
X254635828Y-57822295D02*
X255169162Y-58622295D01*
X255169162Y-57822295D02*
X254635828Y-58622295D01*
X255473924Y-58622295D02*
X255473924Y-57822295D01*
X255816780Y-58393723D02*
X256197733Y-58393723D01*
X255740590Y-58622295D02*
X256007257Y-57822295D01*
X256007257Y-57822295D02*
X256273923Y-58622295D01*
X256692971Y-57822295D02*
X256845352Y-57822295D01*
X256845352Y-57822295D02*
X256921542Y-57860390D01*
X256921542Y-57860390D02*
X256997733Y-57936580D01*
X256997733Y-57936580D02*
X257035828Y-58088961D01*
X257035828Y-58088961D02*
X257035828Y-58355628D01*
X257035828Y-58355628D02*
X256997733Y-58508009D01*
X256997733Y-58508009D02*
X256921542Y-58584200D01*
X256921542Y-58584200D02*
X256845352Y-58622295D01*
X256845352Y-58622295D02*
X256692971Y-58622295D01*
X256692971Y-58622295D02*
X256616780Y-58584200D01*
X256616780Y-58584200D02*
X256540590Y-58508009D01*
X256540590Y-58508009D02*
X256502494Y-58355628D01*
X256502494Y-58355628D02*
X256502494Y-58088961D01*
X256502494Y-58088961D02*
X256540590Y-57936580D01*
X256540590Y-57936580D02*
X256616780Y-57860390D01*
X256616780Y-57860390D02*
X256692971Y-57822295D01*
X258254875Y-58203247D02*
X258369161Y-58241342D01*
X258369161Y-58241342D02*
X258407256Y-58279438D01*
X258407256Y-58279438D02*
X258445352Y-58355628D01*
X258445352Y-58355628D02*
X258445352Y-58469914D01*
X258445352Y-58469914D02*
X258407256Y-58546104D01*
X258407256Y-58546104D02*
X258369161Y-58584200D01*
X258369161Y-58584200D02*
X258292971Y-58622295D01*
X258292971Y-58622295D02*
X257988209Y-58622295D01*
X257988209Y-58622295D02*
X257988209Y-57822295D01*
X257988209Y-57822295D02*
X258254875Y-57822295D01*
X258254875Y-57822295D02*
X258331066Y-57860390D01*
X258331066Y-57860390D02*
X258369161Y-57898485D01*
X258369161Y-57898485D02*
X258407256Y-57974676D01*
X258407256Y-57974676D02*
X258407256Y-58050866D01*
X258407256Y-58050866D02*
X258369161Y-58127057D01*
X258369161Y-58127057D02*
X258331066Y-58165152D01*
X258331066Y-58165152D02*
X258254875Y-58203247D01*
X258254875Y-58203247D02*
X257988209Y-58203247D01*
X259169161Y-58622295D02*
X258788209Y-58622295D01*
X258788209Y-58622295D02*
X258788209Y-57822295D01*
X259435828Y-58203247D02*
X259702494Y-58203247D01*
X259816780Y-58622295D02*
X259435828Y-58622295D01*
X259435828Y-58622295D02*
X259435828Y-57822295D01*
X259435828Y-57822295D02*
X259816780Y-57822295D01*
X122561905Y-51712295D02*
X122295238Y-51331342D01*
X122104762Y-51712295D02*
X122104762Y-50912295D01*
X122104762Y-50912295D02*
X122409524Y-50912295D01*
X122409524Y-50912295D02*
X122485714Y-50950390D01*
X122485714Y-50950390D02*
X122523809Y-50988485D01*
X122523809Y-50988485D02*
X122561905Y-51064676D01*
X122561905Y-51064676D02*
X122561905Y-51178961D01*
X122561905Y-51178961D02*
X122523809Y-51255152D01*
X122523809Y-51255152D02*
X122485714Y-51293247D01*
X122485714Y-51293247D02*
X122409524Y-51331342D01*
X122409524Y-51331342D02*
X122104762Y-51331342D01*
X122866666Y-51674200D02*
X122980952Y-51712295D01*
X122980952Y-51712295D02*
X123171428Y-51712295D01*
X123171428Y-51712295D02*
X123247619Y-51674200D01*
X123247619Y-51674200D02*
X123285714Y-51636104D01*
X123285714Y-51636104D02*
X123323809Y-51559914D01*
X123323809Y-51559914D02*
X123323809Y-51483723D01*
X123323809Y-51483723D02*
X123285714Y-51407533D01*
X123285714Y-51407533D02*
X123247619Y-51369438D01*
X123247619Y-51369438D02*
X123171428Y-51331342D01*
X123171428Y-51331342D02*
X123019047Y-51293247D01*
X123019047Y-51293247D02*
X122942857Y-51255152D01*
X122942857Y-51255152D02*
X122904762Y-51217057D01*
X122904762Y-51217057D02*
X122866666Y-51140866D01*
X122866666Y-51140866D02*
X122866666Y-51064676D01*
X122866666Y-51064676D02*
X122904762Y-50988485D01*
X122904762Y-50988485D02*
X122942857Y-50950390D01*
X122942857Y-50950390D02*
X123019047Y-50912295D01*
X123019047Y-50912295D02*
X123209524Y-50912295D01*
X123209524Y-50912295D02*
X123323809Y-50950390D01*
X123552381Y-50912295D02*
X124009524Y-50912295D01*
X123780952Y-51712295D02*
X123780952Y-50912295D01*
X159288095Y-55604819D02*
X159859523Y-55604819D01*
X159573809Y-56604819D02*
X159573809Y-55604819D01*
X160764285Y-56604819D02*
X160430952Y-56128628D01*
X160192857Y-56604819D02*
X160192857Y-55604819D01*
X160192857Y-55604819D02*
X160573809Y-55604819D01*
X160573809Y-55604819D02*
X160669047Y-55652438D01*
X160669047Y-55652438D02*
X160716666Y-55700057D01*
X160716666Y-55700057D02*
X160764285Y-55795295D01*
X160764285Y-55795295D02*
X160764285Y-55938152D01*
X160764285Y-55938152D02*
X160716666Y-56033390D01*
X160716666Y-56033390D02*
X160669047Y-56081009D01*
X160669047Y-56081009D02*
X160573809Y-56128628D01*
X160573809Y-56128628D02*
X160192857Y-56128628D01*
X161764285Y-56604819D02*
X161430952Y-56128628D01*
X161192857Y-56604819D02*
X161192857Y-55604819D01*
X161192857Y-55604819D02*
X161573809Y-55604819D01*
X161573809Y-55604819D02*
X161669047Y-55652438D01*
X161669047Y-55652438D02*
X161716666Y-55700057D01*
X161716666Y-55700057D02*
X161764285Y-55795295D01*
X161764285Y-55795295D02*
X161764285Y-55938152D01*
X161764285Y-55938152D02*
X161716666Y-56033390D01*
X161716666Y-56033390D02*
X161669047Y-56081009D01*
X161669047Y-56081009D02*
X161573809Y-56128628D01*
X161573809Y-56128628D02*
X161192857Y-56128628D01*
X162145238Y-56557200D02*
X162288095Y-56604819D01*
X162288095Y-56604819D02*
X162526190Y-56604819D01*
X162526190Y-56604819D02*
X162621428Y-56557200D01*
X162621428Y-56557200D02*
X162669047Y-56509580D01*
X162669047Y-56509580D02*
X162716666Y-56414342D01*
X162716666Y-56414342D02*
X162716666Y-56319104D01*
X162716666Y-56319104D02*
X162669047Y-56223866D01*
X162669047Y-56223866D02*
X162621428Y-56176247D01*
X162621428Y-56176247D02*
X162526190Y-56128628D01*
X162526190Y-56128628D02*
X162335714Y-56081009D01*
X162335714Y-56081009D02*
X162240476Y-56033390D01*
X162240476Y-56033390D02*
X162192857Y-55985771D01*
X162192857Y-55985771D02*
X162145238Y-55890533D01*
X162145238Y-55890533D02*
X162145238Y-55795295D01*
X162145238Y-55795295D02*
X162192857Y-55700057D01*
X162192857Y-55700057D02*
X162240476Y-55652438D01*
X162240476Y-55652438D02*
X162335714Y-55604819D01*
X162335714Y-55604819D02*
X162573809Y-55604819D01*
X162573809Y-55604819D02*
X162716666Y-55652438D01*
X62044160Y-50782295D02*
X62044160Y-49982295D01*
X62044160Y-49982295D02*
X62348922Y-49982295D01*
X62348922Y-49982295D02*
X62425112Y-50020390D01*
X62425112Y-50020390D02*
X62463207Y-50058485D01*
X62463207Y-50058485D02*
X62501303Y-50134676D01*
X62501303Y-50134676D02*
X62501303Y-50248961D01*
X62501303Y-50248961D02*
X62463207Y-50325152D01*
X62463207Y-50325152D02*
X62425112Y-50363247D01*
X62425112Y-50363247D02*
X62348922Y-50401342D01*
X62348922Y-50401342D02*
X62044160Y-50401342D01*
X62767969Y-49982295D02*
X62958445Y-50782295D01*
X62958445Y-50782295D02*
X63110826Y-50210866D01*
X63110826Y-50210866D02*
X63263207Y-50782295D01*
X63263207Y-50782295D02*
X63453684Y-49982295D01*
X64215589Y-50782295D02*
X63948922Y-50401342D01*
X63758446Y-50782295D02*
X63758446Y-49982295D01*
X63758446Y-49982295D02*
X64063208Y-49982295D01*
X64063208Y-49982295D02*
X64139398Y-50020390D01*
X64139398Y-50020390D02*
X64177493Y-50058485D01*
X64177493Y-50058485D02*
X64215589Y-50134676D01*
X64215589Y-50134676D02*
X64215589Y-50248961D01*
X64215589Y-50248961D02*
X64177493Y-50325152D01*
X64177493Y-50325152D02*
X64139398Y-50363247D01*
X64139398Y-50363247D02*
X64063208Y-50401342D01*
X64063208Y-50401342D02*
X63758446Y-50401342D01*
X176561905Y-51712295D02*
X176295238Y-51331342D01*
X176104762Y-51712295D02*
X176104762Y-50912295D01*
X176104762Y-50912295D02*
X176409524Y-50912295D01*
X176409524Y-50912295D02*
X176485714Y-50950390D01*
X176485714Y-50950390D02*
X176523809Y-50988485D01*
X176523809Y-50988485D02*
X176561905Y-51064676D01*
X176561905Y-51064676D02*
X176561905Y-51178961D01*
X176561905Y-51178961D02*
X176523809Y-51255152D01*
X176523809Y-51255152D02*
X176485714Y-51293247D01*
X176485714Y-51293247D02*
X176409524Y-51331342D01*
X176409524Y-51331342D02*
X176104762Y-51331342D01*
X176866666Y-51674200D02*
X176980952Y-51712295D01*
X176980952Y-51712295D02*
X177171428Y-51712295D01*
X177171428Y-51712295D02*
X177247619Y-51674200D01*
X177247619Y-51674200D02*
X177285714Y-51636104D01*
X177285714Y-51636104D02*
X177323809Y-51559914D01*
X177323809Y-51559914D02*
X177323809Y-51483723D01*
X177323809Y-51483723D02*
X177285714Y-51407533D01*
X177285714Y-51407533D02*
X177247619Y-51369438D01*
X177247619Y-51369438D02*
X177171428Y-51331342D01*
X177171428Y-51331342D02*
X177019047Y-51293247D01*
X177019047Y-51293247D02*
X176942857Y-51255152D01*
X176942857Y-51255152D02*
X176904762Y-51217057D01*
X176904762Y-51217057D02*
X176866666Y-51140866D01*
X176866666Y-51140866D02*
X176866666Y-51064676D01*
X176866666Y-51064676D02*
X176904762Y-50988485D01*
X176904762Y-50988485D02*
X176942857Y-50950390D01*
X176942857Y-50950390D02*
X177019047Y-50912295D01*
X177019047Y-50912295D02*
X177209524Y-50912295D01*
X177209524Y-50912295D02*
X177323809Y-50950390D01*
X177552381Y-50912295D02*
X178009524Y-50912295D01*
X177780952Y-51712295D02*
X177780952Y-50912295D01*
X231888160Y-50822295D02*
X231888160Y-50022295D01*
X231888160Y-50022295D02*
X232192922Y-50022295D01*
X232192922Y-50022295D02*
X232269112Y-50060390D01*
X232269112Y-50060390D02*
X232307207Y-50098485D01*
X232307207Y-50098485D02*
X232345303Y-50174676D01*
X232345303Y-50174676D02*
X232345303Y-50288961D01*
X232345303Y-50288961D02*
X232307207Y-50365152D01*
X232307207Y-50365152D02*
X232269112Y-50403247D01*
X232269112Y-50403247D02*
X232192922Y-50441342D01*
X232192922Y-50441342D02*
X231888160Y-50441342D01*
X232611969Y-50022295D02*
X232802445Y-50822295D01*
X232802445Y-50822295D02*
X232954826Y-50250866D01*
X232954826Y-50250866D02*
X233107207Y-50822295D01*
X233107207Y-50822295D02*
X233297684Y-50022295D01*
X234059589Y-50822295D02*
X233792922Y-50441342D01*
X233602446Y-50822295D02*
X233602446Y-50022295D01*
X233602446Y-50022295D02*
X233907208Y-50022295D01*
X233907208Y-50022295D02*
X233983398Y-50060390D01*
X233983398Y-50060390D02*
X234021493Y-50098485D01*
X234021493Y-50098485D02*
X234059589Y-50174676D01*
X234059589Y-50174676D02*
X234059589Y-50288961D01*
X234059589Y-50288961D02*
X234021493Y-50365152D01*
X234021493Y-50365152D02*
X233983398Y-50403247D01*
X233983398Y-50403247D02*
X233907208Y-50441342D01*
X233907208Y-50441342D02*
X233602446Y-50441342D01*
X119535714Y-56554819D02*
X119202381Y-56078628D01*
X118964286Y-56554819D02*
X118964286Y-55554819D01*
X118964286Y-55554819D02*
X119345238Y-55554819D01*
X119345238Y-55554819D02*
X119440476Y-55602438D01*
X119440476Y-55602438D02*
X119488095Y-55650057D01*
X119488095Y-55650057D02*
X119535714Y-55745295D01*
X119535714Y-55745295D02*
X119535714Y-55888152D01*
X119535714Y-55888152D02*
X119488095Y-55983390D01*
X119488095Y-55983390D02*
X119440476Y-56031009D01*
X119440476Y-56031009D02*
X119345238Y-56078628D01*
X119345238Y-56078628D02*
X118964286Y-56078628D01*
X119916667Y-56507200D02*
X120059524Y-56554819D01*
X120059524Y-56554819D02*
X120297619Y-56554819D01*
X120297619Y-56554819D02*
X120392857Y-56507200D01*
X120392857Y-56507200D02*
X120440476Y-56459580D01*
X120440476Y-56459580D02*
X120488095Y-56364342D01*
X120488095Y-56364342D02*
X120488095Y-56269104D01*
X120488095Y-56269104D02*
X120440476Y-56173866D01*
X120440476Y-56173866D02*
X120392857Y-56126247D01*
X120392857Y-56126247D02*
X120297619Y-56078628D01*
X120297619Y-56078628D02*
X120107143Y-56031009D01*
X120107143Y-56031009D02*
X120011905Y-55983390D01*
X120011905Y-55983390D02*
X119964286Y-55935771D01*
X119964286Y-55935771D02*
X119916667Y-55840533D01*
X119916667Y-55840533D02*
X119916667Y-55745295D01*
X119916667Y-55745295D02*
X119964286Y-55650057D01*
X119964286Y-55650057D02*
X120011905Y-55602438D01*
X120011905Y-55602438D02*
X120107143Y-55554819D01*
X120107143Y-55554819D02*
X120345238Y-55554819D01*
X120345238Y-55554819D02*
X120488095Y-55602438D01*
X120821429Y-55554819D02*
X121059524Y-56554819D01*
X121059524Y-56554819D02*
X121250000Y-55840533D01*
X121250000Y-55840533D02*
X121440476Y-56554819D01*
X121440476Y-56554819D02*
X121678572Y-55554819D01*
X122583333Y-56554819D02*
X122011905Y-56554819D01*
X122297619Y-56554819D02*
X122297619Y-55554819D01*
X122297619Y-55554819D02*
X122202381Y-55697676D01*
X122202381Y-55697676D02*
X122107143Y-55792914D01*
X122107143Y-55792914D02*
X122011905Y-55840533D01*
X135688095Y-55604819D02*
X136259523Y-55604819D01*
X135973809Y-56604819D02*
X135973809Y-55604819D01*
X137164285Y-56604819D02*
X136830952Y-56128628D01*
X136592857Y-56604819D02*
X136592857Y-55604819D01*
X136592857Y-55604819D02*
X136973809Y-55604819D01*
X136973809Y-55604819D02*
X137069047Y-55652438D01*
X137069047Y-55652438D02*
X137116666Y-55700057D01*
X137116666Y-55700057D02*
X137164285Y-55795295D01*
X137164285Y-55795295D02*
X137164285Y-55938152D01*
X137164285Y-55938152D02*
X137116666Y-56033390D01*
X137116666Y-56033390D02*
X137069047Y-56081009D01*
X137069047Y-56081009D02*
X136973809Y-56128628D01*
X136973809Y-56128628D02*
X136592857Y-56128628D01*
X138164285Y-56604819D02*
X137830952Y-56128628D01*
X137592857Y-56604819D02*
X137592857Y-55604819D01*
X137592857Y-55604819D02*
X137973809Y-55604819D01*
X137973809Y-55604819D02*
X138069047Y-55652438D01*
X138069047Y-55652438D02*
X138116666Y-55700057D01*
X138116666Y-55700057D02*
X138164285Y-55795295D01*
X138164285Y-55795295D02*
X138164285Y-55938152D01*
X138164285Y-55938152D02*
X138116666Y-56033390D01*
X138116666Y-56033390D02*
X138069047Y-56081009D01*
X138069047Y-56081009D02*
X137973809Y-56128628D01*
X137973809Y-56128628D02*
X137592857Y-56128628D01*
X138545238Y-56557200D02*
X138688095Y-56604819D01*
X138688095Y-56604819D02*
X138926190Y-56604819D01*
X138926190Y-56604819D02*
X139021428Y-56557200D01*
X139021428Y-56557200D02*
X139069047Y-56509580D01*
X139069047Y-56509580D02*
X139116666Y-56414342D01*
X139116666Y-56414342D02*
X139116666Y-56319104D01*
X139116666Y-56319104D02*
X139069047Y-56223866D01*
X139069047Y-56223866D02*
X139021428Y-56176247D01*
X139021428Y-56176247D02*
X138926190Y-56128628D01*
X138926190Y-56128628D02*
X138735714Y-56081009D01*
X138735714Y-56081009D02*
X138640476Y-56033390D01*
X138640476Y-56033390D02*
X138592857Y-55985771D01*
X138592857Y-55985771D02*
X138545238Y-55890533D01*
X138545238Y-55890533D02*
X138545238Y-55795295D01*
X138545238Y-55795295D02*
X138592857Y-55700057D01*
X138592857Y-55700057D02*
X138640476Y-55652438D01*
X138640476Y-55652438D02*
X138735714Y-55604819D01*
X138735714Y-55604819D02*
X138973809Y-55604819D01*
X138973809Y-55604819D02*
X139116666Y-55652438D01*
D12*
X172790582Y-129750276D02*
X160493022Y-136850276D01*
X154093022Y-125765150D01*
X166390582Y-118665150D01*
X172790582Y-129750276D01*
X190388450Y-124428637D02*
X176672304Y-128103868D01*
X173359420Y-115740017D01*
X187075566Y-112064786D01*
X190388450Y-124428637D01*
X208884060Y-123714673D02*
X194684060Y-123714673D01*
X194684060Y-110914673D01*
X208884060Y-110914673D01*
X208884060Y-123714673D01*
X276814898Y-104025927D02*
X274592202Y-116631467D01*
X260607932Y-114165663D01*
X262830628Y-101560123D01*
X276814898Y-104025927D01*
X260716613Y-91688677D02*
X258493917Y-104294217D01*
X244509647Y-101828413D01*
X246732343Y-89222873D01*
X260716613Y-91688677D01*
X240452835Y-92467688D02*
X239559952Y-105236508D01*
X225394543Y-104245966D01*
X226287426Y-91477146D01*
X240452835Y-92467688D01*
X241639402Y-75514475D02*
X240746519Y-88283295D01*
X226581110Y-87292753D01*
X227473993Y-74523933D01*
X241639402Y-75514475D01*
X242831738Y-58559675D02*
X241938855Y-71328495D01*
X227773446Y-70337953D01*
X228666329Y-57569133D01*
X242831738Y-58559675D01*
X221856538Y-94572882D02*
X207656538Y-94572882D01*
X207656538Y-81772882D01*
X221856538Y-81772882D01*
X221856538Y-94572882D01*
X203860200Y-69005072D02*
X189660200Y-69005072D01*
X189660200Y-56205072D01*
X203860200Y-56205072D01*
X203860200Y-69005072D01*
X203860200Y-86009740D02*
X189660200Y-86009740D01*
X189660200Y-73209740D01*
X203860200Y-73209740D01*
X203860200Y-86009740D01*
X203860200Y-103002066D02*
X189660200Y-103002066D01*
X189660200Y-90202066D01*
X203860200Y-90202066D01*
X203860200Y-103002066D01*
X185859967Y-105821375D02*
X171659967Y-105821375D01*
X171659967Y-93021375D01*
X185859967Y-93021375D01*
X185859967Y-105821375D01*
X185859967Y-88808089D02*
X171659967Y-88808089D01*
X171659967Y-76008089D01*
X185859967Y-76008089D01*
X185859967Y-88808089D01*
X185859967Y-71727947D02*
X171659967Y-71727947D01*
X171659967Y-58927947D01*
X185859967Y-58927947D01*
X185859967Y-71727947D01*
X105219405Y-123711657D02*
X91019405Y-123711657D01*
X91019405Y-110911657D01*
X105219405Y-110911657D01*
X105219405Y-123711657D01*
X126547067Y-115734469D02*
X123234183Y-128098320D01*
X109518037Y-124423089D01*
X112830921Y-112059238D01*
X126547067Y-115734469D01*
X145828745Y-125758502D02*
X139428745Y-136843628D01*
X127131185Y-129743628D01*
X133531185Y-118658502D01*
X145828745Y-125758502D01*
X128230625Y-88725630D02*
X114030625Y-88725630D01*
X114030625Y-75925630D01*
X128230625Y-75925630D01*
X128230625Y-88725630D01*
X128230625Y-71716315D02*
X114030625Y-71716315D01*
X114030625Y-58916315D01*
X128230625Y-58916315D01*
X128230625Y-71716315D01*
X128230625Y-105717955D02*
X114030625Y-105717955D01*
X114030625Y-92917955D01*
X128230625Y-92917955D01*
X128230625Y-105717955D01*
X110233378Y-103002067D02*
X96033378Y-103002067D01*
X96033378Y-90202067D01*
X110233378Y-90202067D01*
X110233378Y-103002067D01*
X110233378Y-86002067D02*
X96033378Y-86002067D01*
X96033378Y-73202067D01*
X110233378Y-73202067D01*
X110233378Y-86002067D01*
X110227226Y-69012070D02*
X96027226Y-69012070D01*
X96027226Y-56212070D01*
X110227226Y-56212070D01*
X110227226Y-69012070D01*
X92226274Y-94562615D02*
X78026274Y-94562615D01*
X78026274Y-81762615D01*
X92226274Y-81762615D01*
X92226274Y-94562615D01*
X92228179Y-77565632D02*
X78028179Y-77565632D01*
X78028179Y-64765632D01*
X92228179Y-64765632D01*
X92228179Y-77565632D01*
X92241199Y-60572883D02*
X78041199Y-60572883D01*
X78041199Y-47772883D01*
X92241199Y-47772883D01*
X92241199Y-60572883D01*
X58357602Y-118544251D02*
X44373332Y-121010055D01*
X42150636Y-108404515D01*
X56134906Y-105938711D01*
X58357602Y-118544251D01*
X73247443Y-87285628D02*
X59082034Y-88276170D01*
X58189151Y-75507350D01*
X72354560Y-74516808D01*
X73247443Y-87285628D01*
X55405818Y-101802057D02*
X41421548Y-104267861D01*
X39198852Y-91662321D01*
X53183122Y-89196517D01*
X55405818Y-101802057D01*
X74445708Y-104355386D02*
X60280299Y-105345928D01*
X59387416Y-92577108D01*
X73552825Y-91586566D01*
X74445708Y-104355386D01*
X72051561Y-70332204D02*
X57886152Y-71322746D01*
X56993269Y-58553926D01*
X71158678Y-57563384D01*
X72051561Y-70332204D01*
X39261434Y-114142059D02*
X25277164Y-116607863D01*
X23054468Y-104002323D01*
X37038738Y-101536519D01*
X39261434Y-114142059D01*
X52463085Y-85059864D02*
X38478815Y-87525668D01*
X36256119Y-74920128D01*
X50240389Y-72454324D01*
X52463085Y-85059864D01*
D10*
X162172435Y-69294348D02*
X162872435Y-68394348D01*
X162872435Y-68394348D02*
X163572435Y-69294348D01*
X163572435Y-68394348D02*
X162172435Y-68394348D01*
X163572435Y-69294348D02*
X162172435Y-69294348D01*
X136427565Y-76493348D02*
X137127565Y-75593348D01*
X137127565Y-75593348D02*
X137827565Y-76493348D01*
X137827565Y-75593348D02*
X136427565Y-75593348D01*
X137827565Y-76493348D02*
X136427565Y-76493348D01*
X158890000Y-60370000D02*
X158890000Y-49850000D01*
X158900000Y-49850000D02*
X164700000Y-49850000D01*
X164700000Y-49850000D02*
X164700000Y-51930000D01*
X164700000Y-54040000D02*
X164700000Y-54930000D01*
X164700000Y-58870000D02*
X164700000Y-57100000D01*
X164700000Y-61190000D02*
X164700000Y-61600000D01*
X164700000Y-61600000D02*
X160800000Y-61600000D01*
X165722435Y-105294348D02*
X166422435Y-104394348D01*
X166422435Y-104394348D02*
X167122435Y-105294348D01*
X167122435Y-104394348D02*
X165722435Y-104394348D01*
X167122435Y-105294348D02*
X165722435Y-105294348D01*
X158622435Y-83697348D02*
X159322435Y-82797348D01*
X159322435Y-82797348D02*
X160022435Y-83697348D01*
X160022435Y-82797348D02*
X158622435Y-82797348D01*
X160022435Y-83697348D02*
X158622435Y-83697348D01*
X162172435Y-90896348D02*
X162872435Y-89996348D01*
X162872435Y-89996348D02*
X163572435Y-90896348D01*
X163572435Y-89996348D02*
X162172435Y-89996348D01*
X163572435Y-90896348D02*
X162172435Y-90896348D01*
X165722435Y-69294348D02*
X166422435Y-68394348D01*
X166422435Y-68394348D02*
X167122435Y-69294348D01*
X167122435Y-68394348D02*
X165722435Y-68394348D01*
X167122435Y-69294348D02*
X165722435Y-69294348D01*
X139977565Y-69294348D02*
X140677565Y-68394348D01*
X140677565Y-68394348D02*
X141377565Y-69294348D01*
X141377565Y-68394348D02*
X139977565Y-68394348D01*
X141377565Y-69294348D02*
X139977565Y-69294348D01*
D13*
X61750000Y-49800000D02*
X68500000Y-49800000D01*
X62540000Y-52760000D02*
X61750000Y-52760000D01*
X64040000Y-52770000D02*
X63460000Y-52770000D01*
X67010000Y-52770000D02*
X64970000Y-52770000D01*
X67970000Y-52770000D02*
X68500000Y-52770000D01*
X173100000Y-48850000D02*
X180900000Y-48850000D01*
X173100000Y-52530000D02*
X173100000Y-48850000D01*
X174750000Y-53150000D02*
X179250000Y-53150000D01*
X175750000Y-47600000D02*
X178250000Y-47600000D01*
X175750000Y-48850000D02*
X175750000Y-47600000D01*
X178250000Y-48850000D02*
X178250000Y-47600000D01*
X180900000Y-52530000D02*
X180900000Y-48850000D01*
D10*
X265484523Y-99119906D02*
X265727631Y-97741175D01*
X265727631Y-97741175D02*
X266492404Y-98586824D01*
X266370850Y-99276191D02*
X266613958Y-97897459D01*
X266492404Y-98586824D02*
X265484523Y-99119906D01*
X162172435Y-83697348D02*
X162872435Y-82797348D01*
X162872435Y-82797348D02*
X163572435Y-83697348D01*
X163572435Y-82797348D02*
X162172435Y-82797348D01*
X163572435Y-83697348D02*
X162172435Y-83697348D01*
X136427565Y-105294348D02*
X137127565Y-104394348D01*
X137127565Y-104394348D02*
X137827565Y-105294348D01*
X137827565Y-104394348D02*
X136427565Y-104394348D01*
X137827565Y-105294348D02*
X136427565Y-105294348D01*
D13*
X231550000Y-49800000D02*
X238300000Y-49800000D01*
X232340000Y-52760000D02*
X231550000Y-52760000D01*
X233840000Y-52770000D02*
X233260000Y-52770000D01*
X236810000Y-52770000D02*
X234770000Y-52770000D01*
X237770000Y-52770000D02*
X238300000Y-52770000D01*
D10*
X136427565Y-90896348D02*
X137127565Y-89996348D01*
X137127565Y-89996348D02*
X137827565Y-90896348D01*
X137827565Y-89996348D02*
X136427565Y-89996348D01*
X137827565Y-90896348D02*
X136427565Y-90896348D01*
X136427565Y-83697348D02*
X137127565Y-82797348D01*
X137127565Y-82797348D02*
X137827565Y-83697348D01*
X137827565Y-82797348D02*
X136427565Y-82797348D01*
X137827565Y-83697348D02*
X136427565Y-83697348D01*
X158622435Y-105294348D02*
X159322435Y-104394348D01*
X159322435Y-104394348D02*
X160022435Y-105294348D01*
X160022435Y-104394348D02*
X158622435Y-104394348D01*
X160022435Y-105294348D02*
X158622435Y-105294348D01*
X162172435Y-105294348D02*
X162872435Y-104394348D01*
X162872435Y-104394348D02*
X163572435Y-105294348D01*
X163572435Y-104394348D02*
X162172435Y-104394348D01*
X163572435Y-105294348D02*
X162172435Y-105294348D01*
X132877565Y-76493348D02*
X133577565Y-75593348D01*
X133577565Y-75593348D02*
X134277565Y-76493348D01*
X134277565Y-75593348D02*
X132877565Y-75593348D01*
X134277565Y-76493348D02*
X132877565Y-76493348D01*
X158622435Y-69294348D02*
X159322435Y-68394348D01*
X159322435Y-68394348D02*
X160022435Y-69294348D01*
X160022435Y-68394348D02*
X158622435Y-68394348D01*
X160022435Y-69294348D02*
X158622435Y-69294348D01*
X162172435Y-98095348D02*
X162872435Y-97195348D01*
X162872435Y-97195348D02*
X163572435Y-98095348D01*
X163572435Y-97195348D02*
X162172435Y-97195348D01*
X163572435Y-98095348D02*
X162172435Y-98095348D01*
X158622435Y-90896348D02*
X159322435Y-89996348D01*
X159322435Y-89996348D02*
X160022435Y-90896348D01*
X160022435Y-89996348D02*
X158622435Y-89996348D01*
X160022435Y-90896348D02*
X158622435Y-90896348D01*
X165722435Y-98095348D02*
X166422435Y-97195348D01*
X166422435Y-97195348D02*
X167122435Y-98095348D01*
X167122435Y-97195348D02*
X165722435Y-97195348D01*
X167122435Y-98095348D02*
X165722435Y-98095348D01*
X132877565Y-90896348D02*
X133577565Y-89996348D01*
X133577565Y-89996348D02*
X134277565Y-90896348D01*
X134277565Y-89996348D02*
X132877565Y-89996348D01*
X134277565Y-90896348D02*
X132877565Y-90896348D01*
D13*
X119100000Y-48850000D02*
X126900000Y-48850000D01*
X119100000Y-52530000D02*
X119100000Y-48850000D01*
X120750000Y-53150000D02*
X125250000Y-53150000D01*
X121750000Y-47600000D02*
X124250000Y-47600000D01*
X121750000Y-48850000D02*
X121750000Y-47600000D01*
X124250000Y-48850000D02*
X124250000Y-47600000D01*
X126900000Y-52530000D02*
X126900000Y-48850000D01*
D10*
X33386042Y-97897459D02*
X33629150Y-99276191D01*
X33507596Y-98586824D02*
X34272369Y-97741175D01*
X34272369Y-97741175D02*
X34515477Y-99119906D01*
X34515477Y-99119906D02*
X33507596Y-98586824D01*
X139977565Y-83692348D02*
X140677565Y-82792348D01*
X140677565Y-82792348D02*
X141377565Y-83692348D01*
X141377565Y-82792348D02*
X139977565Y-82792348D01*
X141377565Y-83692348D02*
X139977565Y-83692348D01*
X132877565Y-83697348D02*
X133577565Y-82797348D01*
X133577565Y-82797348D02*
X134277565Y-83697348D01*
X134277565Y-82797348D02*
X132877565Y-82797348D01*
X134277565Y-83697348D02*
X132877565Y-83697348D01*
X158622435Y-98095348D02*
X159322435Y-97195348D01*
X159322435Y-97195348D02*
X160022435Y-98095348D01*
X160022435Y-97195348D02*
X158622435Y-97195348D01*
X160022435Y-98095348D02*
X158622435Y-98095348D01*
X135290000Y-60370000D02*
X135290000Y-49850000D01*
X135300000Y-49850000D02*
X141100000Y-49850000D01*
X141100000Y-49850000D02*
X141100000Y-51930000D01*
X141100000Y-54040000D02*
X141100000Y-54930000D01*
X141100000Y-58870000D02*
X141100000Y-57100000D01*
X141100000Y-61190000D02*
X141100000Y-61600000D01*
X141100000Y-61600000D02*
X137200000Y-61600000D01*
X139977565Y-98095348D02*
X140677565Y-97195348D01*
X140677565Y-97195348D02*
X141377565Y-98095348D01*
X141377565Y-97195348D02*
X139977565Y-97195348D01*
X141377565Y-98095348D02*
X139977565Y-98095348D01*
X139977565Y-90896348D02*
X140677565Y-89996348D01*
X140677565Y-89996348D02*
X141377565Y-90896348D01*
X141377565Y-89996348D02*
X139977565Y-89996348D01*
X141377565Y-90896348D02*
X139977565Y-90896348D01*
X132877565Y-105294348D02*
X133577565Y-104394348D01*
X133577565Y-104394348D02*
X134277565Y-105294348D01*
X134277565Y-104394348D02*
X132877565Y-104394348D01*
X134277565Y-105294348D02*
X132877565Y-105294348D01*
X136427565Y-69294348D02*
X137127565Y-68394348D01*
X137127565Y-68394348D02*
X137827565Y-69294348D01*
X137827565Y-68394348D02*
X136427565Y-68394348D01*
X137827565Y-69294348D02*
X136427565Y-69294348D01*
X132877565Y-69294348D02*
X133577565Y-68394348D01*
X133577565Y-68394348D02*
X134277565Y-69294348D01*
X134277565Y-68394348D02*
X132877565Y-68394348D01*
X134277565Y-69294348D02*
X132877565Y-69294348D01*
X136427565Y-98095348D02*
X137127565Y-97195348D01*
X137127565Y-97195348D02*
X137827565Y-98095348D01*
X137827565Y-97195348D02*
X136427565Y-97195348D01*
X137827565Y-98095348D02*
X136427565Y-98095348D01*
X165722435Y-83697348D02*
X166422435Y-82797348D01*
X166422435Y-82797348D02*
X167122435Y-83697348D01*
X167122435Y-82797348D02*
X165722435Y-82797348D01*
X167122435Y-83697348D02*
X165722435Y-83697348D01*
X139977565Y-105294348D02*
X140677565Y-104394348D01*
X140677565Y-104394348D02*
X141377565Y-105294348D01*
X141377565Y-104394348D02*
X139977565Y-104394348D01*
X141377565Y-105294348D02*
X139977565Y-105294348D01*
X158622435Y-76493348D02*
X159322435Y-75593348D01*
X159322435Y-75593348D02*
X160022435Y-76493348D01*
X160022435Y-75593348D02*
X158622435Y-75593348D01*
X160022435Y-76493348D02*
X158622435Y-76493348D01*
X139977565Y-76493348D02*
X140677565Y-75593348D01*
X140677565Y-75593348D02*
X141377565Y-76493348D01*
X141377565Y-75593348D02*
X139977565Y-75593348D01*
X141377565Y-76493348D02*
X139977565Y-76493348D01*
X165722435Y-76493348D02*
X166422435Y-75593348D01*
X166422435Y-75593348D02*
X167122435Y-76493348D01*
X167122435Y-75593348D02*
X165722435Y-75593348D01*
X167122435Y-76493348D02*
X165722435Y-76493348D01*
X165722435Y-90896348D02*
X166422435Y-89996348D01*
X166422435Y-89996348D02*
X167122435Y-90896348D01*
X167122435Y-89996348D02*
X165722435Y-89996348D01*
X167122435Y-90896348D02*
X165722435Y-90896348D01*
X132877565Y-98095348D02*
X133577565Y-97195348D01*
X133577565Y-97195348D02*
X134277565Y-98095348D01*
X134277565Y-97195348D02*
X132877565Y-97195348D01*
X134277565Y-98095348D02*
X132877565Y-98095348D01*
X162172435Y-76493348D02*
X162872435Y-75593348D01*
X162872435Y-75593348D02*
X163572435Y-76493348D01*
X163572435Y-75593348D02*
X162172435Y-75593348D01*
X163572435Y-76493348D02*
X162172435Y-76493348D01*
D12*
X221856538Y-77567536D02*
X207656538Y-77567536D01*
X207656538Y-64767536D01*
X221856538Y-64767536D01*
X221856538Y-77567536D01*
X221856538Y-60564943D02*
X207656538Y-60564943D01*
X207656538Y-47764943D01*
X221856538Y-47764943D01*
X221856538Y-60564943D01*
X263657229Y-74945108D02*
X261434533Y-87550648D01*
X247450263Y-85084844D01*
X249672959Y-72479304D01*
X263657229Y-74945108D01*
X257762024Y-108434152D02*
X255539328Y-121039692D01*
X241555058Y-118573888D01*
X243777754Y-105968348D01*
X257762024Y-108434152D01*
D14*
X213000000Y-99000000D03*
X92000000Y-99000000D03*
X208000000Y-99000000D03*
X87000000Y-99000000D03*
%LPC*%
D15*
X89500000Y-99000000D02*
X89500000Y-101500000D01*
X88500000Y-103000000D02*
X90500000Y-103000000D01*
X210500000Y-99000000D02*
X210500000Y-103000000D01*
X212000000Y-101000000D02*
X212000000Y-103000000D01*
X209000000Y-101000000D02*
X209000000Y-103000000D01*
X209000000Y-101000000D02*
X212000000Y-101000000D01*
D16*
X159018855Y-131696943D03*
X159793854Y-133039282D03*
D17*
X166984749Y-122294278D03*
D18*
X170094749Y-127680956D03*
D19*
X164208789Y-130086174D03*
X166200648Y-128936174D03*
D20*
X155599239Y-126973996D03*
D21*
X160549239Y-135547648D03*
D22*
X166109365Y-119578067D03*
D23*
X168984365Y-124557713D03*
D24*
X171859365Y-129537359D03*
D16*
X176582148Y-122744588D03*
X176983317Y-124241773D03*
D25*
X186710200Y-115724036D03*
D18*
X188320055Y-121732095D03*
D19*
X182012138Y-122531959D03*
X184233767Y-121936675D03*
D26*
X174501442Y-117297510D03*
D27*
X177063751Y-126860176D03*
D28*
X186567651Y-112873812D03*
D29*
X188055860Y-118427885D03*
D30*
X189544070Y-123981959D03*
D16*
X195984060Y-118514673D03*
X195984060Y-120064672D03*
D31*
X207584060Y-114354673D03*
D18*
X207584060Y-120574673D03*
D19*
X201284060Y-119714673D03*
X203584060Y-119714673D03*
D32*
X195384060Y-112714673D03*
D33*
X195384060Y-122614673D03*
D34*
X208184060Y-111564673D03*
D35*
X208184060Y-117314673D03*
D36*
X208184060Y-123064673D03*
D16*
X262791152Y-109270405D03*
X262521998Y-110796856D03*
D37*
X274937299Y-107187923D03*
D18*
X273857207Y-113313428D03*
D19*
X267802255Y-111372510D03*
X270067313Y-111771900D03*
D38*
X263207427Y-103454331D03*
D39*
X261488310Y-113203928D03*
D40*
X276012662Y-104544499D03*
D41*
X275014185Y-110207143D03*
D42*
X274015708Y-115869788D03*
D16*
X246692867Y-96933155D03*
X246423713Y-98459606D03*
D37*
X258839014Y-94850673D03*
D18*
X257758922Y-100976178D03*
D19*
X251703970Y-99035260D03*
X253969028Y-99434650D03*
D38*
X247109142Y-91117081D03*
D39*
X245390025Y-100866678D03*
D40*
X259914377Y-92207249D03*
D41*
X258915900Y-97869893D03*
D42*
X257917423Y-103532538D03*
D16*
X227054110Y-99149316D03*
X226945987Y-100695540D03*
D43*
X238916040Y-95808625D03*
D18*
X238482154Y-102013473D03*
D19*
X232257491Y-100716102D03*
X234551889Y-100876542D03*
D44*
X226860159Y-93321591D03*
D45*
X226169570Y-103197475D03*
D46*
X239709199Y-93067275D03*
D47*
X239308099Y-98803268D03*
D48*
X238906999Y-104539262D03*
D16*
X228240677Y-82196103D03*
X228132554Y-83742327D03*
D43*
X240102607Y-78855412D03*
D18*
X239668721Y-85060260D03*
D19*
X233444058Y-83762889D03*
X235738456Y-83923329D03*
D44*
X228046726Y-76368378D03*
D45*
X227356137Y-86244262D03*
D46*
X240895766Y-76114062D03*
D47*
X240494666Y-81850055D03*
D48*
X240093566Y-87586049D03*
D16*
X229433013Y-65241303D03*
X229324890Y-66787527D03*
D43*
X241294943Y-61900612D03*
D18*
X240861057Y-68105460D03*
D19*
X234636394Y-66808089D03*
X236930792Y-66968529D03*
D44*
X229239062Y-59413578D03*
D45*
X228548473Y-69289462D03*
D46*
X242088102Y-59159262D03*
D47*
X241687002Y-64895255D03*
D48*
X241285902Y-70631249D03*
D16*
X208956538Y-89372882D03*
X208956538Y-90922881D03*
D31*
X220556538Y-85212882D03*
D18*
X220556538Y-91432882D03*
D19*
X214256538Y-90572882D03*
X216556538Y-90572882D03*
D32*
X208356538Y-83572882D03*
D33*
X208356538Y-93472882D03*
D34*
X221156538Y-82422882D03*
D35*
X221156538Y-88172882D03*
D36*
X221156538Y-93922882D03*
D16*
X190960200Y-63805072D03*
X190960200Y-65355071D03*
D31*
X202560200Y-59645072D03*
D18*
X202560200Y-65865072D03*
D19*
X196260200Y-65005072D03*
X198560200Y-65005072D03*
D32*
X190360200Y-58005072D03*
D33*
X190360200Y-67905072D03*
D34*
X203160200Y-56855072D03*
D35*
X203160200Y-62605072D03*
D36*
X203160200Y-68355072D03*
D16*
X190960200Y-80809740D03*
X190960200Y-82359739D03*
D31*
X202560200Y-76649740D03*
D18*
X202560200Y-82869740D03*
D19*
X196260200Y-82009740D03*
X198560200Y-82009740D03*
D32*
X190360200Y-75009740D03*
D33*
X190360200Y-84909740D03*
D34*
X203160200Y-73859740D03*
D35*
X203160200Y-79609740D03*
D36*
X203160200Y-85359740D03*
D16*
X190960200Y-97802066D03*
X190960200Y-99352065D03*
D31*
X202560200Y-93642066D03*
D18*
X202560200Y-99862066D03*
D19*
X196260200Y-99002066D03*
X198560200Y-99002066D03*
D32*
X190360200Y-92002066D03*
D33*
X190360200Y-101902066D03*
D34*
X203160200Y-90852066D03*
D35*
X203160200Y-96602066D03*
D36*
X203160200Y-102352066D03*
D16*
X172959967Y-100621375D03*
X172959967Y-102171374D03*
D31*
X184559967Y-96461375D03*
D18*
X184559967Y-102681375D03*
D19*
X178259967Y-101821375D03*
X180559967Y-101821375D03*
D32*
X172359967Y-94821375D03*
D33*
X172359967Y-104721375D03*
D34*
X185159967Y-93671375D03*
D35*
X185159967Y-99421375D03*
D36*
X185159967Y-105171375D03*
D16*
X172959967Y-83608089D03*
X172959967Y-85158088D03*
D31*
X184559967Y-79448089D03*
D18*
X184559967Y-85668089D03*
D19*
X178259967Y-84808089D03*
X180559967Y-84808089D03*
D32*
X172359967Y-77808089D03*
D33*
X172359967Y-87708089D03*
D34*
X185159967Y-76658089D03*
D35*
X185159967Y-82408089D03*
D36*
X185159967Y-88158089D03*
D16*
X172959967Y-66527947D03*
X172959967Y-68077946D03*
D31*
X184559967Y-62367947D03*
D18*
X184559967Y-68587947D03*
D19*
X178259967Y-67727947D03*
X180559967Y-67727947D03*
D32*
X172359967Y-60727947D03*
D33*
X172359967Y-70627947D03*
D34*
X185159967Y-59577947D03*
D35*
X185159967Y-65327947D03*
D36*
X185159967Y-71077947D03*
D16*
X92319405Y-118511657D03*
X92319405Y-120061656D03*
D31*
X103919405Y-114351657D03*
D18*
X103919405Y-120571657D03*
D19*
X97619405Y-119711657D03*
X99919405Y-119711657D03*
D32*
X91719405Y-112711657D03*
D33*
X91719405Y-122611657D03*
D34*
X104519405Y-111561657D03*
D35*
X104519405Y-117311657D03*
D36*
X104519405Y-123061657D03*
D49*
X122726268Y-127289294D03*
D50*
X124214477Y-121735221D03*
D51*
X125702687Y-116181147D03*
D52*
X110478886Y-123541744D03*
D53*
X113041194Y-113979078D03*
D19*
X119150053Y-122862875D03*
X116928423Y-122267591D03*
D18*
X122791172Y-124728848D03*
D54*
X124401026Y-118720789D03*
D16*
X111718430Y-121233924D03*
X112119599Y-119736740D03*
X130857018Y-125890295D03*
X130082018Y-127232634D03*
D55*
X142982912Y-128087630D03*
D18*
X139872912Y-133474308D03*
D19*
X134846952Y-129579526D03*
X136838811Y-130729526D03*
D56*
X133237402Y-120567348D03*
D57*
X128287402Y-129141000D03*
D58*
X144897528Y-125971419D03*
D59*
X142022528Y-130951065D03*
D60*
X139147528Y-135930711D03*
D36*
X127530625Y-88075630D03*
D35*
X127530625Y-82325630D03*
D34*
X127530625Y-76575630D03*
D33*
X114730625Y-87625630D03*
D32*
X114730625Y-77725630D03*
D19*
X122930625Y-84725630D03*
X120630625Y-84725630D03*
D18*
X126930625Y-85585630D03*
D31*
X126930625Y-79365630D03*
D16*
X115330625Y-85075629D03*
X115330625Y-83525630D03*
X115330625Y-66516315D03*
X115330625Y-68066314D03*
D31*
X126930625Y-62356315D03*
D18*
X126930625Y-68576315D03*
D19*
X120630625Y-67716315D03*
X122930625Y-67716315D03*
D32*
X114730625Y-60716315D03*
D33*
X114730625Y-70616315D03*
D34*
X127530625Y-59566315D03*
D35*
X127530625Y-65316315D03*
D36*
X127530625Y-71066315D03*
D16*
X115330625Y-100517955D03*
X115330625Y-102067954D03*
D31*
X126930625Y-96357955D03*
D18*
X126930625Y-102577955D03*
D19*
X120630625Y-101717955D03*
X122930625Y-101717955D03*
D32*
X114730625Y-94717955D03*
D33*
X114730625Y-104617955D03*
D34*
X127530625Y-93567955D03*
D35*
X127530625Y-99317955D03*
D36*
X127530625Y-105067955D03*
X109533378Y-102352067D03*
D35*
X109533378Y-96602067D03*
D34*
X109533378Y-90852067D03*
D33*
X96733378Y-101902067D03*
D32*
X96733378Y-92002067D03*
D19*
X104933378Y-99002067D03*
X102633378Y-99002067D03*
D18*
X108933378Y-99862067D03*
D31*
X108933378Y-93642067D03*
D16*
X97333378Y-99352066D03*
X97333378Y-97802067D03*
X97333378Y-80802067D03*
X97333378Y-82352066D03*
D31*
X108933378Y-76642067D03*
D18*
X108933378Y-82862067D03*
D19*
X102633378Y-82002067D03*
X104933378Y-82002067D03*
D32*
X96733378Y-75002067D03*
D33*
X96733378Y-84902067D03*
D34*
X109533378Y-73852067D03*
D35*
X109533378Y-79602067D03*
D36*
X109533378Y-85352067D03*
D16*
X97327226Y-63812070D03*
X97327226Y-65362069D03*
D31*
X108927226Y-59652070D03*
D18*
X108927226Y-65872070D03*
D19*
X102627226Y-65012070D03*
X104927226Y-65012070D03*
D32*
X96727226Y-58012070D03*
D33*
X96727226Y-67912070D03*
D34*
X109527226Y-56862070D03*
D35*
X109527226Y-62612070D03*
D36*
X109527226Y-68362070D03*
D16*
X79326274Y-89362615D03*
X79326274Y-90912614D03*
D31*
X90926274Y-85202615D03*
D18*
X90926274Y-91422615D03*
D19*
X84626274Y-90562615D03*
X86926274Y-90562615D03*
D32*
X78726274Y-83562615D03*
D33*
X78726274Y-93462615D03*
D34*
X91526274Y-82412615D03*
D35*
X91526274Y-88162615D03*
D36*
X91526274Y-93912615D03*
D16*
X79328179Y-72365632D03*
X79328179Y-73915631D03*
D31*
X90928179Y-68205632D03*
D18*
X90928179Y-74425632D03*
D19*
X84628179Y-73565632D03*
X86928179Y-73565632D03*
D32*
X78728179Y-66565632D03*
D33*
X78728179Y-76465632D03*
D34*
X91528179Y-65415632D03*
D35*
X91528179Y-71165632D03*
D36*
X91528179Y-76915632D03*
D16*
X79341199Y-55372883D03*
X79341199Y-56922882D03*
D31*
X90941199Y-51212883D03*
D18*
X90941199Y-57432883D03*
D19*
X84641199Y-56572883D03*
X86941199Y-56572883D03*
D32*
X78741199Y-49572883D03*
D33*
X78741199Y-59472883D03*
D34*
X91541199Y-48422883D03*
D35*
X91541199Y-54172883D03*
D36*
X91541199Y-59922883D03*
D61*
X57555366Y-118025679D03*
D62*
X56556889Y-112363035D03*
D63*
X55558412Y-106700390D03*
D64*
X44871685Y-119805212D03*
D65*
X43152568Y-110055616D03*
D19*
X52443529Y-115525355D03*
X50178471Y-115924746D03*
D18*
X56532097Y-115677697D03*
D66*
X55452005Y-109552193D03*
D16*
X45019766Y-117189763D03*
X44750612Y-115663312D03*
D67*
X72503807Y-86686041D03*
D68*
X72102707Y-80950048D03*
D69*
X71701607Y-75214054D03*
D70*
X59703596Y-87130020D03*
D71*
X59013007Y-77254136D03*
D19*
X67681328Y-83665081D03*
X65386931Y-83825521D03*
D18*
X71731575Y-84243960D03*
D72*
X71297689Y-78039112D03*
D16*
X60124256Y-84544377D03*
X60016133Y-82998153D03*
D61*
X54603582Y-101283485D03*
D62*
X53605105Y-95620841D03*
D63*
X52606628Y-89958196D03*
D64*
X41919901Y-103063018D03*
D65*
X40200784Y-93313422D03*
D19*
X49491745Y-98783161D03*
X47226687Y-99182552D03*
D18*
X53580313Y-98935503D03*
D66*
X52500221Y-92809999D03*
D16*
X42067982Y-100447569D03*
X41798828Y-98921118D03*
D67*
X73702072Y-103755799D03*
D68*
X73300972Y-98019806D03*
D69*
X72899872Y-92283812D03*
D70*
X60901861Y-104199778D03*
D71*
X60211272Y-94323894D03*
D19*
X68879593Y-100734839D03*
X66585196Y-100895279D03*
D18*
X72929840Y-101313718D03*
D72*
X72495954Y-95108870D03*
D16*
X61322521Y-101614135D03*
X61214398Y-100067911D03*
D67*
X71307925Y-69732617D03*
D68*
X70906825Y-63996624D03*
D69*
X70505725Y-58260630D03*
D70*
X58507714Y-70176596D03*
D71*
X57817125Y-60300712D03*
D19*
X66485446Y-66711657D03*
X64191049Y-66872097D03*
D18*
X70535693Y-67290536D03*
D72*
X70101807Y-61085688D03*
D16*
X58928374Y-67590953D03*
X58820251Y-66044729D03*
D61*
X38459198Y-113623487D03*
D62*
X37460721Y-107960843D03*
D63*
X36462244Y-102298198D03*
D64*
X25775517Y-115403020D03*
D65*
X24056400Y-105653424D03*
D19*
X33347361Y-111123163D03*
X31082303Y-111522554D03*
D18*
X37435929Y-111275505D03*
D66*
X36355837Y-105150001D03*
D16*
X25923598Y-112787571D03*
X25654444Y-111261120D03*
X38856095Y-82178925D03*
X39125249Y-83705376D03*
D66*
X49557488Y-76067806D03*
D18*
X50637580Y-82193310D03*
D19*
X44283954Y-82440359D03*
X46549012Y-82040968D03*
D65*
X37258051Y-76571229D03*
D64*
X38977168Y-86320825D03*
D63*
X49663895Y-73216003D03*
D62*
X50662372Y-78878648D03*
D61*
X51660849Y-84541292D03*
D73*
X162872435Y-67194348D03*
X162872435Y-70594348D03*
X137127565Y-74393348D03*
X137127565Y-77793348D03*
D74*
X156392565Y-107434348D03*
X156392565Y-108174348D03*
X156392565Y-108914348D03*
X156392565Y-109654348D03*
X156392565Y-110394348D03*
X156392565Y-111134348D03*
D75*
X139500000Y-112000000D03*
D18*
X161800000Y-51200000D03*
X161800000Y-58200000D03*
D76*
X266420000Y-51505000D03*
X263880000Y-51505000D03*
X261340000Y-51505000D03*
X258800000Y-51505000D03*
X256260000Y-51505000D03*
X253720000Y-51505000D03*
X251180000Y-51505000D03*
X251180000Y-67695000D03*
X253720000Y-67695000D03*
X256260000Y-67695000D03*
X258800000Y-67695000D03*
X261340000Y-67695000D03*
X263880000Y-67695000D03*
X266420000Y-67695000D03*
D77*
X267372000Y-58330000D03*
X267372000Y-60870000D03*
X264832000Y-58330000D03*
X264832000Y-60870000D03*
X259117000Y-55155000D03*
X261022000Y-55155000D03*
D14*
X213000000Y-99000000D03*
D73*
X166422435Y-103194348D03*
X166422435Y-106594348D03*
X159322435Y-81597348D03*
X159322435Y-84997348D03*
D14*
X92000000Y-99000000D03*
D73*
X162872435Y-88796348D03*
X162872435Y-92196348D03*
D75*
X34300000Y-121014348D03*
D73*
X166422435Y-67194348D03*
X166422435Y-70594348D03*
X140677565Y-67194348D03*
X140677565Y-70594348D03*
D78*
X63750000Y-51350000D03*
X66750000Y-51400000D03*
D79*
X67500000Y-53200000D03*
X64500000Y-53200000D03*
X63000000Y-53200000D03*
D80*
X69100000Y-51300000D03*
X61150000Y-51300000D03*
D81*
X173500000Y-53850000D03*
X180500000Y-53850000D03*
D75*
X265700000Y-121000000D03*
X243000000Y-52700000D03*
D82*
X267674173Y-98795202D03*
X264325827Y-98204798D03*
D73*
X162872435Y-81597348D03*
X162872435Y-84997348D03*
X137127565Y-103194348D03*
X137127565Y-106594348D03*
D78*
X233550000Y-51350000D03*
X236550000Y-51400000D03*
D79*
X237300000Y-53200000D03*
X234300000Y-53200000D03*
X232800000Y-53200000D03*
D80*
X238900000Y-51300000D03*
X230950000Y-51300000D03*
D73*
X137127565Y-88796348D03*
X137127565Y-92196348D03*
X137127565Y-81597348D03*
X137127565Y-84997348D03*
X159322435Y-103194348D03*
X159322435Y-106594348D03*
X162872435Y-103194348D03*
X162872435Y-106594348D03*
X133577565Y-74393348D03*
X133577565Y-77793348D03*
X159322435Y-67194348D03*
X159322435Y-70594348D03*
D75*
X57000000Y-52700000D03*
D74*
X143597565Y-111134348D03*
X143597565Y-110394348D03*
X143597565Y-109654348D03*
X143597565Y-108914348D03*
X143597565Y-108174348D03*
X143597565Y-107434348D03*
D73*
X162872435Y-95995348D03*
X162872435Y-99395348D03*
D14*
X208000000Y-99000000D03*
D73*
X159322435Y-88796348D03*
X159322435Y-92196348D03*
X166422435Y-95995348D03*
X166422435Y-99395348D03*
X133577565Y-88796348D03*
X133577565Y-92196348D03*
D81*
X119500000Y-53850000D03*
X126500000Y-53850000D03*
D83*
X32325827Y-98795202D03*
X35674173Y-98204798D03*
D73*
X140677565Y-81592348D03*
X140677565Y-84992348D03*
X133577565Y-81597348D03*
X133577565Y-84997348D03*
X159322435Y-95995348D03*
X159322435Y-99395348D03*
D18*
X138200000Y-51200000D03*
X138200000Y-58200000D03*
D73*
X140677565Y-95995348D03*
X140677565Y-99395348D03*
D74*
X156422565Y-65034348D03*
X156422565Y-65774348D03*
X156422565Y-66514348D03*
X156422565Y-67254348D03*
X156422565Y-67994348D03*
X156422565Y-68734348D03*
D73*
X140677565Y-88796348D03*
X140677565Y-92196348D03*
X133577565Y-103194348D03*
X133577565Y-106594348D03*
X137127565Y-67194348D03*
X137127565Y-70594348D03*
X133577565Y-67194348D03*
X133577565Y-70594348D03*
D14*
X87000000Y-99000000D03*
D73*
X137127565Y-95995348D03*
X137127565Y-99395348D03*
X166422435Y-81597348D03*
X166422435Y-84997348D03*
X140677565Y-103194348D03*
X140677565Y-106594348D03*
X159322435Y-74393348D03*
X159322435Y-77793348D03*
D75*
X160500000Y-112000000D03*
D73*
X140677565Y-74393348D03*
X140677565Y-77793348D03*
D75*
X131200000Y-52700000D03*
D73*
X166422435Y-74393348D03*
X166422435Y-77793348D03*
X166422435Y-88796348D03*
X166422435Y-92196348D03*
X133577565Y-95995348D03*
X133577565Y-99395348D03*
D74*
X143627565Y-68734348D03*
X143627565Y-67994348D03*
X143627565Y-67254348D03*
X143627565Y-66514348D03*
X143627565Y-65774348D03*
X143627565Y-65034348D03*
D76*
X33580000Y-67695000D03*
X36120000Y-67695000D03*
X38660000Y-67695000D03*
X41200000Y-67695000D03*
X43740000Y-67695000D03*
X46280000Y-67695000D03*
X48820000Y-67695000D03*
X48820000Y-51505000D03*
X46280000Y-51505000D03*
X43740000Y-51505000D03*
X41200000Y-51505000D03*
X38660000Y-51505000D03*
X36120000Y-51505000D03*
X33580000Y-51505000D03*
D77*
X32628000Y-60870000D03*
X32628000Y-58330000D03*
X35168000Y-60870000D03*
X35168000Y-58330000D03*
X40883000Y-64045000D03*
X38978000Y-64045000D03*
D75*
X168800000Y-52700000D03*
D73*
X162872435Y-74393348D03*
X162872435Y-77793348D03*
D16*
X208956538Y-72367536D03*
X208956538Y-73917535D03*
D31*
X220556538Y-68207536D03*
D18*
X220556538Y-74427536D03*
D19*
X214256538Y-73567536D03*
X216556538Y-73567536D03*
D32*
X208356538Y-66567536D03*
D33*
X208356538Y-76467536D03*
D34*
X221156538Y-65417536D03*
D35*
X221156538Y-71167536D03*
D36*
X221156538Y-76917536D03*
X221156538Y-59914943D03*
D35*
X221156538Y-54164943D03*
D34*
X221156538Y-48414943D03*
D33*
X208356538Y-59464943D03*
D32*
X208356538Y-49564943D03*
D19*
X216556538Y-56564943D03*
X214256538Y-56564943D03*
D18*
X220556538Y-57424943D03*
D31*
X220556538Y-51204943D03*
D16*
X208956538Y-56914942D03*
X208956538Y-55364943D03*
X249633483Y-80189586D03*
X249364329Y-81716037D03*
D37*
X261779630Y-78107104D03*
D18*
X260699538Y-84232609D03*
D19*
X254644586Y-82291691D03*
X256909644Y-82691081D03*
D38*
X250049758Y-74373512D03*
D39*
X248330641Y-84123109D03*
D40*
X262854993Y-75463680D03*
D41*
X261856516Y-81126324D03*
D42*
X260858039Y-86788969D03*
D16*
X243738278Y-113678630D03*
X243469124Y-115205081D03*
D37*
X255884425Y-111596148D03*
D18*
X254804333Y-117721653D03*
D19*
X248749381Y-115780735D03*
X251014439Y-116180125D03*
D38*
X244154553Y-107862556D03*
D39*
X242435436Y-117612153D03*
D40*
X256959788Y-108952724D03*
D41*
X255961311Y-114615368D03*
D42*
X254962834Y-120278013D03*
%LPD*%
M02*
