M48
; DRILL file {KiCad 9.0.5} date 2025-10-26T00:34:38+0200
; FORMAT={-:-/ absolute / metric / decimal}
; #@! TF.CreationDate,2025-10-26T00:34:38+02:00
; #@! TF.GenerationSoftware,Kicad,Pcbnew,9.0.5
; #@! TF.FileFunction,Plated,1,2,PTH
FMAT,2
METRIC
; #@! TA.AperFunction,Plated,PTH,ViaDrill
T1C0.300
; #@! TA.AperFunction,Plated,PTH,ComponentDrill
T2C1.000
; #@! TA.AperFunction,Plated,PTH,ComponentDrill
T3C1.016
; #@! TA.AperFunction,Plated,PTH,ComponentDrill
T4C1.100
; #@! TA.AperFunction,Plated,PTH,ComponentDrill
T5C1.250
; #@! TA.AperFunction,Plated,PTH,ComponentDrill
T6C1.300
; #@! TA.AperFunction,Plated,PTH,ComponentDrill
T7C3.200
%
G90
G05
T1
X29.509Y-110.99
X34.65Y-114.966
X34.826Y-69.285
X37.392Y-69.285
X38.751Y-99.69
X38.875Y-110.55
X38.9Y-109.85
X39.509Y-115.99
X39.6Y-109.825
X39.623Y-108.49
X39.731Y-60.18
X39.908Y-69.285
X39.941Y-53.426
X42.482Y-53.426
X42.486Y-69.285
X43.009Y-80.99
X45.023Y-53.426
X46.009Y-97.99
X47.592Y-53.447
X50.009Y-114.49
X54.009Y-114.49
X55.527Y-60.276
X55.581Y-59.654
X56.009Y-58.49
X56.009Y-60.99
X59.988Y-59.654
X60.009Y-58.865
X60.009Y-60.99
X61.759Y-53.89
X63.009Y-65.99
X64.009Y-82.49
X64.009Y-99.49
X65.224Y-51.376
X74.709Y-53.865
X74.709Y-56.94
X74.716Y-52.811
X76.009Y-54.99
X82.509Y-89.49
X83.009Y-54.99
X83.009Y-71.99
X89.009Y-47.99
X89.509Y-47.49
X90.009Y-46.99
X92.509Y-51.49
X93.009Y-50.99
X93.259Y-50.403
X96.509Y-116.99
X99.85Y-50.85
X101.509Y-63.49
X101.509Y-80.49
X101.509Y-97.99
X103.155Y-59.557
X103.155Y-59.557
X103.155Y-59.557
X111.009Y-113.99
X111.509Y-113.49
X112.009Y-111.99
X112.509Y-110.49
X113.009Y-103.99
X113.009Y-104.99
X115.009Y-106.99
X115.009Y-113.49
X115.009Y-114.49
X115.509Y-113.99
X115.509Y-114.99
X116.009Y-106.99
X117.009Y-119.99
X117.875Y-50.5
X118.836Y-105.343
X119.009Y-65.49
X119.009Y-82.49
X119.009Y-99.49
X119.15Y-118.849
X120.68Y-116.12
X121.118Y-113.094
X122.937Y-51.345
X122.937Y-53.898
X123.009Y-99.49
X124.509Y-65.49
X127.009Y-106.99
X127.226Y-116.672
X127.861Y-106.69
X128.009Y-103.49
X128.634Y-103.49
X130.009Y-65.49
X131.009Y-71.99
X133.575Y-108.0
X134.784Y-108.365
X134.79Y-67.19
X134.79Y-74.4
X134.79Y-81.59
X134.79Y-88.78
X134.79Y-96.0
X136.009Y-126.49
X137.125Y-107.975
X137.234Y-109.715
X138.044Y-126.955
X138.359Y-108.015
X138.37Y-67.2
X138.37Y-74.4
X138.37Y-81.6
X138.37Y-88.77
X138.37Y-95.97
X140.675Y-108.0
X141.859Y-108.415
X141.865Y-67.185
X141.865Y-74.385
X141.865Y-81.585
X141.865Y-88.765
X141.865Y-95.985
X158.109Y-108.415
X158.11Y-67.18
X158.11Y-74.38
X158.11Y-81.6
X158.11Y-88.8
X158.11Y-96.02
X159.34Y-108.03
X160.569Y-115.876
X161.659Y-108.04
X161.66Y-67.19
X161.66Y-74.4
X161.66Y-81.61
X161.66Y-88.82
X161.66Y-96.01
X162.86Y-107.99
X163.509Y-127.99
X165.159Y-108.34
X165.17Y-74.38
X165.17Y-81.58
X165.17Y-88.81
X165.17Y-95.99
X165.18Y-67.19
X165.509Y-126.49
X165.909Y-109.715
X166.41Y-107.99
X170.729Y-121.49
X171.984Y-117.89
X174.009Y-112.49
X175.614Y-57.372
X176.509Y-65.99
X176.509Y-82.99
X176.509Y-99.99
X178.509Y-98.49
X179.009Y-98.99
X179.39Y-55.793
X179.509Y-99.49
X181.71Y-56.3
X182.009Y-120.99
X183.204Y-56.93
X184.009Y-111.49
X184.509Y-111.99
X187.009Y-98.49
X187.509Y-98.99
X188.009Y-99.49
X188.509Y-111.49
X193.481Y-51.333
X195.009Y-63.49
X195.009Y-80.49
X195.009Y-97.49
X197.562Y-109.237
X201.273Y-117.349
X211.509Y-49.99
X212.509Y-88.99
X213.009Y-54.99
X213.009Y-71.99
X217.509Y-52.49
X218.009Y-51.99
X218.509Y-51.49
X218.806Y-47.044
X222.509Y-50.49
X226.278Y-56.35
X227.043Y-56.8
X227.509Y-57.319
X228.09Y-54.033
X229.009Y-104.99
X231.009Y-98.99
X231.509Y-81.99
X231.611Y-56.816
X233.459Y-54.49
X233.509Y-64.49
X235.038Y-51.368
X240.009Y-59.99
X240.238Y-57.719
X240.509Y-58.615
X240.509Y-59.49
X243.509Y-59.99
X243.558Y-58.615
X244.075Y-59.49
X244.522Y-57.99
X246.509Y-103.99
X247.959Y-54.515
X248.509Y-113.99
X249.161Y-51.572
X250.16Y-53.16
X251.509Y-96.49
X252.466Y-65.781
X254.509Y-80.49
X255.001Y-65.781
X257.537Y-65.781
X260.072Y-65.799
X263.137Y-114.044
X264.475Y-99.525
X266.87Y-95.65
X266.918Y-97.088
X267.009Y-108.99
X267.895Y-97.028
X268.009Y-106.49
X268.41Y-96.31
X270.009Y-106.49
T2
X33.58Y-51.98
X33.58Y-67.22
X36.12Y-51.98
X36.12Y-67.22
X38.66Y-51.98
X38.66Y-67.22
X41.2Y-51.98
X41.2Y-67.22
X43.74Y-51.98
X43.74Y-67.22
X46.28Y-51.98
X46.28Y-67.22
X48.82Y-51.98
X48.82Y-67.22
X120.5Y-51.35
X125.5Y-51.35
X174.5Y-51.35
X179.5Y-51.35
X251.18Y-51.98
X251.18Y-67.22
X253.72Y-51.98
X253.72Y-67.22
X256.26Y-51.98
X256.26Y-67.22
X258.8Y-51.98
X258.8Y-67.22
X261.34Y-51.98
X261.34Y-67.22
X263.88Y-51.98
X263.88Y-67.22
X266.42Y-51.98
X266.42Y-67.22
T3
X32.628Y-58.33
X32.628Y-60.87
X35.168Y-58.33
X35.168Y-60.87
X38.978Y-64.045
X40.883Y-64.045
X259.117Y-55.155
X261.022Y-55.155
X264.832Y-58.33
X264.832Y-60.87
X267.372Y-58.33
X267.372Y-60.87
T4
X31.082Y-111.523
X33.347Y-111.123
X44.284Y-82.44
X46.549Y-82.041
X47.227Y-99.183
X49.492Y-98.783
X50.178Y-115.925
X52.444Y-115.525
X64.191Y-66.872
X65.387Y-83.826
X66.485Y-66.712
X66.585Y-100.895
X67.681Y-83.665
X68.88Y-100.735
X84.626Y-90.563
X84.628Y-73.566
X84.641Y-56.573
X86.926Y-90.563
X86.928Y-73.566
X86.941Y-56.573
X97.619Y-119.712
X99.919Y-119.712
X102.627Y-65.012
X102.633Y-82.002
X102.633Y-99.002
X104.927Y-65.012
X104.933Y-82.002
X104.933Y-99.002
X116.928Y-122.268
X119.15Y-122.863
X120.631Y-67.716
X120.631Y-84.726
X120.631Y-101.718
X122.931Y-67.716
X122.931Y-84.726
X122.931Y-101.718
X134.847Y-129.58
X136.839Y-130.73
X164.209Y-130.086
X166.201Y-128.936
X178.26Y-67.728
X178.26Y-84.808
X178.26Y-101.821
X180.56Y-67.728
X180.56Y-84.808
X180.56Y-101.821
X182.012Y-122.532
X184.234Y-121.937
X196.26Y-65.005
X196.26Y-82.01
X196.26Y-99.002
X198.56Y-65.005
X198.56Y-82.01
X198.56Y-99.002
X201.284Y-119.715
X203.584Y-119.715
X214.257Y-56.565
X214.257Y-73.568
X214.257Y-90.573
X216.557Y-56.565
X216.557Y-73.568
X216.557Y-90.573
X232.257Y-100.716
X233.444Y-83.763
X234.552Y-100.877
X234.636Y-66.808
X235.738Y-83.923
X236.931Y-66.969
X248.749Y-115.781
X251.014Y-116.18
X251.704Y-99.035
X253.969Y-99.435
X254.645Y-82.292
X256.91Y-82.691
X267.802Y-111.373
X270.067Y-111.772
T5
X87.0Y-99.0
X92.0Y-99.0
X208.0Y-99.0
X213.0Y-99.0
T6
X119.5Y-53.85
X126.5Y-53.85
X173.5Y-53.85
X180.5Y-53.85
T7
X34.3Y-121.014
X57.0Y-52.7
X131.2Y-52.7
X139.5Y-112.0
X160.5Y-112.0
X168.8Y-52.7
X243.0Y-52.7
X265.7Y-121.0
T2
G00X136.1Y-61.25
M15
G01X136.1Y-61.75
M16
G05
G00X140.3Y-52.75
M15
G01X140.3Y-53.25
M16
G05
G00X140.3Y-55.75
M15
G01X140.3Y-56.25
M16
G05
G00X140.3Y-59.75
M15
G01X140.3Y-60.25
M16
G05
G00X159.7Y-61.25
M15
G01X159.7Y-61.75
M16
G05
G00X163.9Y-52.75
M15
G01X163.9Y-53.25
M16
G05
G00X163.9Y-55.75
M15
G01X163.9Y-56.25
M16
G05
G00X163.9Y-59.75
M15
G01X163.9Y-60.25
M16
G05
M30
