G04 #@! TF.GenerationSoftware,KiCad,Pcbnew,9.0.5*
G04 #@! TF.CreationDate,2025-10-26T00:34:48+02:00*
G04 #@! TF.ProjectId,totem_0_3,746f7465-6d5f-4305-9f33-2e6b69636164,0.3*
G04 #@! TF.SameCoordinates,Original*
G04 #@! TF.FileFunction,Legend,Bot*
G04 #@! TF.FilePolarity,Positive*
%FSLAX46Y46*%
G04 Gerber Fmt 4.6, Leading zero omitted, Abs format (unit mm)*
G04 Created by KiCad (PCBNEW 9.0.5) date 2025-10-26 00:34:48*
%MOMM*%
%LPD*%
G01*
G04 APERTURE LIST*
G04 Aperture macros list*
%AMHorizOval*
0 Thick line with rounded ends*
0 $1 width*
0 $2 $3 position (X,Y) of the first rounded end (center of the circle)*
0 $4 $5 position (X,Y) of the second rounded end (center of the circle)*
0 Add line between two ends*
20,1,$1,$2,$3,$4,$5,0*
0 Add two circle primitives to create the rounded ends*
1,1,$1,$2,$3*
1,1,$1,$4,$5*%
G04 Aperture macros list end*
%ADD10C,0.100000*%
%ADD11C,0.110000*%
%ADD12C,0.150000*%
%ADD13C,0.000000*%
%ADD14C,2.500000*%
%ADD15C,0.375000*%
%ADD16C,1.050000*%
%ADD17HorizOval,1.200000X-0.150000X0.259808X0.150000X-0.259808X0*%
%ADD18C,1.200000*%
%ADD19C,1.300000*%
%ADD20HorizOval,1.200000X-0.077646X0.289778X0.077646X-0.289778X0*%
%ADD21O,1.200000X1.800000*%
%ADD22HorizOval,1.200000X-0.052094X-0.295442X0.052094X0.295442X0*%
%ADD23HorizOval,1.200000X-0.020927X-0.299269X0.020927X0.299269X0*%
%ADD24HorizOval,1.200000X-0.077646X-0.289778X0.077646X0.289778X0*%
%ADD25HorizOval,1.200000X-0.150000X-0.259808X0.150000X0.259808X0*%
%ADD26HorizOval,1.200000X-0.052094X0.295442X0.052094X-0.295442X0*%
%ADD27HorizOval,1.200000X-0.020927X0.299269X0.020927X-0.299269X0*%
%ADD28C,0.500000*%
%ADD29C,5.600000*%
%ADD30O,1.700000X2.500000*%
%ADD31O,1.800000X2.750000*%
%ADD32C,1.397000*%
%ADD33C,0.900000*%
%ADD34C,1.800000*%
%ADD35C,2.100000*%
G04 APERTURE END LIST*
D10*
X78202801Y-117241138D02*
X77898039Y-117241138D01*
X78088515Y-117774472D02*
X78088515Y-117088757D01*
X78088515Y-117088757D02*
X78050420Y-117012567D01*
X78050420Y-117012567D02*
X77974230Y-116974472D01*
X77974230Y-116974472D02*
X77898039Y-116974472D01*
X76717086Y-117736377D02*
X76793277Y-117774472D01*
X76793277Y-117774472D02*
X76945658Y-117774472D01*
X76945658Y-117774472D02*
X77021848Y-117736377D01*
X77021848Y-117736377D02*
X77059944Y-117660186D01*
X77059944Y-117660186D02*
X77059944Y-117355424D01*
X77059944Y-117355424D02*
X77021848Y-117279234D01*
X77021848Y-117279234D02*
X76945658Y-117241138D01*
X76945658Y-117241138D02*
X76793277Y-117241138D01*
X76793277Y-117241138D02*
X76717086Y-117279234D01*
X76717086Y-117279234D02*
X76678991Y-117355424D01*
X76678991Y-117355424D02*
X76678991Y-117431615D01*
X76678991Y-117431615D02*
X77059944Y-117507805D01*
X75383753Y-117774472D02*
X75383753Y-117355424D01*
X75383753Y-117355424D02*
X75421848Y-117279234D01*
X75421848Y-117279234D02*
X75498039Y-117241138D01*
X75498039Y-117241138D02*
X75650420Y-117241138D01*
X75650420Y-117241138D02*
X75726610Y-117279234D01*
X75383753Y-117736377D02*
X75459944Y-117774472D01*
X75459944Y-117774472D02*
X75650420Y-117774472D01*
X75650420Y-117774472D02*
X75726610Y-117736377D01*
X75726610Y-117736377D02*
X75764706Y-117660186D01*
X75764706Y-117660186D02*
X75764706Y-117583996D01*
X75764706Y-117583996D02*
X75726610Y-117507805D01*
X75726610Y-117507805D02*
X75650420Y-117469710D01*
X75650420Y-117469710D02*
X75459944Y-117469710D01*
X75459944Y-117469710D02*
X75383753Y-117431615D01*
X74507562Y-117241138D02*
X74202800Y-117241138D01*
X74393276Y-116974472D02*
X74393276Y-117660186D01*
X74393276Y-117660186D02*
X74355181Y-117736377D01*
X74355181Y-117736377D02*
X74278991Y-117774472D01*
X74278991Y-117774472D02*
X74202800Y-117774472D01*
X73326609Y-117698281D02*
X73288514Y-117736377D01*
X73288514Y-117736377D02*
X73326609Y-117774472D01*
X73326609Y-117774472D02*
X73364705Y-117736377D01*
X73364705Y-117736377D02*
X73326609Y-117698281D01*
X73326609Y-117698281D02*
X73326609Y-117774472D01*
X72336133Y-117774472D02*
X72336133Y-116974472D01*
X72336133Y-116974472D02*
X72069467Y-117545900D01*
X72069467Y-117545900D02*
X71802800Y-116974472D01*
X71802800Y-116974472D02*
X71802800Y-117774472D01*
X70469466Y-117774472D02*
X70469466Y-117355424D01*
X70469466Y-117355424D02*
X70507561Y-117279234D01*
X70507561Y-117279234D02*
X70583752Y-117241138D01*
X70583752Y-117241138D02*
X70736133Y-117241138D01*
X70736133Y-117241138D02*
X70812323Y-117279234D01*
X70469466Y-117736377D02*
X70545657Y-117774472D01*
X70545657Y-117774472D02*
X70736133Y-117774472D01*
X70736133Y-117774472D02*
X70812323Y-117736377D01*
X70812323Y-117736377D02*
X70850419Y-117660186D01*
X70850419Y-117660186D02*
X70850419Y-117583996D01*
X70850419Y-117583996D02*
X70812323Y-117507805D01*
X70812323Y-117507805D02*
X70736133Y-117469710D01*
X70736133Y-117469710D02*
X70545657Y-117469710D01*
X70545657Y-117469710D02*
X70469466Y-117431615D01*
X69478989Y-117774472D02*
X69478989Y-117241138D01*
X69478989Y-117393519D02*
X69440894Y-117317329D01*
X69440894Y-117317329D02*
X69402799Y-117279234D01*
X69402799Y-117279234D02*
X69326608Y-117241138D01*
X69326608Y-117241138D02*
X69250418Y-117241138D01*
X68488513Y-117241138D02*
X68183751Y-117241138D01*
X68374227Y-116974472D02*
X68374227Y-117660186D01*
X68374227Y-117660186D02*
X68336132Y-117736377D01*
X68336132Y-117736377D02*
X68259942Y-117774472D01*
X68259942Y-117774472D02*
X68183751Y-117774472D01*
X67307560Y-117774472D02*
X67307560Y-117241138D01*
X67307560Y-116974472D02*
X67345656Y-117012567D01*
X67345656Y-117012567D02*
X67307560Y-117050662D01*
X67307560Y-117050662D02*
X67269465Y-117012567D01*
X67269465Y-117012567D02*
X67307560Y-116974472D01*
X67307560Y-116974472D02*
X67307560Y-117050662D01*
X66317084Y-117241138D02*
X66317084Y-118041138D01*
X66317084Y-117279234D02*
X66240894Y-117241138D01*
X66240894Y-117241138D02*
X66088513Y-117241138D01*
X66088513Y-117241138D02*
X66012322Y-117279234D01*
X66012322Y-117279234D02*
X65974227Y-117317329D01*
X65974227Y-117317329D02*
X65936132Y-117393519D01*
X65936132Y-117393519D02*
X65936132Y-117622091D01*
X65936132Y-117622091D02*
X65974227Y-117698281D01*
X65974227Y-117698281D02*
X66012322Y-117736377D01*
X66012322Y-117736377D02*
X66088513Y-117774472D01*
X66088513Y-117774472D02*
X66240894Y-117774472D01*
X66240894Y-117774472D02*
X66317084Y-117736377D01*
X64983750Y-117774472D02*
X64983750Y-116974472D01*
X64640893Y-117774472D02*
X64640893Y-117355424D01*
X64640893Y-117355424D02*
X64678988Y-117279234D01*
X64678988Y-117279234D02*
X64755179Y-117241138D01*
X64755179Y-117241138D02*
X64869465Y-117241138D01*
X64869465Y-117241138D02*
X64945655Y-117279234D01*
X64945655Y-117279234D02*
X64983750Y-117317329D01*
X63345654Y-117736377D02*
X63421845Y-117774472D01*
X63421845Y-117774472D02*
X63574226Y-117774472D01*
X63574226Y-117774472D02*
X63650416Y-117736377D01*
X63650416Y-117736377D02*
X63688512Y-117660186D01*
X63688512Y-117660186D02*
X63688512Y-117355424D01*
X63688512Y-117355424D02*
X63650416Y-117279234D01*
X63650416Y-117279234D02*
X63574226Y-117241138D01*
X63574226Y-117241138D02*
X63421845Y-117241138D01*
X63421845Y-117241138D02*
X63345654Y-117279234D01*
X63345654Y-117279234D02*
X63307559Y-117355424D01*
X63307559Y-117355424D02*
X63307559Y-117431615D01*
X63307559Y-117431615D02*
X63688512Y-117507805D01*
X62355178Y-117774472D02*
X62355178Y-117241138D01*
X62355178Y-117393519D02*
X62317083Y-117317329D01*
X62317083Y-117317329D02*
X62278988Y-117279234D01*
X62278988Y-117279234D02*
X62202797Y-117241138D01*
X62202797Y-117241138D02*
X62126607Y-117241138D01*
D11*
X265103851Y-56084774D02*
X264818137Y-55884774D01*
X265103851Y-55741917D02*
X264503851Y-55741917D01*
X264503851Y-55741917D02*
X264503851Y-55970488D01*
X264503851Y-55970488D02*
X264532422Y-56027631D01*
X264532422Y-56027631D02*
X264560994Y-56056202D01*
X264560994Y-56056202D02*
X264618137Y-56084774D01*
X264618137Y-56084774D02*
X264703851Y-56084774D01*
X264703851Y-56084774D02*
X264760994Y-56056202D01*
X264760994Y-56056202D02*
X264789565Y-56027631D01*
X264789565Y-56027631D02*
X264818137Y-55970488D01*
X264818137Y-55970488D02*
X264818137Y-55741917D01*
X265075280Y-56313345D02*
X265103851Y-56399060D01*
X265103851Y-56399060D02*
X265103851Y-56541917D01*
X265103851Y-56541917D02*
X265075280Y-56599060D01*
X265075280Y-56599060D02*
X265046708Y-56627631D01*
X265046708Y-56627631D02*
X264989565Y-56656202D01*
X264989565Y-56656202D02*
X264932422Y-56656202D01*
X264932422Y-56656202D02*
X264875280Y-56627631D01*
X264875280Y-56627631D02*
X264846708Y-56599060D01*
X264846708Y-56599060D02*
X264818137Y-56541917D01*
X264818137Y-56541917D02*
X264789565Y-56427631D01*
X264789565Y-56427631D02*
X264760994Y-56370488D01*
X264760994Y-56370488D02*
X264732422Y-56341917D01*
X264732422Y-56341917D02*
X264675280Y-56313345D01*
X264675280Y-56313345D02*
X264618137Y-56313345D01*
X264618137Y-56313345D02*
X264560994Y-56341917D01*
X264560994Y-56341917D02*
X264532422Y-56370488D01*
X264532422Y-56370488D02*
X264503851Y-56427631D01*
X264503851Y-56427631D02*
X264503851Y-56570488D01*
X264503851Y-56570488D02*
X264532422Y-56656202D01*
X264503851Y-56827631D02*
X264503851Y-57170489D01*
X265103851Y-56999060D02*
X264503851Y-56999060D01*
X258126434Y-56954774D02*
X258097862Y-56869060D01*
X258097862Y-56869060D02*
X258069291Y-56840489D01*
X258069291Y-56840489D02*
X258012148Y-56811917D01*
X258012148Y-56811917D02*
X257926434Y-56811917D01*
X257926434Y-56811917D02*
X257869291Y-56840489D01*
X257869291Y-56840489D02*
X257840720Y-56869060D01*
X257840720Y-56869060D02*
X257812148Y-56926203D01*
X257812148Y-56926203D02*
X257812148Y-57154774D01*
X257812148Y-57154774D02*
X258412148Y-57154774D01*
X258412148Y-57154774D02*
X258412148Y-56954774D01*
X258412148Y-56954774D02*
X258383577Y-56897632D01*
X258383577Y-56897632D02*
X258355005Y-56869060D01*
X258355005Y-56869060D02*
X258297862Y-56840489D01*
X258297862Y-56840489D02*
X258240720Y-56840489D01*
X258240720Y-56840489D02*
X258183577Y-56869060D01*
X258183577Y-56869060D02*
X258155005Y-56897632D01*
X258155005Y-56897632D02*
X258126434Y-56954774D01*
X258126434Y-56954774D02*
X258126434Y-57154774D01*
X258412148Y-56640489D02*
X258412148Y-56297632D01*
X257812148Y-56469060D02*
X258412148Y-56469060D01*
X258040720Y-56097631D02*
X258040720Y-55640489D01*
X257812148Y-55869060D02*
X258269291Y-55869060D01*
X43585291Y-65381917D02*
X43556720Y-65410489D01*
X43556720Y-65410489D02*
X43528148Y-65496203D01*
X43528148Y-65496203D02*
X43528148Y-65553346D01*
X43528148Y-65553346D02*
X43556720Y-65639060D01*
X43556720Y-65639060D02*
X43613862Y-65696203D01*
X43613862Y-65696203D02*
X43671005Y-65724774D01*
X43671005Y-65724774D02*
X43785291Y-65753346D01*
X43785291Y-65753346D02*
X43871005Y-65753346D01*
X43871005Y-65753346D02*
X43985291Y-65724774D01*
X43985291Y-65724774D02*
X44042434Y-65696203D01*
X44042434Y-65696203D02*
X44099577Y-65639060D01*
X44099577Y-65639060D02*
X44128148Y-65553346D01*
X44128148Y-65553346D02*
X44128148Y-65496203D01*
X44128148Y-65496203D02*
X44099577Y-65410489D01*
X44099577Y-65410489D02*
X44071005Y-65381917D01*
X44128148Y-65010489D02*
X44128148Y-64953346D01*
X44128148Y-64953346D02*
X44099577Y-64896203D01*
X44099577Y-64896203D02*
X44071005Y-64867632D01*
X44071005Y-64867632D02*
X44013862Y-64839060D01*
X44013862Y-64839060D02*
X43899577Y-64810489D01*
X43899577Y-64810489D02*
X43756720Y-64810489D01*
X43756720Y-64810489D02*
X43642434Y-64839060D01*
X43642434Y-64839060D02*
X43585291Y-64867632D01*
X43585291Y-64867632D02*
X43556720Y-64896203D01*
X43556720Y-64896203D02*
X43528148Y-64953346D01*
X43528148Y-64953346D02*
X43528148Y-65010489D01*
X43528148Y-65010489D02*
X43556720Y-65067632D01*
X43556720Y-65067632D02*
X43585291Y-65096203D01*
X43585291Y-65096203D02*
X43642434Y-65124774D01*
X43642434Y-65124774D02*
X43756720Y-65153346D01*
X43756720Y-65153346D02*
X43899577Y-65153346D01*
X43899577Y-65153346D02*
X44013862Y-65124774D01*
X44013862Y-65124774D02*
X44071005Y-65096203D01*
X44071005Y-65096203D02*
X44099577Y-65067632D01*
X44099577Y-65067632D02*
X44128148Y-65010489D01*
X256514708Y-65131917D02*
X256543280Y-65103345D01*
X256543280Y-65103345D02*
X256571851Y-65017631D01*
X256571851Y-65017631D02*
X256571851Y-64960488D01*
X256571851Y-64960488D02*
X256543280Y-64874774D01*
X256543280Y-64874774D02*
X256486137Y-64817631D01*
X256486137Y-64817631D02*
X256428994Y-64789060D01*
X256428994Y-64789060D02*
X256314708Y-64760488D01*
X256314708Y-64760488D02*
X256228994Y-64760488D01*
X256228994Y-64760488D02*
X256114708Y-64789060D01*
X256114708Y-64789060D02*
X256057565Y-64817631D01*
X256057565Y-64817631D02*
X256000422Y-64874774D01*
X256000422Y-64874774D02*
X255971851Y-64960488D01*
X255971851Y-64960488D02*
X255971851Y-65017631D01*
X255971851Y-65017631D02*
X256000422Y-65103345D01*
X256000422Y-65103345D02*
X256028994Y-65131917D01*
X255971851Y-65331917D02*
X255971851Y-65703345D01*
X255971851Y-65703345D02*
X256200422Y-65503345D01*
X256200422Y-65503345D02*
X256200422Y-65589060D01*
X256200422Y-65589060D02*
X256228994Y-65646203D01*
X256228994Y-65646203D02*
X256257565Y-65674774D01*
X256257565Y-65674774D02*
X256314708Y-65703345D01*
X256314708Y-65703345D02*
X256457565Y-65703345D01*
X256457565Y-65703345D02*
X256514708Y-65674774D01*
X256514708Y-65674774D02*
X256543280Y-65646203D01*
X256543280Y-65646203D02*
X256571851Y-65589060D01*
X256571851Y-65589060D02*
X256571851Y-65417631D01*
X256571851Y-65417631D02*
X256543280Y-65360488D01*
X256543280Y-65360488D02*
X256514708Y-65331917D01*
X259081851Y-53738082D02*
X258796137Y-53538082D01*
X259081851Y-53395225D02*
X258481851Y-53395225D01*
X258481851Y-53395225D02*
X258481851Y-53623796D01*
X258481851Y-53623796D02*
X258510422Y-53680939D01*
X258510422Y-53680939D02*
X258538994Y-53709510D01*
X258538994Y-53709510D02*
X258596137Y-53738082D01*
X258596137Y-53738082D02*
X258681851Y-53738082D01*
X258681851Y-53738082D02*
X258738994Y-53709510D01*
X258738994Y-53709510D02*
X258767565Y-53680939D01*
X258767565Y-53680939D02*
X258796137Y-53623796D01*
X258796137Y-53623796D02*
X258796137Y-53395225D01*
X258481851Y-53938082D02*
X258481851Y-54309510D01*
X258481851Y-54309510D02*
X258710422Y-54109510D01*
X258710422Y-54109510D02*
X258710422Y-54195225D01*
X258710422Y-54195225D02*
X258738994Y-54252368D01*
X258738994Y-54252368D02*
X258767565Y-54280939D01*
X258767565Y-54280939D02*
X258824708Y-54309510D01*
X258824708Y-54309510D02*
X258967565Y-54309510D01*
X258967565Y-54309510D02*
X259024708Y-54280939D01*
X259024708Y-54280939D02*
X259053280Y-54252368D01*
X259053280Y-54252368D02*
X259081851Y-54195225D01*
X259081851Y-54195225D02*
X259081851Y-54023796D01*
X259081851Y-54023796D02*
X259053280Y-53966653D01*
X259053280Y-53966653D02*
X259024708Y-53938082D01*
X38448148Y-65381917D02*
X38733862Y-65581917D01*
X38448148Y-65724774D02*
X39048148Y-65724774D01*
X39048148Y-65724774D02*
X39048148Y-65496203D01*
X39048148Y-65496203D02*
X39019577Y-65439060D01*
X39019577Y-65439060D02*
X38991005Y-65410489D01*
X38991005Y-65410489D02*
X38933862Y-65381917D01*
X38933862Y-65381917D02*
X38848148Y-65381917D01*
X38848148Y-65381917D02*
X38791005Y-65410489D01*
X38791005Y-65410489D02*
X38762434Y-65439060D01*
X38762434Y-65439060D02*
X38733862Y-65496203D01*
X38733862Y-65496203D02*
X38733862Y-65724774D01*
X38991005Y-65153346D02*
X39019577Y-65124774D01*
X39019577Y-65124774D02*
X39048148Y-65067632D01*
X39048148Y-65067632D02*
X39048148Y-64924774D01*
X39048148Y-64924774D02*
X39019577Y-64867632D01*
X39019577Y-64867632D02*
X38991005Y-64839060D01*
X38991005Y-64839060D02*
X38933862Y-64810489D01*
X38933862Y-64810489D02*
X38876720Y-64810489D01*
X38876720Y-64810489D02*
X38791005Y-64839060D01*
X38791005Y-64839060D02*
X38448148Y-65181917D01*
X38448148Y-65181917D02*
X38448148Y-64810489D01*
X253974708Y-65131917D02*
X254003280Y-65103345D01*
X254003280Y-65103345D02*
X254031851Y-65017631D01*
X254031851Y-65017631D02*
X254031851Y-64960488D01*
X254031851Y-64960488D02*
X254003280Y-64874774D01*
X254003280Y-64874774D02*
X253946137Y-64817631D01*
X253946137Y-64817631D02*
X253888994Y-64789060D01*
X253888994Y-64789060D02*
X253774708Y-64760488D01*
X253774708Y-64760488D02*
X253688994Y-64760488D01*
X253688994Y-64760488D02*
X253574708Y-64789060D01*
X253574708Y-64789060D02*
X253517565Y-64817631D01*
X253517565Y-64817631D02*
X253460422Y-64874774D01*
X253460422Y-64874774D02*
X253431851Y-64960488D01*
X253431851Y-64960488D02*
X253431851Y-65017631D01*
X253431851Y-65017631D02*
X253460422Y-65103345D01*
X253460422Y-65103345D02*
X253488994Y-65131917D01*
X253631851Y-65646203D02*
X254031851Y-65646203D01*
X253403280Y-65503345D02*
X253831851Y-65360488D01*
X253831851Y-65360488D02*
X253831851Y-65731917D01*
X262045434Y-56962774D02*
X262016862Y-56877060D01*
X262016862Y-56877060D02*
X261988291Y-56848489D01*
X261988291Y-56848489D02*
X261931148Y-56819917D01*
X261931148Y-56819917D02*
X261845434Y-56819917D01*
X261845434Y-56819917D02*
X261788291Y-56848489D01*
X261788291Y-56848489D02*
X261759720Y-56877060D01*
X261759720Y-56877060D02*
X261731148Y-56934203D01*
X261731148Y-56934203D02*
X261731148Y-57162774D01*
X261731148Y-57162774D02*
X262331148Y-57162774D01*
X262331148Y-57162774D02*
X262331148Y-56962774D01*
X262331148Y-56962774D02*
X262302577Y-56905632D01*
X262302577Y-56905632D02*
X262274005Y-56877060D01*
X262274005Y-56877060D02*
X262216862Y-56848489D01*
X262216862Y-56848489D02*
X262159720Y-56848489D01*
X262159720Y-56848489D02*
X262102577Y-56877060D01*
X262102577Y-56877060D02*
X262074005Y-56905632D01*
X262074005Y-56905632D02*
X262045434Y-56962774D01*
X262045434Y-56962774D02*
X262045434Y-57162774D01*
X262331148Y-56648489D02*
X262331148Y-56305632D01*
X261731148Y-56477060D02*
X262331148Y-56477060D01*
X261959720Y-56105631D02*
X261959720Y-55648489D01*
X256484708Y-53738082D02*
X256513280Y-53709510D01*
X256513280Y-53709510D02*
X256541851Y-53623796D01*
X256541851Y-53623796D02*
X256541851Y-53566653D01*
X256541851Y-53566653D02*
X256513280Y-53480939D01*
X256513280Y-53480939D02*
X256456137Y-53423796D01*
X256456137Y-53423796D02*
X256398994Y-53395225D01*
X256398994Y-53395225D02*
X256284708Y-53366653D01*
X256284708Y-53366653D02*
X256198994Y-53366653D01*
X256198994Y-53366653D02*
X256084708Y-53395225D01*
X256084708Y-53395225D02*
X256027565Y-53423796D01*
X256027565Y-53423796D02*
X255970422Y-53480939D01*
X255970422Y-53480939D02*
X255941851Y-53566653D01*
X255941851Y-53566653D02*
X255941851Y-53623796D01*
X255941851Y-53623796D02*
X255970422Y-53709510D01*
X255970422Y-53709510D02*
X255998994Y-53738082D01*
X255941851Y-54109510D02*
X255941851Y-54166653D01*
X255941851Y-54166653D02*
X255970422Y-54223796D01*
X255970422Y-54223796D02*
X255998994Y-54252368D01*
X255998994Y-54252368D02*
X256056137Y-54280939D01*
X256056137Y-54280939D02*
X256170422Y-54309510D01*
X256170422Y-54309510D02*
X256313280Y-54309510D01*
X256313280Y-54309510D02*
X256427565Y-54280939D01*
X256427565Y-54280939D02*
X256484708Y-54252368D01*
X256484708Y-54252368D02*
X256513280Y-54223796D01*
X256513280Y-54223796D02*
X256541851Y-54166653D01*
X256541851Y-54166653D02*
X256541851Y-54109510D01*
X256541851Y-54109510D02*
X256513280Y-54052368D01*
X256513280Y-54052368D02*
X256484708Y-54023796D01*
X256484708Y-54023796D02*
X256427565Y-53995225D01*
X256427565Y-53995225D02*
X256313280Y-53966653D01*
X256313280Y-53966653D02*
X256170422Y-53966653D01*
X256170422Y-53966653D02*
X256056137Y-53995225D01*
X256056137Y-53995225D02*
X255998994Y-54023796D01*
X255998994Y-54023796D02*
X255970422Y-54052368D01*
X255970422Y-54052368D02*
X255941851Y-54109510D01*
X33368148Y-65381917D02*
X33653862Y-65581917D01*
X33368148Y-65724774D02*
X33968148Y-65724774D01*
X33968148Y-65724774D02*
X33968148Y-65496203D01*
X33968148Y-65496203D02*
X33939577Y-65439060D01*
X33939577Y-65439060D02*
X33911005Y-65410489D01*
X33911005Y-65410489D02*
X33853862Y-65381917D01*
X33853862Y-65381917D02*
X33768148Y-65381917D01*
X33768148Y-65381917D02*
X33711005Y-65410489D01*
X33711005Y-65410489D02*
X33682434Y-65439060D01*
X33682434Y-65439060D02*
X33653862Y-65496203D01*
X33653862Y-65496203D02*
X33653862Y-65724774D01*
X33968148Y-65010489D02*
X33968148Y-64953346D01*
X33968148Y-64953346D02*
X33939577Y-64896203D01*
X33939577Y-64896203D02*
X33911005Y-64867632D01*
X33911005Y-64867632D02*
X33853862Y-64839060D01*
X33853862Y-64839060D02*
X33739577Y-64810489D01*
X33739577Y-64810489D02*
X33596720Y-64810489D01*
X33596720Y-64810489D02*
X33482434Y-64839060D01*
X33482434Y-64839060D02*
X33425291Y-64867632D01*
X33425291Y-64867632D02*
X33396720Y-64896203D01*
X33396720Y-64896203D02*
X33368148Y-64953346D01*
X33368148Y-64953346D02*
X33368148Y-65010489D01*
X33368148Y-65010489D02*
X33396720Y-65067632D01*
X33396720Y-65067632D02*
X33425291Y-65096203D01*
X33425291Y-65096203D02*
X33482434Y-65124774D01*
X33482434Y-65124774D02*
X33596720Y-65153346D01*
X33596720Y-65153346D02*
X33739577Y-65153346D01*
X33739577Y-65153346D02*
X33853862Y-65124774D01*
X33853862Y-65124774D02*
X33911005Y-65096203D01*
X33911005Y-65096203D02*
X33939577Y-65067632D01*
X33939577Y-65067632D02*
X33968148Y-65010489D01*
X41952565Y-62295225D02*
X41981137Y-62380939D01*
X41981137Y-62380939D02*
X42009708Y-62409510D01*
X42009708Y-62409510D02*
X42066851Y-62438082D01*
X42066851Y-62438082D02*
X42152565Y-62438082D01*
X42152565Y-62438082D02*
X42209708Y-62409510D01*
X42209708Y-62409510D02*
X42238280Y-62380939D01*
X42238280Y-62380939D02*
X42266851Y-62323796D01*
X42266851Y-62323796D02*
X42266851Y-62095225D01*
X42266851Y-62095225D02*
X41666851Y-62095225D01*
X41666851Y-62095225D02*
X41666851Y-62295225D01*
X41666851Y-62295225D02*
X41695422Y-62352368D01*
X41695422Y-62352368D02*
X41723994Y-62380939D01*
X41723994Y-62380939D02*
X41781137Y-62409510D01*
X41781137Y-62409510D02*
X41838280Y-62409510D01*
X41838280Y-62409510D02*
X41895422Y-62380939D01*
X41895422Y-62380939D02*
X41923994Y-62352368D01*
X41923994Y-62352368D02*
X41952565Y-62295225D01*
X41952565Y-62295225D02*
X41952565Y-62095225D01*
X41666851Y-62609510D02*
X41666851Y-62952368D01*
X42266851Y-62780939D02*
X41666851Y-62780939D01*
X42038280Y-63152368D02*
X42038280Y-63609511D01*
X42266851Y-63380939D02*
X41809708Y-63380939D01*
X263620422Y-64446203D02*
X263591851Y-64389061D01*
X263591851Y-64389061D02*
X263591851Y-64303346D01*
X263591851Y-64303346D02*
X263620422Y-64217632D01*
X263620422Y-64217632D02*
X263677565Y-64160489D01*
X263677565Y-64160489D02*
X263734708Y-64131918D01*
X263734708Y-64131918D02*
X263848994Y-64103346D01*
X263848994Y-64103346D02*
X263934708Y-64103346D01*
X263934708Y-64103346D02*
X264048994Y-64131918D01*
X264048994Y-64131918D02*
X264106137Y-64160489D01*
X264106137Y-64160489D02*
X264163280Y-64217632D01*
X264163280Y-64217632D02*
X264191851Y-64303346D01*
X264191851Y-64303346D02*
X264191851Y-64360489D01*
X264191851Y-64360489D02*
X264163280Y-64446203D01*
X264163280Y-64446203D02*
X264134708Y-64474775D01*
X264134708Y-64474775D02*
X263934708Y-64474775D01*
X263934708Y-64474775D02*
X263934708Y-64360489D01*
X264191851Y-64731918D02*
X263591851Y-64731918D01*
X263591851Y-64731918D02*
X264191851Y-65074775D01*
X264191851Y-65074775D02*
X263591851Y-65074775D01*
X264191851Y-65360489D02*
X263591851Y-65360489D01*
X263591851Y-65360489D02*
X263591851Y-65503346D01*
X263591851Y-65503346D02*
X263620422Y-65589060D01*
X263620422Y-65589060D02*
X263677565Y-65646203D01*
X263677565Y-65646203D02*
X263734708Y-65674774D01*
X263734708Y-65674774D02*
X263848994Y-65703346D01*
X263848994Y-65703346D02*
X263934708Y-65703346D01*
X263934708Y-65703346D02*
X264048994Y-65674774D01*
X264048994Y-65674774D02*
X264106137Y-65646203D01*
X264106137Y-65646203D02*
X264163280Y-65589060D01*
X264163280Y-65589060D02*
X264191851Y-65503346D01*
X264191851Y-65503346D02*
X264191851Y-65360489D01*
X46095291Y-53988082D02*
X46066720Y-54016654D01*
X46066720Y-54016654D02*
X46038148Y-54102368D01*
X46038148Y-54102368D02*
X46038148Y-54159511D01*
X46038148Y-54159511D02*
X46066720Y-54245225D01*
X46066720Y-54245225D02*
X46123862Y-54302368D01*
X46123862Y-54302368D02*
X46181005Y-54330939D01*
X46181005Y-54330939D02*
X46295291Y-54359511D01*
X46295291Y-54359511D02*
X46381005Y-54359511D01*
X46381005Y-54359511D02*
X46495291Y-54330939D01*
X46495291Y-54330939D02*
X46552434Y-54302368D01*
X46552434Y-54302368D02*
X46609577Y-54245225D01*
X46609577Y-54245225D02*
X46638148Y-54159511D01*
X46638148Y-54159511D02*
X46638148Y-54102368D01*
X46638148Y-54102368D02*
X46609577Y-54016654D01*
X46609577Y-54016654D02*
X46581005Y-53988082D01*
X46438148Y-53473797D02*
X46038148Y-53473797D01*
X46666720Y-53616654D02*
X46238148Y-53759511D01*
X46238148Y-53759511D02*
X46238148Y-53388082D01*
X266701851Y-53738082D02*
X266416137Y-53538082D01*
X266701851Y-53395225D02*
X266101851Y-53395225D01*
X266101851Y-53395225D02*
X266101851Y-53623796D01*
X266101851Y-53623796D02*
X266130422Y-53680939D01*
X266130422Y-53680939D02*
X266158994Y-53709510D01*
X266158994Y-53709510D02*
X266216137Y-53738082D01*
X266216137Y-53738082D02*
X266301851Y-53738082D01*
X266301851Y-53738082D02*
X266358994Y-53709510D01*
X266358994Y-53709510D02*
X266387565Y-53680939D01*
X266387565Y-53680939D02*
X266416137Y-53623796D01*
X266416137Y-53623796D02*
X266416137Y-53395225D01*
X266101851Y-54109510D02*
X266101851Y-54166653D01*
X266101851Y-54166653D02*
X266130422Y-54223796D01*
X266130422Y-54223796D02*
X266158994Y-54252368D01*
X266158994Y-54252368D02*
X266216137Y-54280939D01*
X266216137Y-54280939D02*
X266330422Y-54309510D01*
X266330422Y-54309510D02*
X266473280Y-54309510D01*
X266473280Y-54309510D02*
X266587565Y-54280939D01*
X266587565Y-54280939D02*
X266644708Y-54252368D01*
X266644708Y-54252368D02*
X266673280Y-54223796D01*
X266673280Y-54223796D02*
X266701851Y-54166653D01*
X266701851Y-54166653D02*
X266701851Y-54109510D01*
X266701851Y-54109510D02*
X266673280Y-54052368D01*
X266673280Y-54052368D02*
X266644708Y-54023796D01*
X266644708Y-54023796D02*
X266587565Y-53995225D01*
X266587565Y-53995225D02*
X266473280Y-53966653D01*
X266473280Y-53966653D02*
X266330422Y-53966653D01*
X266330422Y-53966653D02*
X266216137Y-53995225D01*
X266216137Y-53995225D02*
X266158994Y-54023796D01*
X266158994Y-54023796D02*
X266130422Y-54052368D01*
X266130422Y-54052368D02*
X266101851Y-54109510D01*
X259054708Y-65131917D02*
X259083280Y-65103345D01*
X259083280Y-65103345D02*
X259111851Y-65017631D01*
X259111851Y-65017631D02*
X259111851Y-64960488D01*
X259111851Y-64960488D02*
X259083280Y-64874774D01*
X259083280Y-64874774D02*
X259026137Y-64817631D01*
X259026137Y-64817631D02*
X258968994Y-64789060D01*
X258968994Y-64789060D02*
X258854708Y-64760488D01*
X258854708Y-64760488D02*
X258768994Y-64760488D01*
X258768994Y-64760488D02*
X258654708Y-64789060D01*
X258654708Y-64789060D02*
X258597565Y-64817631D01*
X258597565Y-64817631D02*
X258540422Y-64874774D01*
X258540422Y-64874774D02*
X258511851Y-64960488D01*
X258511851Y-64960488D02*
X258511851Y-65017631D01*
X258511851Y-65017631D02*
X258540422Y-65103345D01*
X258540422Y-65103345D02*
X258568994Y-65131917D01*
X258568994Y-65360488D02*
X258540422Y-65389060D01*
X258540422Y-65389060D02*
X258511851Y-65446203D01*
X258511851Y-65446203D02*
X258511851Y-65589060D01*
X258511851Y-65589060D02*
X258540422Y-65646203D01*
X258540422Y-65646203D02*
X258568994Y-65674774D01*
X258568994Y-65674774D02*
X258626137Y-65703345D01*
X258626137Y-65703345D02*
X258683280Y-65703345D01*
X258683280Y-65703345D02*
X258768994Y-65674774D01*
X258768994Y-65674774D02*
X259111851Y-65331917D01*
X259111851Y-65331917D02*
X259111851Y-65703345D01*
X261051851Y-64160488D02*
X261651851Y-64360488D01*
X261651851Y-64360488D02*
X261051851Y-64560488D01*
X261594708Y-65103346D02*
X261623280Y-65074774D01*
X261623280Y-65074774D02*
X261651851Y-64989060D01*
X261651851Y-64989060D02*
X261651851Y-64931917D01*
X261651851Y-64931917D02*
X261623280Y-64846203D01*
X261623280Y-64846203D02*
X261566137Y-64789060D01*
X261566137Y-64789060D02*
X261508994Y-64760489D01*
X261508994Y-64760489D02*
X261394708Y-64731917D01*
X261394708Y-64731917D02*
X261308994Y-64731917D01*
X261308994Y-64731917D02*
X261194708Y-64760489D01*
X261194708Y-64760489D02*
X261137565Y-64789060D01*
X261137565Y-64789060D02*
X261080422Y-64846203D01*
X261080422Y-64846203D02*
X261051851Y-64931917D01*
X261051851Y-64931917D02*
X261051851Y-64989060D01*
X261051851Y-64989060D02*
X261080422Y-65074774D01*
X261080422Y-65074774D02*
X261108994Y-65103346D01*
X261594708Y-65703346D02*
X261623280Y-65674774D01*
X261623280Y-65674774D02*
X261651851Y-65589060D01*
X261651851Y-65589060D02*
X261651851Y-65531917D01*
X261651851Y-65531917D02*
X261623280Y-65446203D01*
X261623280Y-65446203D02*
X261566137Y-65389060D01*
X261566137Y-65389060D02*
X261508994Y-65360489D01*
X261508994Y-65360489D02*
X261394708Y-65331917D01*
X261394708Y-65331917D02*
X261308994Y-65331917D01*
X261308994Y-65331917D02*
X261194708Y-65360489D01*
X261194708Y-65360489D02*
X261137565Y-65389060D01*
X261137565Y-65389060D02*
X261080422Y-65446203D01*
X261080422Y-65446203D02*
X261051851Y-65531917D01*
X261051851Y-65531917D02*
X261051851Y-65589060D01*
X261051851Y-65589060D02*
X261080422Y-65674774D01*
X261080422Y-65674774D02*
X261108994Y-65703346D01*
X34896148Y-63035225D02*
X35181862Y-63235225D01*
X34896148Y-63378082D02*
X35496148Y-63378082D01*
X35496148Y-63378082D02*
X35496148Y-63149511D01*
X35496148Y-63149511D02*
X35467577Y-63092368D01*
X35467577Y-63092368D02*
X35439005Y-63063797D01*
X35439005Y-63063797D02*
X35381862Y-63035225D01*
X35381862Y-63035225D02*
X35296148Y-63035225D01*
X35296148Y-63035225D02*
X35239005Y-63063797D01*
X35239005Y-63063797D02*
X35210434Y-63092368D01*
X35210434Y-63092368D02*
X35181862Y-63149511D01*
X35181862Y-63149511D02*
X35181862Y-63378082D01*
X34924720Y-62806654D02*
X34896148Y-62720940D01*
X34896148Y-62720940D02*
X34896148Y-62578082D01*
X34896148Y-62578082D02*
X34924720Y-62520940D01*
X34924720Y-62520940D02*
X34953291Y-62492368D01*
X34953291Y-62492368D02*
X35010434Y-62463797D01*
X35010434Y-62463797D02*
X35067577Y-62463797D01*
X35067577Y-62463797D02*
X35124720Y-62492368D01*
X35124720Y-62492368D02*
X35153291Y-62520940D01*
X35153291Y-62520940D02*
X35181862Y-62578082D01*
X35181862Y-62578082D02*
X35210434Y-62692368D01*
X35210434Y-62692368D02*
X35239005Y-62749511D01*
X35239005Y-62749511D02*
X35267577Y-62778082D01*
X35267577Y-62778082D02*
X35324720Y-62806654D01*
X35324720Y-62806654D02*
X35381862Y-62806654D01*
X35381862Y-62806654D02*
X35439005Y-62778082D01*
X35439005Y-62778082D02*
X35467577Y-62749511D01*
X35467577Y-62749511D02*
X35496148Y-62692368D01*
X35496148Y-62692368D02*
X35496148Y-62549511D01*
X35496148Y-62549511D02*
X35467577Y-62463797D01*
X35496148Y-62292368D02*
X35496148Y-61949511D01*
X34896148Y-62120939D02*
X35496148Y-62120939D01*
X48578148Y-53988082D02*
X48863862Y-54188082D01*
X48578148Y-54330939D02*
X49178148Y-54330939D01*
X49178148Y-54330939D02*
X49178148Y-54102368D01*
X49178148Y-54102368D02*
X49149577Y-54045225D01*
X49149577Y-54045225D02*
X49121005Y-54016654D01*
X49121005Y-54016654D02*
X49063862Y-53988082D01*
X49063862Y-53988082D02*
X48978148Y-53988082D01*
X48978148Y-53988082D02*
X48921005Y-54016654D01*
X48921005Y-54016654D02*
X48892434Y-54045225D01*
X48892434Y-54045225D02*
X48863862Y-54102368D01*
X48863862Y-54102368D02*
X48863862Y-54330939D01*
X49178148Y-53788082D02*
X48578148Y-53388082D01*
X49178148Y-53388082D02*
X48578148Y-53788082D01*
X39018148Y-54959511D02*
X38418148Y-54759511D01*
X38418148Y-54759511D02*
X39018148Y-54559511D01*
X38475291Y-54016653D02*
X38446720Y-54045225D01*
X38446720Y-54045225D02*
X38418148Y-54130939D01*
X38418148Y-54130939D02*
X38418148Y-54188082D01*
X38418148Y-54188082D02*
X38446720Y-54273796D01*
X38446720Y-54273796D02*
X38503862Y-54330939D01*
X38503862Y-54330939D02*
X38561005Y-54359510D01*
X38561005Y-54359510D02*
X38675291Y-54388082D01*
X38675291Y-54388082D02*
X38761005Y-54388082D01*
X38761005Y-54388082D02*
X38875291Y-54359510D01*
X38875291Y-54359510D02*
X38932434Y-54330939D01*
X38932434Y-54330939D02*
X38989577Y-54273796D01*
X38989577Y-54273796D02*
X39018148Y-54188082D01*
X39018148Y-54188082D02*
X39018148Y-54130939D01*
X39018148Y-54130939D02*
X38989577Y-54045225D01*
X38989577Y-54045225D02*
X38961005Y-54016653D01*
X38475291Y-53416653D02*
X38446720Y-53445225D01*
X38446720Y-53445225D02*
X38418148Y-53530939D01*
X38418148Y-53530939D02*
X38418148Y-53588082D01*
X38418148Y-53588082D02*
X38446720Y-53673796D01*
X38446720Y-53673796D02*
X38503862Y-53730939D01*
X38503862Y-53730939D02*
X38561005Y-53759510D01*
X38561005Y-53759510D02*
X38675291Y-53788082D01*
X38675291Y-53788082D02*
X38761005Y-53788082D01*
X38761005Y-53788082D02*
X38875291Y-53759510D01*
X38875291Y-53759510D02*
X38932434Y-53730939D01*
X38932434Y-53730939D02*
X38989577Y-53673796D01*
X38989577Y-53673796D02*
X39018148Y-53588082D01*
X39018148Y-53588082D02*
X39018148Y-53530939D01*
X39018148Y-53530939D02*
X38989577Y-53445225D01*
X38989577Y-53445225D02*
X38961005Y-53416653D01*
X41015291Y-53988082D02*
X40986720Y-54016654D01*
X40986720Y-54016654D02*
X40958148Y-54102368D01*
X40958148Y-54102368D02*
X40958148Y-54159511D01*
X40958148Y-54159511D02*
X40986720Y-54245225D01*
X40986720Y-54245225D02*
X41043862Y-54302368D01*
X41043862Y-54302368D02*
X41101005Y-54330939D01*
X41101005Y-54330939D02*
X41215291Y-54359511D01*
X41215291Y-54359511D02*
X41301005Y-54359511D01*
X41301005Y-54359511D02*
X41415291Y-54330939D01*
X41415291Y-54330939D02*
X41472434Y-54302368D01*
X41472434Y-54302368D02*
X41529577Y-54245225D01*
X41529577Y-54245225D02*
X41558148Y-54159511D01*
X41558148Y-54159511D02*
X41558148Y-54102368D01*
X41558148Y-54102368D02*
X41529577Y-54016654D01*
X41529577Y-54016654D02*
X41501005Y-53988082D01*
X41501005Y-53759511D02*
X41529577Y-53730939D01*
X41529577Y-53730939D02*
X41558148Y-53673797D01*
X41558148Y-53673797D02*
X41558148Y-53530939D01*
X41558148Y-53530939D02*
X41529577Y-53473797D01*
X41529577Y-53473797D02*
X41501005Y-53445225D01*
X41501005Y-53445225D02*
X41443862Y-53416654D01*
X41443862Y-53416654D02*
X41386720Y-53416654D01*
X41386720Y-53416654D02*
X41301005Y-53445225D01*
X41301005Y-53445225D02*
X40958148Y-53788082D01*
X40958148Y-53788082D02*
X40958148Y-53416654D01*
X36449577Y-54673796D02*
X36478148Y-54730939D01*
X36478148Y-54730939D02*
X36478148Y-54816653D01*
X36478148Y-54816653D02*
X36449577Y-54902367D01*
X36449577Y-54902367D02*
X36392434Y-54959510D01*
X36392434Y-54959510D02*
X36335291Y-54988081D01*
X36335291Y-54988081D02*
X36221005Y-55016653D01*
X36221005Y-55016653D02*
X36135291Y-55016653D01*
X36135291Y-55016653D02*
X36021005Y-54988081D01*
X36021005Y-54988081D02*
X35963862Y-54959510D01*
X35963862Y-54959510D02*
X35906720Y-54902367D01*
X35906720Y-54902367D02*
X35878148Y-54816653D01*
X35878148Y-54816653D02*
X35878148Y-54759510D01*
X35878148Y-54759510D02*
X35906720Y-54673796D01*
X35906720Y-54673796D02*
X35935291Y-54645224D01*
X35935291Y-54645224D02*
X36135291Y-54645224D01*
X36135291Y-54645224D02*
X36135291Y-54759510D01*
X35878148Y-54388081D02*
X36478148Y-54388081D01*
X36478148Y-54388081D02*
X35878148Y-54045224D01*
X35878148Y-54045224D02*
X36478148Y-54045224D01*
X35878148Y-53759510D02*
X36478148Y-53759510D01*
X36478148Y-53759510D02*
X36478148Y-53616653D01*
X36478148Y-53616653D02*
X36449577Y-53530939D01*
X36449577Y-53530939D02*
X36392434Y-53473796D01*
X36392434Y-53473796D02*
X36335291Y-53445225D01*
X36335291Y-53445225D02*
X36221005Y-53416653D01*
X36221005Y-53416653D02*
X36135291Y-53416653D01*
X36135291Y-53416653D02*
X36021005Y-53445225D01*
X36021005Y-53445225D02*
X35963862Y-53473796D01*
X35963862Y-53473796D02*
X35906720Y-53530939D01*
X35906720Y-53530939D02*
X35878148Y-53616653D01*
X35878148Y-53616653D02*
X35878148Y-53759510D01*
X250861851Y-53309510D02*
X250861851Y-53652368D01*
X251461851Y-53480939D02*
X250861851Y-53480939D01*
X250861851Y-53795225D02*
X251461851Y-54195225D01*
X250861851Y-54195225D02*
X251461851Y-53795225D01*
X49208148Y-65810489D02*
X49208148Y-65467632D01*
X48608148Y-65639060D02*
X49208148Y-65639060D01*
X49208148Y-65324774D02*
X48608148Y-64924774D01*
X49208148Y-64924774D02*
X48608148Y-65324774D01*
X264161851Y-53738082D02*
X263876137Y-53538082D01*
X264161851Y-53395225D02*
X263561851Y-53395225D01*
X263561851Y-53395225D02*
X263561851Y-53623796D01*
X263561851Y-53623796D02*
X263590422Y-53680939D01*
X263590422Y-53680939D02*
X263618994Y-53709510D01*
X263618994Y-53709510D02*
X263676137Y-53738082D01*
X263676137Y-53738082D02*
X263761851Y-53738082D01*
X263761851Y-53738082D02*
X263818994Y-53709510D01*
X263818994Y-53709510D02*
X263847565Y-53680939D01*
X263847565Y-53680939D02*
X263876137Y-53623796D01*
X263876137Y-53623796D02*
X263876137Y-53395225D01*
X264161851Y-54309510D02*
X264161851Y-53966653D01*
X264161851Y-54138082D02*
X263561851Y-54138082D01*
X263561851Y-54138082D02*
X263647565Y-54080939D01*
X263647565Y-54080939D02*
X263704708Y-54023796D01*
X263704708Y-54023796D02*
X263733280Y-53966653D01*
D12*
X236527696Y-111367295D02*
X236794363Y-110986342D01*
X236984839Y-111367295D02*
X236984839Y-110567295D01*
X236984839Y-110567295D02*
X236680077Y-110567295D01*
X236680077Y-110567295D02*
X236603887Y-110605390D01*
X236603887Y-110605390D02*
X236565792Y-110643485D01*
X236565792Y-110643485D02*
X236527696Y-110719676D01*
X236527696Y-110719676D02*
X236527696Y-110833961D01*
X236527696Y-110833961D02*
X236565792Y-110910152D01*
X236565792Y-110910152D02*
X236603887Y-110948247D01*
X236603887Y-110948247D02*
X236680077Y-110986342D01*
X236680077Y-110986342D02*
X236984839Y-110986342D01*
X235575315Y-110948247D02*
X235308649Y-110948247D01*
X235194363Y-111367295D02*
X235575315Y-111367295D01*
X235575315Y-111367295D02*
X235575315Y-110567295D01*
X235575315Y-110567295D02*
X235194363Y-110567295D01*
X234356267Y-110567295D02*
X234089600Y-111367295D01*
X234089600Y-111367295D02*
X233822934Y-110567295D01*
X232946743Y-111367295D02*
X232946743Y-110567295D01*
X231994363Y-111329200D02*
X231880077Y-111367295D01*
X231880077Y-111367295D02*
X231689601Y-111367295D01*
X231689601Y-111367295D02*
X231613410Y-111329200D01*
X231613410Y-111329200D02*
X231575315Y-111291104D01*
X231575315Y-111291104D02*
X231537220Y-111214914D01*
X231537220Y-111214914D02*
X231537220Y-111138723D01*
X231537220Y-111138723D02*
X231575315Y-111062533D01*
X231575315Y-111062533D02*
X231613410Y-111024438D01*
X231613410Y-111024438D02*
X231689601Y-110986342D01*
X231689601Y-110986342D02*
X231841982Y-110948247D01*
X231841982Y-110948247D02*
X231918172Y-110910152D01*
X231918172Y-110910152D02*
X231956267Y-110872057D01*
X231956267Y-110872057D02*
X231994363Y-110795866D01*
X231994363Y-110795866D02*
X231994363Y-110719676D01*
X231994363Y-110719676D02*
X231956267Y-110643485D01*
X231956267Y-110643485D02*
X231918172Y-110605390D01*
X231918172Y-110605390D02*
X231841982Y-110567295D01*
X231841982Y-110567295D02*
X231651505Y-110567295D01*
X231651505Y-110567295D02*
X231537220Y-110605390D01*
X230584838Y-111367295D02*
X230584838Y-110567295D01*
X229441981Y-110567295D02*
X229289600Y-110567295D01*
X229289600Y-110567295D02*
X229213410Y-110605390D01*
X229213410Y-110605390D02*
X229137219Y-110681580D01*
X229137219Y-110681580D02*
X229099124Y-110833961D01*
X229099124Y-110833961D02*
X229099124Y-111100628D01*
X229099124Y-111100628D02*
X229137219Y-111253009D01*
X229137219Y-111253009D02*
X229213410Y-111329200D01*
X229213410Y-111329200D02*
X229289600Y-111367295D01*
X229289600Y-111367295D02*
X229441981Y-111367295D01*
X229441981Y-111367295D02*
X229518172Y-111329200D01*
X229518172Y-111329200D02*
X229594362Y-111253009D01*
X229594362Y-111253009D02*
X229632458Y-111100628D01*
X229632458Y-111100628D02*
X229632458Y-110833961D01*
X229632458Y-110833961D02*
X229594362Y-110681580D01*
X229594362Y-110681580D02*
X229518172Y-110605390D01*
X229518172Y-110605390D02*
X229441981Y-110567295D01*
X228146743Y-111367295D02*
X228146743Y-110567295D01*
X228146743Y-110567295D02*
X227689600Y-111367295D01*
X227689600Y-111367295D02*
X227689600Y-110567295D01*
X225327695Y-110567295D02*
X225251505Y-110567295D01*
X225251505Y-110567295D02*
X225175314Y-110605390D01*
X225175314Y-110605390D02*
X225137219Y-110643485D01*
X225137219Y-110643485D02*
X225099124Y-110719676D01*
X225099124Y-110719676D02*
X225061029Y-110872057D01*
X225061029Y-110872057D02*
X225061029Y-111062533D01*
X225061029Y-111062533D02*
X225099124Y-111214914D01*
X225099124Y-111214914D02*
X225137219Y-111291104D01*
X225137219Y-111291104D02*
X225175314Y-111329200D01*
X225175314Y-111329200D02*
X225251505Y-111367295D01*
X225251505Y-111367295D02*
X225327695Y-111367295D01*
X225327695Y-111367295D02*
X225403886Y-111329200D01*
X225403886Y-111329200D02*
X225441981Y-111291104D01*
X225441981Y-111291104D02*
X225480076Y-111214914D01*
X225480076Y-111214914D02*
X225518172Y-111062533D01*
X225518172Y-111062533D02*
X225518172Y-110872057D01*
X225518172Y-110872057D02*
X225480076Y-110719676D01*
X225480076Y-110719676D02*
X225441981Y-110643485D01*
X225441981Y-110643485D02*
X225403886Y-110605390D01*
X225403886Y-110605390D02*
X225327695Y-110567295D01*
X224108647Y-111291104D02*
X224070552Y-111329200D01*
X224070552Y-111329200D02*
X224108647Y-111367295D01*
X224108647Y-111367295D02*
X224146743Y-111329200D01*
X224146743Y-111329200D02*
X224108647Y-111291104D01*
X224108647Y-111291104D02*
X224108647Y-111367295D01*
X223194362Y-110567295D02*
X222699124Y-110567295D01*
X222699124Y-110567295D02*
X222965790Y-110872057D01*
X222965790Y-110872057D02*
X222851505Y-110872057D01*
X222851505Y-110872057D02*
X222775314Y-110910152D01*
X222775314Y-110910152D02*
X222737219Y-110948247D01*
X222737219Y-110948247D02*
X222699124Y-111024438D01*
X222699124Y-111024438D02*
X222699124Y-111214914D01*
X222699124Y-111214914D02*
X222737219Y-111291104D01*
X222737219Y-111291104D02*
X222775314Y-111329200D01*
X222775314Y-111329200D02*
X222851505Y-111367295D01*
X222851505Y-111367295D02*
X223080076Y-111367295D01*
X223080076Y-111367295D02*
X223156267Y-111329200D01*
X223156267Y-111329200D02*
X223194362Y-111291104D01*
D11*
X43555291Y-53988082D02*
X43526720Y-54016654D01*
X43526720Y-54016654D02*
X43498148Y-54102368D01*
X43498148Y-54102368D02*
X43498148Y-54159511D01*
X43498148Y-54159511D02*
X43526720Y-54245225D01*
X43526720Y-54245225D02*
X43583862Y-54302368D01*
X43583862Y-54302368D02*
X43641005Y-54330939D01*
X43641005Y-54330939D02*
X43755291Y-54359511D01*
X43755291Y-54359511D02*
X43841005Y-54359511D01*
X43841005Y-54359511D02*
X43955291Y-54330939D01*
X43955291Y-54330939D02*
X44012434Y-54302368D01*
X44012434Y-54302368D02*
X44069577Y-54245225D01*
X44069577Y-54245225D02*
X44098148Y-54159511D01*
X44098148Y-54159511D02*
X44098148Y-54102368D01*
X44098148Y-54102368D02*
X44069577Y-54016654D01*
X44069577Y-54016654D02*
X44041005Y-53988082D01*
X44098148Y-53788082D02*
X44098148Y-53416654D01*
X44098148Y-53416654D02*
X43869577Y-53616654D01*
X43869577Y-53616654D02*
X43869577Y-53530939D01*
X43869577Y-53530939D02*
X43841005Y-53473797D01*
X43841005Y-53473797D02*
X43812434Y-53445225D01*
X43812434Y-53445225D02*
X43755291Y-53416654D01*
X43755291Y-53416654D02*
X43612434Y-53416654D01*
X43612434Y-53416654D02*
X43555291Y-53445225D01*
X43555291Y-53445225D02*
X43526720Y-53473797D01*
X43526720Y-53473797D02*
X43498148Y-53530939D01*
X43498148Y-53530939D02*
X43498148Y-53702368D01*
X43498148Y-53702368D02*
X43526720Y-53759511D01*
X43526720Y-53759511D02*
X43555291Y-53788082D01*
X40988148Y-65381917D02*
X41273862Y-65581917D01*
X40988148Y-65724774D02*
X41588148Y-65724774D01*
X41588148Y-65724774D02*
X41588148Y-65496203D01*
X41588148Y-65496203D02*
X41559577Y-65439060D01*
X41559577Y-65439060D02*
X41531005Y-65410489D01*
X41531005Y-65410489D02*
X41473862Y-65381917D01*
X41473862Y-65381917D02*
X41388148Y-65381917D01*
X41388148Y-65381917D02*
X41331005Y-65410489D01*
X41331005Y-65410489D02*
X41302434Y-65439060D01*
X41302434Y-65439060D02*
X41273862Y-65496203D01*
X41273862Y-65496203D02*
X41273862Y-65724774D01*
X41588148Y-65181917D02*
X41588148Y-64810489D01*
X41588148Y-64810489D02*
X41359577Y-65010489D01*
X41359577Y-65010489D02*
X41359577Y-64924774D01*
X41359577Y-64924774D02*
X41331005Y-64867632D01*
X41331005Y-64867632D02*
X41302434Y-64839060D01*
X41302434Y-64839060D02*
X41245291Y-64810489D01*
X41245291Y-64810489D02*
X41102434Y-64810489D01*
X41102434Y-64810489D02*
X41045291Y-64839060D01*
X41045291Y-64839060D02*
X41016720Y-64867632D01*
X41016720Y-64867632D02*
X40988148Y-64924774D01*
X40988148Y-64924774D02*
X40988148Y-65096203D01*
X40988148Y-65096203D02*
X41016720Y-65153346D01*
X41016720Y-65153346D02*
X41045291Y-65181917D01*
D12*
X77757935Y-115789200D02*
X77643649Y-115827295D01*
X77643649Y-115827295D02*
X77453173Y-115827295D01*
X77453173Y-115827295D02*
X77376982Y-115789200D01*
X77376982Y-115789200D02*
X77338887Y-115751104D01*
X77338887Y-115751104D02*
X77300792Y-115674914D01*
X77300792Y-115674914D02*
X77300792Y-115598723D01*
X77300792Y-115598723D02*
X77338887Y-115522533D01*
X77338887Y-115522533D02*
X77376982Y-115484438D01*
X77376982Y-115484438D02*
X77453173Y-115446342D01*
X77453173Y-115446342D02*
X77605554Y-115408247D01*
X77605554Y-115408247D02*
X77681744Y-115370152D01*
X77681744Y-115370152D02*
X77719839Y-115332057D01*
X77719839Y-115332057D02*
X77757935Y-115255866D01*
X77757935Y-115255866D02*
X77757935Y-115179676D01*
X77757935Y-115179676D02*
X77719839Y-115103485D01*
X77719839Y-115103485D02*
X77681744Y-115065390D01*
X77681744Y-115065390D02*
X77605554Y-115027295D01*
X77605554Y-115027295D02*
X77415077Y-115027295D01*
X77415077Y-115027295D02*
X77300792Y-115065390D01*
X75891267Y-115751104D02*
X75929363Y-115789200D01*
X75929363Y-115789200D02*
X76043648Y-115827295D01*
X76043648Y-115827295D02*
X76119839Y-115827295D01*
X76119839Y-115827295D02*
X76234125Y-115789200D01*
X76234125Y-115789200D02*
X76310315Y-115713009D01*
X76310315Y-115713009D02*
X76348410Y-115636819D01*
X76348410Y-115636819D02*
X76386506Y-115484438D01*
X76386506Y-115484438D02*
X76386506Y-115370152D01*
X76386506Y-115370152D02*
X76348410Y-115217771D01*
X76348410Y-115217771D02*
X76310315Y-115141580D01*
X76310315Y-115141580D02*
X76234125Y-115065390D01*
X76234125Y-115065390D02*
X76119839Y-115027295D01*
X76119839Y-115027295D02*
X76043648Y-115027295D01*
X76043648Y-115027295D02*
X75929363Y-115065390D01*
X75929363Y-115065390D02*
X75891267Y-115103485D01*
X74976982Y-115598723D02*
X74596029Y-115598723D01*
X75053172Y-115827295D02*
X74786505Y-115027295D01*
X74786505Y-115027295D02*
X74519839Y-115827295D01*
X73186505Y-115827295D02*
X73453172Y-115446342D01*
X73643648Y-115827295D02*
X73643648Y-115027295D01*
X73643648Y-115027295D02*
X73338886Y-115027295D01*
X73338886Y-115027295D02*
X73262696Y-115065390D01*
X73262696Y-115065390D02*
X73224601Y-115103485D01*
X73224601Y-115103485D02*
X73186505Y-115179676D01*
X73186505Y-115179676D02*
X73186505Y-115293961D01*
X73186505Y-115293961D02*
X73224601Y-115370152D01*
X73224601Y-115370152D02*
X73262696Y-115408247D01*
X73262696Y-115408247D02*
X73338886Y-115446342D01*
X73338886Y-115446342D02*
X73643648Y-115446342D01*
X72081743Y-115446342D02*
X72081743Y-115827295D01*
X72348410Y-115027295D02*
X72081743Y-115446342D01*
X72081743Y-115446342D02*
X71815077Y-115027295D01*
X69300791Y-115065390D02*
X69376981Y-115027295D01*
X69376981Y-115027295D02*
X69491267Y-115027295D01*
X69491267Y-115027295D02*
X69605553Y-115065390D01*
X69605553Y-115065390D02*
X69681743Y-115141580D01*
X69681743Y-115141580D02*
X69719838Y-115217771D01*
X69719838Y-115217771D02*
X69757934Y-115370152D01*
X69757934Y-115370152D02*
X69757934Y-115484438D01*
X69757934Y-115484438D02*
X69719838Y-115636819D01*
X69719838Y-115636819D02*
X69681743Y-115713009D01*
X69681743Y-115713009D02*
X69605553Y-115789200D01*
X69605553Y-115789200D02*
X69491267Y-115827295D01*
X69491267Y-115827295D02*
X69415076Y-115827295D01*
X69415076Y-115827295D02*
X69300791Y-115789200D01*
X69300791Y-115789200D02*
X69262695Y-115751104D01*
X69262695Y-115751104D02*
X69262695Y-115484438D01*
X69262695Y-115484438D02*
X69415076Y-115484438D01*
X68310314Y-115408247D02*
X68043648Y-115408247D01*
X67929362Y-115827295D02*
X68310314Y-115827295D01*
X68310314Y-115827295D02*
X68310314Y-115027295D01*
X68310314Y-115027295D02*
X67929362Y-115027295D01*
X66976980Y-115827295D02*
X66976980Y-115027295D01*
X66024600Y-115789200D02*
X65910314Y-115827295D01*
X65910314Y-115827295D02*
X65719838Y-115827295D01*
X65719838Y-115827295D02*
X65643647Y-115789200D01*
X65643647Y-115789200D02*
X65605552Y-115751104D01*
X65605552Y-115751104D02*
X65567457Y-115674914D01*
X65567457Y-115674914D02*
X65567457Y-115598723D01*
X65567457Y-115598723D02*
X65605552Y-115522533D01*
X65605552Y-115522533D02*
X65643647Y-115484438D01*
X65643647Y-115484438D02*
X65719838Y-115446342D01*
X65719838Y-115446342D02*
X65872219Y-115408247D01*
X65872219Y-115408247D02*
X65948409Y-115370152D01*
X65948409Y-115370152D02*
X65986504Y-115332057D01*
X65986504Y-115332057D02*
X66024600Y-115255866D01*
X66024600Y-115255866D02*
X66024600Y-115179676D01*
X66024600Y-115179676D02*
X65986504Y-115103485D01*
X65986504Y-115103485D02*
X65948409Y-115065390D01*
X65948409Y-115065390D02*
X65872219Y-115027295D01*
X65872219Y-115027295D02*
X65681742Y-115027295D01*
X65681742Y-115027295D02*
X65567457Y-115065390D01*
X64729361Y-115027295D02*
X64272218Y-115027295D01*
X64500790Y-115827295D02*
X64500790Y-115027295D01*
X77739839Y-112387295D02*
X77739839Y-111587295D01*
X77739839Y-111587295D02*
X77473173Y-112158723D01*
X77473173Y-112158723D02*
X77206506Y-111587295D01*
X77206506Y-111587295D02*
X77206506Y-112387295D01*
X76254125Y-112158723D02*
X75873172Y-112158723D01*
X76330315Y-112387295D02*
X76063648Y-111587295D01*
X76063648Y-111587295D02*
X75796982Y-112387295D01*
X74920791Y-112387295D02*
X74920791Y-111587295D01*
X74920791Y-111587295D02*
X74730315Y-111587295D01*
X74730315Y-111587295D02*
X74616029Y-111625390D01*
X74616029Y-111625390D02*
X74539839Y-111701580D01*
X74539839Y-111701580D02*
X74501744Y-111777771D01*
X74501744Y-111777771D02*
X74463648Y-111930152D01*
X74463648Y-111930152D02*
X74463648Y-112044438D01*
X74463648Y-112044438D02*
X74501744Y-112196819D01*
X74501744Y-112196819D02*
X74539839Y-112273009D01*
X74539839Y-112273009D02*
X74616029Y-112349200D01*
X74616029Y-112349200D02*
X74730315Y-112387295D01*
X74730315Y-112387295D02*
X74920791Y-112387295D01*
X73511267Y-111968247D02*
X73244601Y-111968247D01*
X73130315Y-112387295D02*
X73511267Y-112387295D01*
X73511267Y-112387295D02*
X73511267Y-111587295D01*
X73511267Y-111587295D02*
X73130315Y-111587295D01*
X70692219Y-111968247D02*
X70577933Y-112006342D01*
X70577933Y-112006342D02*
X70539838Y-112044438D01*
X70539838Y-112044438D02*
X70501742Y-112120628D01*
X70501742Y-112120628D02*
X70501742Y-112234914D01*
X70501742Y-112234914D02*
X70539838Y-112311104D01*
X70539838Y-112311104D02*
X70577933Y-112349200D01*
X70577933Y-112349200D02*
X70654123Y-112387295D01*
X70654123Y-112387295D02*
X70958885Y-112387295D01*
X70958885Y-112387295D02*
X70958885Y-111587295D01*
X70958885Y-111587295D02*
X70692219Y-111587295D01*
X70692219Y-111587295D02*
X70616028Y-111625390D01*
X70616028Y-111625390D02*
X70577933Y-111663485D01*
X70577933Y-111663485D02*
X70539838Y-111739676D01*
X70539838Y-111739676D02*
X70539838Y-111815866D01*
X70539838Y-111815866D02*
X70577933Y-111892057D01*
X70577933Y-111892057D02*
X70616028Y-111930152D01*
X70616028Y-111930152D02*
X70692219Y-111968247D01*
X70692219Y-111968247D02*
X70958885Y-111968247D01*
X69396980Y-112006342D02*
X69396980Y-112387295D01*
X69663647Y-111587295D02*
X69396980Y-112006342D01*
X69396980Y-112006342D02*
X69130314Y-111587295D01*
X77197935Y-113598723D02*
X76816982Y-113598723D01*
X77274125Y-113827295D02*
X77007458Y-113027295D01*
X77007458Y-113027295D02*
X76740792Y-113827295D01*
X74645553Y-113827295D02*
X74645553Y-113027295D01*
X74645553Y-113027295D02*
X74188410Y-113827295D01*
X74188410Y-113827295D02*
X74188410Y-113027295D01*
X73045553Y-113027295D02*
X72893172Y-113027295D01*
X72893172Y-113027295D02*
X72816982Y-113065390D01*
X72816982Y-113065390D02*
X72740791Y-113141580D01*
X72740791Y-113141580D02*
X72702696Y-113293961D01*
X72702696Y-113293961D02*
X72702696Y-113560628D01*
X72702696Y-113560628D02*
X72740791Y-113713009D01*
X72740791Y-113713009D02*
X72816982Y-113789200D01*
X72816982Y-113789200D02*
X72893172Y-113827295D01*
X72893172Y-113827295D02*
X73045553Y-113827295D01*
X73045553Y-113827295D02*
X73121744Y-113789200D01*
X73121744Y-113789200D02*
X73197934Y-113713009D01*
X73197934Y-113713009D02*
X73236030Y-113560628D01*
X73236030Y-113560628D02*
X73236030Y-113293961D01*
X73236030Y-113293961D02*
X73197934Y-113141580D01*
X73197934Y-113141580D02*
X73121744Y-113065390D01*
X73121744Y-113065390D02*
X73045553Y-113027295D01*
X71864601Y-113027295D02*
X71407458Y-113027295D01*
X71636030Y-113827295D02*
X71636030Y-113027295D01*
X69426505Y-113027295D02*
X68969362Y-113027295D01*
X69197934Y-113827295D02*
X69197934Y-113027295D01*
X68093171Y-113827295D02*
X68093171Y-113027295D01*
X68093171Y-113408247D02*
X67636028Y-113408247D01*
X67636028Y-113827295D02*
X67636028Y-113027295D01*
X66683648Y-113598723D02*
X66302695Y-113598723D01*
X66759838Y-113827295D02*
X66493171Y-113027295D01*
X66493171Y-113027295D02*
X66226505Y-113827295D01*
X65464600Y-113027295D02*
X65007457Y-113027295D01*
X65236029Y-113827295D02*
X65236029Y-113027295D01*
D11*
X251491851Y-65131917D02*
X251206137Y-64931917D01*
X251491851Y-64789060D02*
X250891851Y-64789060D01*
X250891851Y-64789060D02*
X250891851Y-65017631D01*
X250891851Y-65017631D02*
X250920422Y-65074774D01*
X250920422Y-65074774D02*
X250948994Y-65103345D01*
X250948994Y-65103345D02*
X251006137Y-65131917D01*
X251006137Y-65131917D02*
X251091851Y-65131917D01*
X251091851Y-65131917D02*
X251148994Y-65103345D01*
X251148994Y-65103345D02*
X251177565Y-65074774D01*
X251177565Y-65074774D02*
X251206137Y-65017631D01*
X251206137Y-65017631D02*
X251206137Y-64789060D01*
X250891851Y-65331917D02*
X251491851Y-65731917D01*
X250891851Y-65731917D02*
X251491851Y-65331917D01*
X261621851Y-53738082D02*
X261336137Y-53538082D01*
X261621851Y-53395225D02*
X261021851Y-53395225D01*
X261021851Y-53395225D02*
X261021851Y-53623796D01*
X261021851Y-53623796D02*
X261050422Y-53680939D01*
X261050422Y-53680939D02*
X261078994Y-53709510D01*
X261078994Y-53709510D02*
X261136137Y-53738082D01*
X261136137Y-53738082D02*
X261221851Y-53738082D01*
X261221851Y-53738082D02*
X261278994Y-53709510D01*
X261278994Y-53709510D02*
X261307565Y-53680939D01*
X261307565Y-53680939D02*
X261336137Y-53623796D01*
X261336137Y-53623796D02*
X261336137Y-53395225D01*
X261078994Y-53966653D02*
X261050422Y-53995225D01*
X261050422Y-53995225D02*
X261021851Y-54052368D01*
X261021851Y-54052368D02*
X261021851Y-54195225D01*
X261021851Y-54195225D02*
X261050422Y-54252368D01*
X261050422Y-54252368D02*
X261078994Y-54280939D01*
X261078994Y-54280939D02*
X261136137Y-54309510D01*
X261136137Y-54309510D02*
X261193280Y-54309510D01*
X261193280Y-54309510D02*
X261278994Y-54280939D01*
X261278994Y-54280939D02*
X261621851Y-53938082D01*
X261621851Y-53938082D02*
X261621851Y-54309510D01*
X37911565Y-62295225D02*
X37940137Y-62380939D01*
X37940137Y-62380939D02*
X37968708Y-62409510D01*
X37968708Y-62409510D02*
X38025851Y-62438082D01*
X38025851Y-62438082D02*
X38111565Y-62438082D01*
X38111565Y-62438082D02*
X38168708Y-62409510D01*
X38168708Y-62409510D02*
X38197280Y-62380939D01*
X38197280Y-62380939D02*
X38225851Y-62323796D01*
X38225851Y-62323796D02*
X38225851Y-62095225D01*
X38225851Y-62095225D02*
X37625851Y-62095225D01*
X37625851Y-62095225D02*
X37625851Y-62295225D01*
X37625851Y-62295225D02*
X37654422Y-62352368D01*
X37654422Y-62352368D02*
X37682994Y-62380939D01*
X37682994Y-62380939D02*
X37740137Y-62409510D01*
X37740137Y-62409510D02*
X37797280Y-62409510D01*
X37797280Y-62409510D02*
X37854422Y-62380939D01*
X37854422Y-62380939D02*
X37882994Y-62352368D01*
X37882994Y-62352368D02*
X37911565Y-62295225D01*
X37911565Y-62295225D02*
X37911565Y-62095225D01*
X37625851Y-62609510D02*
X37625851Y-62952368D01*
X38225851Y-62780939D02*
X37625851Y-62780939D01*
X37997280Y-63152368D02*
X37997280Y-63609511D01*
X35908148Y-65381917D02*
X36193862Y-65581917D01*
X35908148Y-65724774D02*
X36508148Y-65724774D01*
X36508148Y-65724774D02*
X36508148Y-65496203D01*
X36508148Y-65496203D02*
X36479577Y-65439060D01*
X36479577Y-65439060D02*
X36451005Y-65410489D01*
X36451005Y-65410489D02*
X36393862Y-65381917D01*
X36393862Y-65381917D02*
X36308148Y-65381917D01*
X36308148Y-65381917D02*
X36251005Y-65410489D01*
X36251005Y-65410489D02*
X36222434Y-65439060D01*
X36222434Y-65439060D02*
X36193862Y-65496203D01*
X36193862Y-65496203D02*
X36193862Y-65724774D01*
X35908148Y-64810489D02*
X35908148Y-65153346D01*
X35908148Y-64981917D02*
X36508148Y-64981917D01*
X36508148Y-64981917D02*
X36422434Y-65039060D01*
X36422434Y-65039060D02*
X36365291Y-65096203D01*
X36365291Y-65096203D02*
X36336720Y-65153346D01*
D12*
X229209828Y-109277295D02*
X228752685Y-109277295D01*
X228981257Y-110077295D02*
X228981257Y-109277295D01*
X227724113Y-109277295D02*
X227571732Y-109277295D01*
X227571732Y-109277295D02*
X227495542Y-109315390D01*
X227495542Y-109315390D02*
X227419351Y-109391580D01*
X227419351Y-109391580D02*
X227381256Y-109543961D01*
X227381256Y-109543961D02*
X227381256Y-109810628D01*
X227381256Y-109810628D02*
X227419351Y-109963009D01*
X227419351Y-109963009D02*
X227495542Y-110039200D01*
X227495542Y-110039200D02*
X227571732Y-110077295D01*
X227571732Y-110077295D02*
X227724113Y-110077295D01*
X227724113Y-110077295D02*
X227800304Y-110039200D01*
X227800304Y-110039200D02*
X227876494Y-109963009D01*
X227876494Y-109963009D02*
X227914590Y-109810628D01*
X227914590Y-109810628D02*
X227914590Y-109543961D01*
X227914590Y-109543961D02*
X227876494Y-109391580D01*
X227876494Y-109391580D02*
X227800304Y-109315390D01*
X227800304Y-109315390D02*
X227724113Y-109277295D01*
X226543161Y-109277295D02*
X226086018Y-109277295D01*
X226314590Y-110077295D02*
X226314590Y-109277295D01*
X225209827Y-109658247D02*
X224943161Y-109658247D01*
X224828875Y-110077295D02*
X225209827Y-110077295D01*
X225209827Y-110077295D02*
X225209827Y-109277295D01*
X225209827Y-109277295D02*
X224828875Y-109277295D01*
X223876493Y-110077295D02*
X223876493Y-109277295D01*
X223876493Y-109277295D02*
X223609827Y-109848723D01*
X223609827Y-109848723D02*
X223343160Y-109277295D01*
X223343160Y-109277295D02*
X223343160Y-110077295D01*
D11*
X253944708Y-53738082D02*
X253973280Y-53709510D01*
X253973280Y-53709510D02*
X254001851Y-53623796D01*
X254001851Y-53623796D02*
X254001851Y-53566653D01*
X254001851Y-53566653D02*
X253973280Y-53480939D01*
X253973280Y-53480939D02*
X253916137Y-53423796D01*
X253916137Y-53423796D02*
X253858994Y-53395225D01*
X253858994Y-53395225D02*
X253744708Y-53366653D01*
X253744708Y-53366653D02*
X253658994Y-53366653D01*
X253658994Y-53366653D02*
X253544708Y-53395225D01*
X253544708Y-53395225D02*
X253487565Y-53423796D01*
X253487565Y-53423796D02*
X253430422Y-53480939D01*
X253430422Y-53480939D02*
X253401851Y-53566653D01*
X253401851Y-53566653D02*
X253401851Y-53623796D01*
X253401851Y-53623796D02*
X253430422Y-53709510D01*
X253430422Y-53709510D02*
X253458994Y-53738082D01*
X254001851Y-54309510D02*
X254001851Y-53966653D01*
X254001851Y-54138082D02*
X253401851Y-54138082D01*
X253401851Y-54138082D02*
X253487565Y-54080939D01*
X253487565Y-54080939D02*
X253544708Y-54023796D01*
X253544708Y-54023796D02*
X253573280Y-53966653D01*
X46125291Y-65381917D02*
X46096720Y-65410489D01*
X46096720Y-65410489D02*
X46068148Y-65496203D01*
X46068148Y-65496203D02*
X46068148Y-65553346D01*
X46068148Y-65553346D02*
X46096720Y-65639060D01*
X46096720Y-65639060D02*
X46153862Y-65696203D01*
X46153862Y-65696203D02*
X46211005Y-65724774D01*
X46211005Y-65724774D02*
X46325291Y-65753346D01*
X46325291Y-65753346D02*
X46411005Y-65753346D01*
X46411005Y-65753346D02*
X46525291Y-65724774D01*
X46525291Y-65724774D02*
X46582434Y-65696203D01*
X46582434Y-65696203D02*
X46639577Y-65639060D01*
X46639577Y-65639060D02*
X46668148Y-65553346D01*
X46668148Y-65553346D02*
X46668148Y-65496203D01*
X46668148Y-65496203D02*
X46639577Y-65410489D01*
X46639577Y-65410489D02*
X46611005Y-65381917D01*
X46068148Y-64810489D02*
X46068148Y-65153346D01*
X46068148Y-64981917D02*
X46668148Y-64981917D01*
X46668148Y-64981917D02*
X46582434Y-65039060D01*
X46582434Y-65039060D02*
X46525291Y-65096203D01*
X46525291Y-65096203D02*
X46496720Y-65153346D01*
D13*
G36*
X232865946Y-113335517D02*
G01*
X232859099Y-113757447D01*
X231107375Y-115524450D01*
X230964635Y-115668318D01*
X230724267Y-115910042D01*
X230494945Y-116139983D01*
X230279079Y-116355759D01*
X230079080Y-116554986D01*
X229897360Y-116735279D01*
X229736330Y-116894254D01*
X229598400Y-117029527D01*
X229485982Y-117138714D01*
X229401488Y-117219432D01*
X229347328Y-117269295D01*
X229325913Y-117285920D01*
X229320401Y-117281945D01*
X229283800Y-117248426D01*
X229215565Y-117182836D01*
X229118134Y-117087600D01*
X228993947Y-116965145D01*
X228845445Y-116817900D01*
X228675068Y-116648289D01*
X228485255Y-116458742D01*
X228278446Y-116251683D01*
X228057081Y-116029542D01*
X227823601Y-115794744D01*
X227580445Y-115549716D01*
X225864715Y-113819046D01*
X225864715Y-113394379D01*
X225864715Y-112969712D01*
X226283878Y-112950943D01*
X226703040Y-112932175D01*
X227997626Y-114240077D01*
X229292212Y-115547979D01*
X229886986Y-114970653D01*
X230015228Y-114845735D01*
X230197535Y-114667123D01*
X230399018Y-114468818D01*
X230610832Y-114259559D01*
X230824134Y-114048087D01*
X231030080Y-113843140D01*
X231219827Y-113653458D01*
X231957895Y-112913588D01*
X232415344Y-112913588D01*
X232872794Y-112913588D01*
X232865946Y-113335517D01*
G37*
G36*
X227585158Y-115991271D02*
G01*
X229330626Y-117748972D01*
X229584789Y-117508423D01*
X229616389Y-117478624D01*
X229705576Y-117395754D01*
X229779513Y-117328857D01*
X229831242Y-117284157D01*
X229853804Y-117267874D01*
X229856605Y-117283251D01*
X229859873Y-117343069D01*
X229862770Y-117442649D01*
X229865196Y-117576261D01*
X229867052Y-117738179D01*
X229868238Y-117922675D01*
X229868656Y-118124020D01*
X229868656Y-118980167D01*
X229763347Y-119087469D01*
X229658038Y-119194770D01*
X229319160Y-119193250D01*
X228980282Y-119191730D01*
X228029346Y-118207208D01*
X227924109Y-118098358D01*
X227750960Y-117919733D01*
X227589967Y-117754227D01*
X227444350Y-117605118D01*
X227317330Y-117475683D01*
X227212129Y-117369201D01*
X227131966Y-117288950D01*
X227080063Y-117238209D01*
X227059641Y-117220255D01*
X227058548Y-117221764D01*
X227054477Y-117257393D01*
X227050750Y-117336344D01*
X227047469Y-117453270D01*
X227044738Y-117602824D01*
X227042659Y-117779659D01*
X227041337Y-117978428D01*
X227040873Y-118193785D01*
X227040873Y-119169746D01*
X226456891Y-119169746D01*
X225872910Y-119169746D01*
X225856325Y-117762110D01*
X225853130Y-117471128D01*
X225849991Y-117143988D01*
X225847145Y-116805042D01*
X225844659Y-116464599D01*
X225842604Y-116132968D01*
X225841048Y-115820456D01*
X225840062Y-115537371D01*
X225839715Y-115294023D01*
X225839690Y-114233571D01*
X227585158Y-115991271D01*
G37*
G36*
X231345109Y-117474718D02*
G01*
X231345109Y-119219795D01*
X230719493Y-119219795D01*
X230093878Y-119219795D01*
X230093878Y-118087069D01*
X230093878Y-116954344D01*
X230412942Y-116641868D01*
X230457645Y-116598091D01*
X230600765Y-116457965D01*
X230755906Y-116306103D01*
X230907145Y-116158091D01*
X231038557Y-116029517D01*
X231345109Y-115729641D01*
X231345109Y-117474718D01*
G37*
G36*
X232896636Y-116714936D02*
G01*
X232896636Y-119219795D01*
X232258508Y-119219795D01*
X231620380Y-119219795D01*
X231620380Y-118435625D01*
X231620380Y-118432779D01*
X231619944Y-118224539D01*
X231618729Y-117977809D01*
X231616832Y-117703968D01*
X231614351Y-117414393D01*
X231611382Y-117120460D01*
X231608023Y-116833548D01*
X231604372Y-116565034D01*
X231588363Y-115478613D01*
X232242500Y-114844345D01*
X232896636Y-114210077D01*
X232896636Y-116714936D01*
G37*
D14*
X213000000Y-99000000D03*
X92000000Y-99000000D03*
X208000000Y-99000000D03*
X87000000Y-99000000D03*
%LPC*%
D13*
G36*
X220552427Y-100317415D02*
G01*
X220635485Y-100323744D01*
X220717345Y-100334166D01*
X220797903Y-100348578D01*
X220877055Y-100366877D01*
X220954698Y-100388958D01*
X221030728Y-100414720D01*
X221105043Y-100444057D01*
X221177539Y-100476868D01*
X221248112Y-100513048D01*
X221316660Y-100552494D01*
X221383078Y-100595104D01*
X221447264Y-100640772D01*
X221509115Y-100689397D01*
X221568526Y-100740875D01*
X221625394Y-100795102D01*
X221679617Y-100851975D01*
X221731090Y-100911391D01*
X221779711Y-100973247D01*
X221825376Y-101037438D01*
X221867982Y-101103862D01*
X221907425Y-101172415D01*
X221943602Y-101242994D01*
X221976410Y-101315495D01*
X222005745Y-101389816D01*
X222031504Y-101465853D01*
X222053584Y-101543501D01*
X222071881Y-101622660D01*
X222086292Y-101703223D01*
X222096713Y-101785089D01*
X222103042Y-101868155D01*
X222105174Y-101952315D01*
X222103042Y-102036476D01*
X222096713Y-102119541D01*
X222086292Y-102201407D01*
X222071881Y-102281971D01*
X222053584Y-102361129D01*
X222031504Y-102438778D01*
X222005745Y-102514815D01*
X221976410Y-102589135D01*
X221943602Y-102661637D01*
X221907425Y-102732216D01*
X221867982Y-102800769D01*
X221825376Y-102867193D01*
X221779711Y-102931384D01*
X221731090Y-102993239D01*
X221679617Y-103052655D01*
X221625394Y-103109529D01*
X221568526Y-103163756D01*
X221509115Y-103215233D01*
X221447264Y-103263858D01*
X221383078Y-103309527D01*
X221316660Y-103352136D01*
X221248112Y-103391583D01*
X221177539Y-103427763D01*
X221105043Y-103460573D01*
X221030728Y-103489911D01*
X220954698Y-103515672D01*
X220877055Y-103537754D01*
X220797903Y-103556052D01*
X220717345Y-103570464D01*
X220635485Y-103580887D01*
X220552427Y-103587216D01*
X220468272Y-103589349D01*
X220384118Y-103587216D01*
X220301059Y-103580887D01*
X220219200Y-103570464D01*
X220138642Y-103556052D01*
X220059490Y-103537754D01*
X219981847Y-103515672D01*
X219905817Y-103489911D01*
X219831502Y-103460573D01*
X219759006Y-103427763D01*
X219688433Y-103391583D01*
X219619885Y-103352136D01*
X219553467Y-103309527D01*
X219489281Y-103263858D01*
X219427430Y-103215233D01*
X219368019Y-103163756D01*
X219311151Y-103109529D01*
X219256928Y-103052655D01*
X219205455Y-102993239D01*
X219156834Y-102931384D01*
X219111169Y-102867193D01*
X219068563Y-102800769D01*
X219029120Y-102732216D01*
X218992943Y-102661637D01*
X218960135Y-102589135D01*
X218930800Y-102514815D01*
X218905041Y-102438778D01*
X218882961Y-102361129D01*
X218864664Y-102281971D01*
X218850253Y-102201407D01*
X218839832Y-102119541D01*
X218833503Y-102036476D01*
X218831371Y-101952315D01*
X219829738Y-101952315D01*
X219830568Y-101985188D01*
X219833033Y-102017628D01*
X219837092Y-102049595D01*
X219842705Y-102081049D01*
X219849833Y-102111950D01*
X219858434Y-102142259D01*
X219868469Y-102171933D01*
X219879899Y-102200935D01*
X219892682Y-102229224D01*
X219906779Y-102256759D01*
X219922150Y-102283502D01*
X219938755Y-102309410D01*
X219956554Y-102334446D01*
X219975506Y-102358568D01*
X219995572Y-102381736D01*
X220016711Y-102403911D01*
X220038885Y-102425052D01*
X220062051Y-102445119D01*
X220086171Y-102464073D01*
X220111204Y-102481873D01*
X220137111Y-102498479D01*
X220163851Y-102513852D01*
X220191384Y-102527950D01*
X220219671Y-102540734D01*
X220248671Y-102552165D01*
X220278343Y-102562201D01*
X220308649Y-102570803D01*
X220339548Y-102577931D01*
X220371000Y-102583545D01*
X220402965Y-102587604D01*
X220435402Y-102590069D01*
X220468272Y-102590899D01*
X220501133Y-102590069D01*
X220533541Y-102587604D01*
X220565458Y-102583545D01*
X220596845Y-102577931D01*
X220627663Y-102570803D01*
X220657875Y-102562201D01*
X220687440Y-102552165D01*
X220716321Y-102540734D01*
X220744478Y-102527950D01*
X220771873Y-102513852D01*
X220798466Y-102498479D01*
X220824220Y-102481873D01*
X220849096Y-102464073D01*
X220873054Y-102445119D01*
X220896056Y-102425052D01*
X220918063Y-102403911D01*
X220939037Y-102381736D01*
X220958939Y-102358567D01*
X220977729Y-102334446D01*
X220995370Y-102309410D01*
X221011822Y-102283502D01*
X221027047Y-102256759D01*
X221041005Y-102229224D01*
X221053659Y-102200935D01*
X221064970Y-102171933D01*
X221074898Y-102142259D01*
X221083405Y-102111950D01*
X221090452Y-102081049D01*
X221096000Y-102049595D01*
X221100011Y-102017628D01*
X221102447Y-101985188D01*
X221103267Y-101952315D01*
X221102437Y-101919453D01*
X221099973Y-101887042D01*
X221095916Y-101855123D01*
X221090306Y-101823733D01*
X221083186Y-101792912D01*
X221074594Y-101762698D01*
X221064573Y-101733130D01*
X221053161Y-101704247D01*
X221040401Y-101676087D01*
X221026334Y-101648690D01*
X221010998Y-101622093D01*
X220994436Y-101596337D01*
X220976688Y-101571459D01*
X220957795Y-101547498D01*
X220937797Y-101524494D01*
X220916736Y-101502484D01*
X220894651Y-101481508D01*
X220871584Y-101461604D01*
X220847575Y-101442812D01*
X220822665Y-101425169D01*
X220796894Y-101408715D01*
X220770304Y-101393489D01*
X220742935Y-101379528D01*
X220714827Y-101366873D01*
X220686022Y-101355561D01*
X220656560Y-101345632D01*
X220626482Y-101337124D01*
X220595828Y-101330076D01*
X220564640Y-101324527D01*
X220532957Y-101320515D01*
X220500821Y-101318080D01*
X220468272Y-101317259D01*
X220435714Y-101318090D01*
X220403548Y-101320554D01*
X220371818Y-101324611D01*
X220340564Y-101330221D01*
X220309831Y-101337342D01*
X220279658Y-101345934D01*
X220250089Y-101355957D01*
X220221164Y-101367369D01*
X220192928Y-101380130D01*
X220165420Y-101394199D01*
X220138683Y-101409536D01*
X220112760Y-101426099D01*
X220087692Y-101443849D01*
X220063521Y-101462744D01*
X220040289Y-101482743D01*
X220018039Y-101503807D01*
X219996812Y-101525894D01*
X219976649Y-101548963D01*
X219957594Y-101572974D01*
X219939689Y-101597887D01*
X219922974Y-101623660D01*
X219907492Y-101650253D01*
X219893286Y-101677625D01*
X219880397Y-101705735D01*
X219868866Y-101734543D01*
X219858737Y-101764008D01*
X219850051Y-101794089D01*
X219842851Y-101824746D01*
X219837177Y-101855938D01*
X219833072Y-101887624D01*
X219830578Y-101919763D01*
X219829738Y-101952315D01*
X218831371Y-101952315D01*
X218833503Y-101868155D01*
X218839832Y-101785089D01*
X218850253Y-101703223D01*
X218864664Y-101622660D01*
X218882961Y-101543501D01*
X218905041Y-101465853D01*
X218930800Y-101389816D01*
X218960135Y-101315495D01*
X218992943Y-101242994D01*
X219029120Y-101172415D01*
X219068563Y-101103862D01*
X219111169Y-101037438D01*
X219156834Y-100973247D01*
X219205455Y-100911391D01*
X219256928Y-100851975D01*
X219311151Y-100795102D01*
X219368019Y-100740875D01*
X219427430Y-100689397D01*
X219489281Y-100640772D01*
X219553467Y-100595104D01*
X219619885Y-100552494D01*
X219688433Y-100513048D01*
X219759006Y-100476868D01*
X219831502Y-100444057D01*
X219905817Y-100414720D01*
X219981847Y-100388958D01*
X220059490Y-100366877D01*
X220138642Y-100348578D01*
X220219200Y-100334166D01*
X220301059Y-100323744D01*
X220384118Y-100317415D01*
X220468272Y-100315282D01*
X220552427Y-100317415D01*
G37*
G36*
X221672514Y-105911478D02*
G01*
X221698111Y-105913396D01*
X221723316Y-105916556D01*
X221748100Y-105920927D01*
X221772431Y-105926479D01*
X221796280Y-105933182D01*
X221819616Y-105941004D01*
X221842409Y-105949917D01*
X221864628Y-105959889D01*
X221886243Y-105970890D01*
X221907224Y-105982890D01*
X221927540Y-105995858D01*
X221947161Y-106009764D01*
X221966056Y-106024578D01*
X221984196Y-106040269D01*
X222001550Y-106056807D01*
X222018087Y-106074162D01*
X222033777Y-106092302D01*
X222048590Y-106111199D01*
X222062496Y-106130821D01*
X222075463Y-106151138D01*
X222087463Y-106172120D01*
X222098463Y-106193737D01*
X222108435Y-106215957D01*
X222117347Y-106238751D01*
X222125169Y-106262088D01*
X222131871Y-106285939D01*
X222137423Y-106310271D01*
X222141794Y-106335056D01*
X222144953Y-106360263D01*
X222146871Y-106385862D01*
X222147517Y-106411821D01*
X222146861Y-106437781D01*
X222144914Y-106463379D01*
X222141709Y-106488586D01*
X222137278Y-106513371D01*
X222131652Y-106537704D01*
X222124866Y-106561554D01*
X222116950Y-106584891D01*
X222107937Y-106607685D01*
X222097859Y-106629906D01*
X222086750Y-106651522D01*
X222074640Y-106672504D01*
X222061563Y-106692821D01*
X222047550Y-106712443D01*
X222032634Y-106731340D01*
X222016848Y-106749481D01*
X222000222Y-106766835D01*
X221982791Y-106783373D01*
X221964586Y-106799064D01*
X221945640Y-106813878D01*
X221925984Y-106827784D01*
X221905652Y-106840752D01*
X221884674Y-106852752D01*
X221863085Y-106863753D01*
X221840915Y-106873725D01*
X221818198Y-106882638D01*
X221794965Y-106890460D01*
X221771250Y-106897163D01*
X221747083Y-106902715D01*
X221722498Y-106907086D01*
X221697527Y-106910245D01*
X221672203Y-106912164D01*
X221646556Y-106912810D01*
X219282924Y-106912810D01*
X219256966Y-106912164D01*
X219231369Y-106910245D01*
X219206164Y-106907086D01*
X219181380Y-106902715D01*
X219157049Y-106897163D01*
X219133200Y-106890460D01*
X219109864Y-106882638D01*
X219087071Y-106873725D01*
X219064852Y-106863753D01*
X219043237Y-106852752D01*
X219022256Y-106840752D01*
X219001940Y-106827784D01*
X218982319Y-106813878D01*
X218963424Y-106799064D01*
X218945284Y-106783373D01*
X218927930Y-106766835D01*
X218911393Y-106749481D01*
X218895703Y-106731340D01*
X218880890Y-106712443D01*
X218866984Y-106692821D01*
X218854017Y-106672504D01*
X218842017Y-106651522D01*
X218831017Y-106629906D01*
X218821045Y-106607685D01*
X218812133Y-106584891D01*
X218804311Y-106561554D01*
X218797609Y-106537704D01*
X218792057Y-106513371D01*
X218787686Y-106488586D01*
X218784527Y-106463379D01*
X218782609Y-106437781D01*
X218781963Y-106411821D01*
X218782619Y-106385862D01*
X218784566Y-106360263D01*
X218787771Y-106335056D01*
X218792202Y-106310271D01*
X218797828Y-106285939D01*
X218804614Y-106262088D01*
X218812530Y-106238751D01*
X218821543Y-106215957D01*
X218831621Y-106193737D01*
X218842730Y-106172120D01*
X218854840Y-106151138D01*
X218867918Y-106130821D01*
X218881930Y-106111199D01*
X218896846Y-106092302D01*
X218912633Y-106074162D01*
X218929258Y-106056807D01*
X218946689Y-106040269D01*
X218964894Y-106024578D01*
X218983840Y-106009764D01*
X219003496Y-105995858D01*
X219023829Y-105982890D01*
X219044806Y-105970890D01*
X219066395Y-105959889D01*
X219088565Y-105949917D01*
X219111282Y-105941004D01*
X219134515Y-105933182D01*
X219158230Y-105926479D01*
X219182397Y-105920927D01*
X219206982Y-105916556D01*
X219231953Y-105913396D01*
X219257278Y-105911478D01*
X219282924Y-105910832D01*
X221646556Y-105910832D01*
X221672514Y-105911478D01*
G37*
G36*
X85075896Y-113645060D02*
G01*
X85101492Y-113647007D01*
X85126697Y-113650212D01*
X85151480Y-113654644D01*
X85175811Y-113660269D01*
X85199659Y-113667056D01*
X85222995Y-113674972D01*
X85245787Y-113683985D01*
X85268006Y-113694062D01*
X85289620Y-113705172D01*
X85310600Y-113717282D01*
X85330916Y-113730360D01*
X85350536Y-113744373D01*
X85369432Y-113759289D01*
X85387571Y-113775076D01*
X85404924Y-113791701D01*
X85421461Y-113809133D01*
X85437151Y-113827339D01*
X85451963Y-113846286D01*
X85465868Y-113865943D01*
X85478835Y-113886276D01*
X85490834Y-113907255D01*
X85501834Y-113928846D01*
X85511806Y-113951017D01*
X85520717Y-113973735D01*
X85528539Y-113996970D01*
X85535241Y-114020687D01*
X85540793Y-114044855D01*
X85545163Y-114069442D01*
X85548323Y-114094416D01*
X85550241Y-114119743D01*
X85550887Y-114145392D01*
X85550887Y-117902807D01*
X85550241Y-117928766D01*
X85548323Y-117954365D01*
X85545163Y-117979571D01*
X85540793Y-118004356D01*
X85535241Y-118028689D01*
X85528539Y-118052539D01*
X85520717Y-118075876D01*
X85511806Y-118098670D01*
X85501834Y-118120890D01*
X85490834Y-118142507D01*
X85478835Y-118163489D01*
X85465868Y-118183806D01*
X85451963Y-118203428D01*
X85437151Y-118222325D01*
X85421461Y-118240465D01*
X85404924Y-118257820D01*
X85387571Y-118274358D01*
X85369432Y-118290049D01*
X85350536Y-118304863D01*
X85330916Y-118318769D01*
X85310600Y-118331737D01*
X85289620Y-118343737D01*
X85268006Y-118354738D01*
X85245787Y-118364710D01*
X85222995Y-118373623D01*
X85199659Y-118381445D01*
X85175811Y-118388148D01*
X85151480Y-118393700D01*
X85126697Y-118398071D01*
X85101492Y-118401231D01*
X85075896Y-118403149D01*
X85049938Y-118403795D01*
X85023981Y-118403139D01*
X84998385Y-118401192D01*
X84973180Y-118397987D01*
X84948397Y-118393555D01*
X84924066Y-118387930D01*
X84900218Y-118381143D01*
X84876882Y-118373227D01*
X84854090Y-118364214D01*
X84831871Y-118354137D01*
X84810257Y-118343027D01*
X84789277Y-118330917D01*
X84768961Y-118317839D01*
X84749340Y-118303826D01*
X84730445Y-118288910D01*
X84712306Y-118273123D01*
X84694953Y-118256497D01*
X84678416Y-118239066D01*
X84662726Y-118220860D01*
X84647914Y-118201913D01*
X84634009Y-118182256D01*
X84621042Y-118161922D01*
X84609043Y-118140944D01*
X84598043Y-118119353D01*
X84588071Y-118097182D01*
X84579160Y-118074464D01*
X84571338Y-118051229D01*
X84564636Y-118027512D01*
X84559084Y-118003344D01*
X84554714Y-117978757D01*
X84551554Y-117953783D01*
X84549636Y-117928456D01*
X84548990Y-117902807D01*
X84548990Y-114646380D01*
X83190785Y-114646380D01*
X83190785Y-117902807D01*
X83190139Y-117928766D01*
X83188221Y-117954365D01*
X83185062Y-117979571D01*
X83180691Y-118004356D01*
X83175139Y-118028689D01*
X83168437Y-118052539D01*
X83160615Y-118075876D01*
X83151704Y-118098670D01*
X83141732Y-118120890D01*
X83130732Y-118142507D01*
X83118733Y-118163489D01*
X83105766Y-118183806D01*
X83091861Y-118203428D01*
X83077049Y-118222325D01*
X83061359Y-118240465D01*
X83044822Y-118257820D01*
X83027469Y-118274358D01*
X83009330Y-118290049D01*
X82990434Y-118304863D01*
X82970814Y-118318769D01*
X82950498Y-118331737D01*
X82929518Y-118343737D01*
X82907904Y-118354738D01*
X82885685Y-118364710D01*
X82862893Y-118373623D01*
X82839557Y-118381445D01*
X82815709Y-118388148D01*
X82791378Y-118393700D01*
X82766595Y-118398071D01*
X82741390Y-118401231D01*
X82715794Y-118403149D01*
X82689837Y-118403795D01*
X82663879Y-118403139D01*
X82638283Y-118401192D01*
X82613078Y-118397987D01*
X82588295Y-118393555D01*
X82563964Y-118387930D01*
X82540116Y-118381143D01*
X82516780Y-118373227D01*
X82493988Y-118364214D01*
X82471770Y-118354137D01*
X82450155Y-118343027D01*
X82429175Y-118330917D01*
X82408859Y-118317839D01*
X82389239Y-118303826D01*
X82370344Y-118288910D01*
X82352204Y-118273123D01*
X82334851Y-118256497D01*
X82318314Y-118239066D01*
X82302625Y-118220860D01*
X82287812Y-118201913D01*
X82273907Y-118182256D01*
X82260940Y-118161922D01*
X82248941Y-118140944D01*
X82237941Y-118119353D01*
X82227970Y-118097182D01*
X82219058Y-118074464D01*
X82211236Y-118051229D01*
X82204534Y-118027512D01*
X82198983Y-118003344D01*
X82194612Y-117978757D01*
X82191452Y-117953783D01*
X82189534Y-117928456D01*
X82188888Y-117902807D01*
X82188888Y-114646381D01*
X80710738Y-114646381D01*
X80710738Y-117902807D01*
X80710092Y-117928767D01*
X80708174Y-117954365D01*
X80705014Y-117979572D01*
X80700643Y-118004357D01*
X80695092Y-118028690D01*
X80688390Y-118052540D01*
X80680568Y-118075877D01*
X80671656Y-118098671D01*
X80661685Y-118120891D01*
X80650685Y-118142508D01*
X80638686Y-118163490D01*
X80625719Y-118183807D01*
X80611814Y-118203429D01*
X80597001Y-118222325D01*
X80581312Y-118240466D01*
X80564775Y-118257821D01*
X80547422Y-118274359D01*
X80529282Y-118290050D01*
X80510387Y-118304863D01*
X80490767Y-118318770D01*
X80470451Y-118331738D01*
X80449471Y-118343738D01*
X80427856Y-118354739D01*
X80405638Y-118364711D01*
X80382845Y-118373623D01*
X80359510Y-118381446D01*
X80335662Y-118388148D01*
X80311331Y-118393700D01*
X80286548Y-118398071D01*
X80261343Y-118401231D01*
X80235747Y-118403149D01*
X80209789Y-118403795D01*
X80183832Y-118403139D01*
X80158236Y-118401192D01*
X80133031Y-118397987D01*
X80108248Y-118393555D01*
X80083917Y-118387930D01*
X80060069Y-118381143D01*
X80036733Y-118373227D01*
X80013941Y-118364214D01*
X79991722Y-118354137D01*
X79970108Y-118343027D01*
X79949128Y-118330917D01*
X79928812Y-118317839D01*
X79909192Y-118303826D01*
X79890296Y-118288910D01*
X79872157Y-118273123D01*
X79854804Y-118256497D01*
X79838267Y-118239066D01*
X79822577Y-118220860D01*
X79807765Y-118201913D01*
X79793860Y-118182256D01*
X79780893Y-118161922D01*
X79768894Y-118140944D01*
X79757894Y-118119353D01*
X79747922Y-118097182D01*
X79739011Y-118074464D01*
X79731189Y-118051229D01*
X79724487Y-118027512D01*
X79718935Y-118003344D01*
X79714565Y-117978757D01*
X79711405Y-117953783D01*
X79709487Y-117928456D01*
X79708841Y-117902807D01*
X79708841Y-114646380D01*
X79708841Y-114145392D01*
X79709497Y-114119433D01*
X79711444Y-114093835D01*
X79714649Y-114068628D01*
X79719080Y-114043843D01*
X79724705Y-114019510D01*
X79731491Y-113995660D01*
X79739406Y-113972323D01*
X79748419Y-113949529D01*
X79758495Y-113927308D01*
X79769604Y-113905692D01*
X79781713Y-113884710D01*
X79794790Y-113864393D01*
X79808802Y-113844771D01*
X79823717Y-113825874D01*
X79839503Y-113807734D01*
X79856127Y-113790379D01*
X79873557Y-113773841D01*
X79891761Y-113758150D01*
X79910707Y-113743336D01*
X79930362Y-113729430D01*
X79950694Y-113716462D01*
X79971671Y-113704462D01*
X79993260Y-113693461D01*
X80015429Y-113683489D01*
X80038146Y-113674576D01*
X80061379Y-113666754D01*
X80085094Y-113660051D01*
X80109261Y-113654499D01*
X80133846Y-113650128D01*
X80158817Y-113646968D01*
X80184142Y-113645050D01*
X80209789Y-113644404D01*
X85049938Y-113644404D01*
X85075896Y-113645060D01*
G37*
G36*
X215049055Y-113283144D02*
G01*
X215132113Y-113289473D01*
X215213973Y-113299896D01*
X215294531Y-113314308D01*
X215373683Y-113332606D01*
X215451325Y-113354688D01*
X215527356Y-113380449D01*
X215601671Y-113409787D01*
X215674166Y-113442597D01*
X215744740Y-113478777D01*
X215813288Y-113518224D01*
X215879706Y-113560833D01*
X215943892Y-113606502D01*
X216005742Y-113655127D01*
X216065153Y-113706604D01*
X216122022Y-113760832D01*
X216176245Y-113817705D01*
X216227718Y-113877121D01*
X216276339Y-113938976D01*
X216322004Y-114003167D01*
X216364610Y-114069591D01*
X216404053Y-114138144D01*
X216440230Y-114208723D01*
X216473038Y-114281224D01*
X216502373Y-114355545D01*
X216528132Y-114431582D01*
X216550212Y-114509230D01*
X216568509Y-114588388D01*
X216582919Y-114668952D01*
X216593341Y-114750818D01*
X216599670Y-114833883D01*
X216601802Y-114918044D01*
X216599670Y-115002205D01*
X216593341Y-115085270D01*
X216582919Y-115167136D01*
X216568509Y-115247699D01*
X216550212Y-115326857D01*
X216528132Y-115404507D01*
X216502373Y-115480543D01*
X216473038Y-115554864D01*
X216440230Y-115627365D01*
X216404053Y-115697944D01*
X216364610Y-115766497D01*
X216322004Y-115832921D01*
X216276339Y-115897113D01*
X216227718Y-115958968D01*
X216176245Y-116018384D01*
X216122022Y-116075257D01*
X216065153Y-116129484D01*
X216005742Y-116180962D01*
X215943892Y-116229587D01*
X215879706Y-116275256D01*
X215813288Y-116317865D01*
X215744740Y-116357312D01*
X215674166Y-116393492D01*
X215601671Y-116426303D01*
X215527356Y-116455640D01*
X215451325Y-116481402D01*
X215373683Y-116503483D01*
X215294531Y-116521782D01*
X215213973Y-116536194D01*
X215132113Y-116546616D01*
X215049055Y-116552946D01*
X214964900Y-116555078D01*
X214880746Y-116552946D01*
X214797687Y-116546616D01*
X214715827Y-116536194D01*
X214635269Y-116521782D01*
X214556117Y-116503483D01*
X214478474Y-116481402D01*
X214402443Y-116455640D01*
X214328127Y-116426303D01*
X214255631Y-116393492D01*
X214185057Y-116357312D01*
X214116509Y-116317865D01*
X214050090Y-116275256D01*
X213985903Y-116229587D01*
X213924052Y-116180962D01*
X213864640Y-116129484D01*
X213807771Y-116075257D01*
X213753548Y-116018384D01*
X213702073Y-115958968D01*
X213653452Y-115897113D01*
X213607786Y-115832921D01*
X213565180Y-115766497D01*
X213525736Y-115697944D01*
X213489558Y-115627365D01*
X213456750Y-115554864D01*
X213427414Y-115480543D01*
X213401655Y-115404507D01*
X213379575Y-115326857D01*
X213361277Y-115247699D01*
X213346866Y-115167136D01*
X213336445Y-115085270D01*
X213330116Y-115002205D01*
X213327983Y-114918044D01*
X214329890Y-114918044D01*
X214330721Y-114950606D01*
X214333185Y-114982775D01*
X214337242Y-115014509D01*
X214342851Y-115045765D01*
X214349972Y-115076501D01*
X214358563Y-115106677D01*
X214368585Y-115136249D01*
X214379996Y-115165175D01*
X214392756Y-115193415D01*
X214406824Y-115220925D01*
X214422160Y-115247663D01*
X214438722Y-115273589D01*
X214456470Y-115298659D01*
X214475363Y-115322831D01*
X214495362Y-115346065D01*
X214516423Y-115368317D01*
X214538509Y-115389545D01*
X214561576Y-115409709D01*
X214585586Y-115428765D01*
X214610496Y-115446672D01*
X214636268Y-115463388D01*
X214662858Y-115478870D01*
X214690228Y-115493078D01*
X214718337Y-115505968D01*
X214747143Y-115517498D01*
X214776605Y-115527628D01*
X214806685Y-115536314D01*
X214837339Y-115543516D01*
X214868529Y-115549190D01*
X214900213Y-115553295D01*
X214932350Y-115555788D01*
X214964900Y-115556629D01*
X214997459Y-115555798D01*
X215029625Y-115553333D01*
X215061355Y-115549274D01*
X215092608Y-115543661D01*
X215123341Y-115536533D01*
X215153513Y-115527930D01*
X215183082Y-115517894D01*
X215212006Y-115506464D01*
X215240242Y-115493679D01*
X215267749Y-115479581D01*
X215294485Y-115464209D01*
X215320408Y-115447603D01*
X215345475Y-115429802D01*
X215369645Y-115410849D01*
X215392876Y-115390781D01*
X215415126Y-115369640D01*
X215436353Y-115347465D01*
X215456514Y-115324297D01*
X215475569Y-115300175D01*
X215493474Y-115275139D01*
X215510188Y-115249230D01*
X215525669Y-115222488D01*
X215539875Y-115194953D01*
X215552763Y-115166664D01*
X215564293Y-115137662D01*
X215574422Y-115107987D01*
X215583107Y-115077679D01*
X215590308Y-115046778D01*
X215595981Y-115015324D01*
X215600086Y-114983357D01*
X215602579Y-114950917D01*
X215603420Y-114918044D01*
X215602589Y-114885181D01*
X215600124Y-114852771D01*
X215596065Y-114820851D01*
X215590452Y-114789462D01*
X215583325Y-114758640D01*
X215574724Y-114728426D01*
X215564688Y-114698858D01*
X215553259Y-114669975D01*
X215540476Y-114641816D01*
X215526379Y-114614418D01*
X215511008Y-114587822D01*
X215494403Y-114562065D01*
X215476605Y-114537187D01*
X215457653Y-114513227D01*
X215437587Y-114490222D01*
X215416448Y-114468213D01*
X215394275Y-114447237D01*
X215371109Y-114427333D01*
X215346990Y-114408541D01*
X215321957Y-114390898D01*
X215296051Y-114374444D01*
X215269311Y-114359218D01*
X215241779Y-114345257D01*
X215213493Y-114332602D01*
X215184494Y-114321290D01*
X215154822Y-114311361D01*
X215124517Y-114302853D01*
X215093620Y-114295805D01*
X215062169Y-114290256D01*
X215030205Y-114286244D01*
X214997769Y-114283809D01*
X214964900Y-114282988D01*
X214932040Y-114283819D01*
X214899632Y-114286283D01*
X214867715Y-114290340D01*
X214836327Y-114295950D01*
X214805508Y-114303071D01*
X214775297Y-114311664D01*
X214745731Y-114321686D01*
X214716850Y-114333098D01*
X214688692Y-114345859D01*
X214661297Y-114359929D01*
X214634702Y-114375265D01*
X214608948Y-114391829D01*
X214584071Y-114409578D01*
X214560113Y-114428473D01*
X214537110Y-114448473D01*
X214515102Y-114469536D01*
X214494127Y-114491623D01*
X214474225Y-114514693D01*
X214455434Y-114538704D01*
X214437792Y-114563616D01*
X214421340Y-114589389D01*
X214406114Y-114615982D01*
X214392155Y-114643354D01*
X214379501Y-114671464D01*
X214368190Y-114700272D01*
X214358261Y-114729737D01*
X214349754Y-114759818D01*
X214342706Y-114790475D01*
X214337158Y-114821667D01*
X214333146Y-114853352D01*
X214330711Y-114885492D01*
X214329890Y-114918044D01*
X213327983Y-114918044D01*
X213330116Y-114833883D01*
X213336444Y-114750818D01*
X213346866Y-114668952D01*
X213361277Y-114588388D01*
X213379574Y-114509230D01*
X213401653Y-114431582D01*
X213427413Y-114355545D01*
X213456748Y-114281224D01*
X213489556Y-114208723D01*
X213525733Y-114138144D01*
X213565176Y-114069591D01*
X213607782Y-114003167D01*
X213653447Y-113938976D01*
X213702068Y-113877121D01*
X213753542Y-113817705D01*
X213807765Y-113760832D01*
X213864634Y-113706604D01*
X213924046Y-113655127D01*
X213985896Y-113606502D01*
X214050083Y-113560833D01*
X214116502Y-113518224D01*
X214185050Y-113478777D01*
X214255624Y-113442597D01*
X214328121Y-113409787D01*
X214402437Y-113380449D01*
X214478468Y-113354688D01*
X214556112Y-113332606D01*
X214635265Y-113314308D01*
X214715823Y-113299896D01*
X214797685Y-113289473D01*
X214880745Y-113283144D01*
X214964900Y-113281011D01*
X215049055Y-113283144D01*
G37*
G36*
X217742551Y-108053038D02*
G01*
X217768146Y-108054985D01*
X217793350Y-108058191D01*
X217818133Y-108062622D01*
X217842463Y-108068247D01*
X217866311Y-108075034D01*
X217889646Y-108082950D01*
X217912438Y-108091963D01*
X217934656Y-108102041D01*
X217956270Y-108113151D01*
X217977251Y-108125261D01*
X217997566Y-108138338D01*
X218017187Y-108152351D01*
X218036082Y-108167267D01*
X218054221Y-108183054D01*
X218071575Y-108199680D01*
X218088111Y-108217112D01*
X218103801Y-108235317D01*
X218118614Y-108254265D01*
X218132519Y-108273921D01*
X218145487Y-108294255D01*
X218157486Y-108315234D01*
X218168486Y-108336824D01*
X218178458Y-108358995D01*
X218187370Y-108381714D01*
X218195192Y-108404948D01*
X218201894Y-108428666D01*
X218207445Y-108452834D01*
X218211816Y-108477421D01*
X218214976Y-108502395D01*
X218216894Y-108527722D01*
X218217540Y-108553371D01*
X218217540Y-111404068D01*
X218216884Y-111430027D01*
X218214937Y-111455625D01*
X218211732Y-111480832D01*
X218207301Y-111505617D01*
X218201676Y-111529950D01*
X218194890Y-111553800D01*
X218186974Y-111577137D01*
X218177962Y-111599931D01*
X218167885Y-111622152D01*
X218156776Y-111643768D01*
X218144667Y-111664750D01*
X218131590Y-111685067D01*
X218117578Y-111704689D01*
X218102663Y-111723586D01*
X218086877Y-111741727D01*
X218070253Y-111759081D01*
X218052822Y-111775619D01*
X218034618Y-111791310D01*
X218015672Y-111806124D01*
X217996017Y-111820030D01*
X217975685Y-111832998D01*
X217954709Y-111844998D01*
X217933120Y-111855999D01*
X217910951Y-111865971D01*
X217888234Y-111874884D01*
X217865002Y-111882706D01*
X217841287Y-111889409D01*
X217817121Y-111894961D01*
X217792536Y-111899332D01*
X217767565Y-111902492D01*
X217742240Y-111904410D01*
X217716594Y-111905056D01*
X217690636Y-111904400D01*
X217665039Y-111902453D01*
X217639834Y-111899248D01*
X217615050Y-111894816D01*
X217590719Y-111889191D01*
X217566870Y-111882404D01*
X217543534Y-111874488D01*
X217520741Y-111865475D01*
X217498522Y-111855397D01*
X217476907Y-111844288D01*
X217455926Y-111832178D01*
X217435610Y-111819100D01*
X217415989Y-111805087D01*
X217397094Y-111790171D01*
X217378954Y-111774384D01*
X217361600Y-111757758D01*
X217345063Y-111740326D01*
X217329373Y-111722121D01*
X217314560Y-111703173D01*
X217300654Y-111683517D01*
X217287687Y-111663183D01*
X217275687Y-111642205D01*
X217264687Y-111620614D01*
X217254715Y-111598443D01*
X217245803Y-111575724D01*
X217237981Y-111552490D01*
X217231279Y-111528773D01*
X217225727Y-111504604D01*
X217221356Y-111480017D01*
X217218197Y-111455044D01*
X217216279Y-111429717D01*
X217215633Y-111404068D01*
X217215633Y-108553371D01*
X217216279Y-108527412D01*
X217218197Y-108501813D01*
X217221356Y-108476606D01*
X217225727Y-108451821D01*
X217231279Y-108427488D01*
X217237981Y-108403638D01*
X217245803Y-108380301D01*
X217254715Y-108357507D01*
X217264687Y-108335286D01*
X217275687Y-108313670D01*
X217287687Y-108292688D01*
X217300654Y-108272371D01*
X217314560Y-108252749D01*
X217329373Y-108233852D01*
X217345063Y-108215711D01*
X217361600Y-108198357D01*
X217378954Y-108181819D01*
X217397094Y-108166128D01*
X217415989Y-108151314D01*
X217435610Y-108137408D01*
X217455926Y-108124440D01*
X217476907Y-108112440D01*
X217498522Y-108101439D01*
X217520741Y-108091467D01*
X217543534Y-108082554D01*
X217566870Y-108074732D01*
X217590719Y-108068029D01*
X217615050Y-108062477D01*
X217639834Y-108058106D01*
X217665039Y-108054947D01*
X217690636Y-108053028D01*
X217716594Y-108052382D01*
X217742551Y-108053038D01*
G37*
G36*
X216176205Y-105911478D02*
G01*
X216201801Y-105913396D01*
X216227005Y-105916556D01*
X216251787Y-105920927D01*
X216276118Y-105926479D01*
X216299965Y-105933182D01*
X216323301Y-105941004D01*
X216346093Y-105949917D01*
X216368311Y-105959889D01*
X216389925Y-105970890D01*
X216410905Y-105982890D01*
X216431221Y-105995858D01*
X216450841Y-106009764D01*
X216469737Y-106024578D01*
X216487876Y-106040269D01*
X216505229Y-106056807D01*
X216521766Y-106074162D01*
X216537456Y-106092302D01*
X216552269Y-106111199D01*
X216566174Y-106130821D01*
X216579141Y-106151138D01*
X216591141Y-106172120D01*
X216602141Y-106193737D01*
X216612112Y-106215957D01*
X216621024Y-106238751D01*
X216628846Y-106262088D01*
X216635549Y-106285939D01*
X216641100Y-106310271D01*
X216645471Y-106335056D01*
X216648631Y-106360263D01*
X216650549Y-106385862D01*
X216651195Y-106411821D01*
X216650539Y-106437781D01*
X216648592Y-106463379D01*
X216645387Y-106488586D01*
X216640956Y-106513371D01*
X216635331Y-106537704D01*
X216628545Y-106561554D01*
X216620629Y-106584891D01*
X216611617Y-106607685D01*
X216601540Y-106629906D01*
X216590431Y-106651522D01*
X216578321Y-106672504D01*
X216565245Y-106692821D01*
X216551233Y-106712443D01*
X216536318Y-106731340D01*
X216520532Y-106749481D01*
X216503907Y-106766835D01*
X216486477Y-106783373D01*
X216468273Y-106799064D01*
X216449327Y-106813878D01*
X216429672Y-106827784D01*
X216409340Y-106840752D01*
X216388363Y-106852752D01*
X216366774Y-106863753D01*
X216344605Y-106873725D01*
X216321889Y-106882638D01*
X216298657Y-106890460D01*
X216274941Y-106897163D01*
X216250775Y-106902715D01*
X216226191Y-106907086D01*
X216201220Y-106910245D01*
X216175895Y-106912164D01*
X216150249Y-106912810D01*
X213786601Y-106912810D01*
X213760645Y-106912164D01*
X213735049Y-106910245D01*
X213709845Y-106907086D01*
X213685063Y-106902715D01*
X213660733Y-106897163D01*
X213636885Y-106890460D01*
X213613549Y-106882638D01*
X213590758Y-106873725D01*
X213568539Y-106863753D01*
X213546925Y-106852752D01*
X213525945Y-106840752D01*
X213505629Y-106827784D01*
X213486009Y-106813878D01*
X213467114Y-106799064D01*
X213448974Y-106783373D01*
X213431621Y-106766835D01*
X213415084Y-106749481D01*
X213399394Y-106731340D01*
X213384581Y-106712443D01*
X213370676Y-106692821D01*
X213357709Y-106672504D01*
X213345710Y-106651522D01*
X213334709Y-106629906D01*
X213324738Y-106607685D01*
X213315826Y-106584891D01*
X213308004Y-106561554D01*
X213301301Y-106537704D01*
X213295750Y-106513371D01*
X213291379Y-106488586D01*
X213288219Y-106463379D01*
X213286301Y-106437781D01*
X213285655Y-106411821D01*
X213286311Y-106385862D01*
X213288258Y-106360263D01*
X213291463Y-106335056D01*
X213295894Y-106310271D01*
X213301519Y-106285939D01*
X213308306Y-106262088D01*
X213316221Y-106238751D01*
X213325233Y-106215957D01*
X213335310Y-106193737D01*
X213346419Y-106172120D01*
X213358529Y-106151138D01*
X213371605Y-106130821D01*
X213385617Y-106111199D01*
X213400532Y-106092302D01*
X213416318Y-106074162D01*
X213432943Y-106056807D01*
X213450373Y-106040269D01*
X213468577Y-106024578D01*
X213487523Y-106009764D01*
X213507178Y-105995858D01*
X213527510Y-105982890D01*
X213548487Y-105970890D01*
X213570076Y-105959889D01*
X213592245Y-105949917D01*
X213614961Y-105941004D01*
X213638194Y-105933182D01*
X213661909Y-105926479D01*
X213686075Y-105920927D01*
X213710659Y-105916556D01*
X213735630Y-105913396D01*
X213760955Y-105911478D01*
X213786601Y-105910832D01*
X216150249Y-105910832D01*
X216176205Y-105911478D01*
G37*
G36*
X86095121Y-100633455D02*
G01*
X86120446Y-100635373D01*
X86145418Y-100638533D01*
X86170003Y-100642904D01*
X86194169Y-100648456D01*
X86217885Y-100655158D01*
X86241117Y-100662981D01*
X86263834Y-100671893D01*
X86286003Y-100681865D01*
X86307592Y-100692866D01*
X86328569Y-100704866D01*
X86348901Y-100717834D01*
X86368556Y-100731740D01*
X86387502Y-100746554D01*
X86405706Y-100762245D01*
X86423136Y-100778784D01*
X86439761Y-100796138D01*
X86455547Y-100814279D01*
X86470462Y-100833176D01*
X86484474Y-100852798D01*
X86497550Y-100873115D01*
X86509659Y-100894097D01*
X86520768Y-100915713D01*
X86530845Y-100937933D01*
X86539857Y-100960728D01*
X86547772Y-100984065D01*
X86554559Y-101007915D01*
X86560183Y-101032248D01*
X86564615Y-101057033D01*
X86567820Y-101082240D01*
X86569766Y-101107838D01*
X86570422Y-101133798D01*
X86569776Y-101159757D01*
X86567858Y-101185355D01*
X86564699Y-101210562D01*
X86560328Y-101235347D01*
X86554777Y-101259680D01*
X86548075Y-101283530D01*
X86540253Y-101306868D01*
X86531341Y-101329662D01*
X86521370Y-101351882D01*
X86510370Y-101373498D01*
X86498371Y-101394480D01*
X86485404Y-101414797D01*
X86471499Y-101434420D01*
X86456686Y-101453316D01*
X86440996Y-101471457D01*
X86424460Y-101488812D01*
X86407106Y-101505350D01*
X86388967Y-101521041D01*
X86370072Y-101535854D01*
X86350452Y-101549761D01*
X86330136Y-101562729D01*
X86309156Y-101574729D01*
X86287541Y-101585730D01*
X86265322Y-101595702D01*
X86242530Y-101604614D01*
X86219195Y-101612437D01*
X86195347Y-101619139D01*
X86171016Y-101624691D01*
X86146233Y-101629062D01*
X86121028Y-101632222D01*
X86095431Y-101634140D01*
X86069474Y-101634786D01*
X84848853Y-101634786D01*
X84848853Y-104884157D01*
X84848207Y-104909806D01*
X84846289Y-104935133D01*
X84843129Y-104960107D01*
X84838759Y-104984694D01*
X84833207Y-105008862D01*
X84826505Y-105032580D01*
X84818683Y-105055814D01*
X84809771Y-105078533D01*
X84799800Y-105100704D01*
X84788800Y-105122295D01*
X84776801Y-105143273D01*
X84763834Y-105163607D01*
X84749929Y-105183263D01*
X84735117Y-105202211D01*
X84719427Y-105220416D01*
X84702890Y-105237848D01*
X84685537Y-105254474D01*
X84667397Y-105270261D01*
X84648502Y-105285177D01*
X84628882Y-105299190D01*
X84608566Y-105312267D01*
X84587586Y-105324377D01*
X84565971Y-105335487D01*
X84543753Y-105345565D01*
X84520961Y-105354578D01*
X84497625Y-105362494D01*
X84473777Y-105369281D01*
X84449446Y-105374906D01*
X84424663Y-105379337D01*
X84399458Y-105382542D01*
X84373862Y-105384489D01*
X84347904Y-105385145D01*
X84321947Y-105384499D01*
X84296351Y-105382581D01*
X84271146Y-105379421D01*
X84246363Y-105375050D01*
X84222032Y-105369499D01*
X84198184Y-105362796D01*
X84174848Y-105354973D01*
X84152056Y-105346061D01*
X84129838Y-105336089D01*
X84108223Y-105325088D01*
X84087243Y-105313088D01*
X84066927Y-105300120D01*
X84047307Y-105286214D01*
X84028412Y-105271400D01*
X84010272Y-105255709D01*
X83992919Y-105239171D01*
X83976383Y-105221816D01*
X83960693Y-105203676D01*
X83945880Y-105184779D01*
X83931975Y-105165157D01*
X83919008Y-105144840D01*
X83907009Y-105123858D01*
X83896009Y-105102242D01*
X83886038Y-105080021D01*
X83877126Y-105057227D01*
X83869304Y-105033890D01*
X83862602Y-105010040D01*
X83857051Y-104985707D01*
X83852680Y-104960922D01*
X83849520Y-104935715D01*
X83847603Y-104910116D01*
X83846956Y-104884157D01*
X83846956Y-101634786D01*
X82626336Y-101634786D01*
X82600689Y-101634140D01*
X82575363Y-101632222D01*
X82550392Y-101629062D01*
X82525807Y-101624691D01*
X82501641Y-101619139D01*
X82477925Y-101612437D01*
X82454693Y-101604614D01*
X82431976Y-101595702D01*
X82409807Y-101585730D01*
X82388218Y-101574729D01*
X82367241Y-101562729D01*
X82346909Y-101549761D01*
X82327254Y-101535854D01*
X82308308Y-101521041D01*
X82290104Y-101505350D01*
X82272673Y-101488812D01*
X82256049Y-101471457D01*
X82240263Y-101453316D01*
X82225348Y-101434420D01*
X82211336Y-101414797D01*
X82198260Y-101394480D01*
X82186151Y-101373498D01*
X82175042Y-101351882D01*
X82164965Y-101329662D01*
X82155953Y-101306868D01*
X82148037Y-101283530D01*
X82141251Y-101259680D01*
X82135626Y-101235347D01*
X82131195Y-101210562D01*
X82127990Y-101185355D01*
X82126044Y-101159757D01*
X82125387Y-101133798D01*
X82128916Y-101133798D01*
X82129562Y-101108148D01*
X82131480Y-101082821D01*
X82134639Y-101057848D01*
X82139010Y-101033261D01*
X82144561Y-101009092D01*
X82151263Y-100985375D01*
X82159085Y-100962141D01*
X82167997Y-100939422D01*
X82177968Y-100917251D01*
X82188968Y-100895660D01*
X82200967Y-100874682D01*
X82213934Y-100854348D01*
X82227839Y-100834691D01*
X82242652Y-100815744D01*
X82258342Y-100797538D01*
X82274879Y-100780107D01*
X82292232Y-100763481D01*
X82310371Y-100747694D01*
X82329266Y-100732778D01*
X82348887Y-100718765D01*
X82369202Y-100705687D01*
X82390182Y-100693577D01*
X82411797Y-100682467D01*
X82434016Y-100672390D01*
X82456808Y-100663377D01*
X82480143Y-100655461D01*
X82503991Y-100648674D01*
X82528322Y-100643049D01*
X82553105Y-100638617D01*
X82578310Y-100635412D01*
X82603907Y-100633465D01*
X82629864Y-100632809D01*
X86069474Y-100632809D01*
X86095121Y-100633455D01*
G37*
G36*
X218924360Y-99021118D02*
G01*
X218949957Y-99023036D01*
X218975162Y-99026196D01*
X218999946Y-99030567D01*
X219024277Y-99036119D01*
X219048126Y-99042821D01*
X219071462Y-99050644D01*
X219094255Y-99059557D01*
X219116474Y-99069528D01*
X219138089Y-99080530D01*
X219159070Y-99092529D01*
X219179386Y-99105497D01*
X219199007Y-99119404D01*
X219217903Y-99134218D01*
X219236043Y-99149909D01*
X219253396Y-99166447D01*
X219269933Y-99183801D01*
X219285624Y-99201942D01*
X219300437Y-99220839D01*
X219314342Y-99240461D01*
X219327310Y-99260778D01*
X219339309Y-99281760D01*
X219350310Y-99303376D01*
X219360281Y-99325597D01*
X219369193Y-99348390D01*
X219377015Y-99371728D01*
X219383718Y-99395578D01*
X219389269Y-99419911D01*
X219393640Y-99444696D01*
X219396800Y-99469903D01*
X219398718Y-99495501D01*
X219399364Y-99521461D01*
X219398708Y-99547420D01*
X219396761Y-99573018D01*
X219393556Y-99598225D01*
X219389125Y-99623010D01*
X219383500Y-99647343D01*
X219376713Y-99671193D01*
X219368798Y-99694531D01*
X219359785Y-99717325D01*
X219349708Y-99739545D01*
X219338599Y-99761161D01*
X219326490Y-99782143D01*
X219313413Y-99802461D01*
X219299401Y-99822083D01*
X219284485Y-99840979D01*
X219268699Y-99859120D01*
X219252075Y-99876475D01*
X219234644Y-99893013D01*
X219216439Y-99908704D01*
X219197493Y-99923518D01*
X219177837Y-99937424D01*
X219157505Y-99950392D01*
X219136527Y-99962392D01*
X219114938Y-99973393D01*
X219092768Y-99983365D01*
X219070050Y-99992277D01*
X219046817Y-100000100D01*
X219023101Y-100006802D01*
X218998934Y-100012354D01*
X218974348Y-100016725D01*
X218949376Y-100019885D01*
X218924050Y-100021803D01*
X218898402Y-100022449D01*
X218217540Y-100022449D01*
X218217540Y-102104024D01*
X218216894Y-102129983D01*
X218214976Y-102155582D01*
X218211816Y-102180788D01*
X218207445Y-102205573D01*
X218201894Y-102229906D01*
X218195192Y-102253756D01*
X218187370Y-102277094D01*
X218178458Y-102299888D01*
X218168486Y-102322108D01*
X218157486Y-102343725D01*
X218145487Y-102364706D01*
X218132519Y-102385024D01*
X218118614Y-102404646D01*
X218103801Y-102423542D01*
X218088111Y-102441683D01*
X218071575Y-102459038D01*
X218054221Y-102475576D01*
X218036082Y-102491267D01*
X218017187Y-102506081D01*
X217997566Y-102519987D01*
X217977251Y-102532955D01*
X217956270Y-102544955D01*
X217934656Y-102555956D01*
X217912438Y-102565928D01*
X217889646Y-102574840D01*
X217866311Y-102582663D01*
X217842463Y-102589365D01*
X217818133Y-102594917D01*
X217793350Y-102599288D01*
X217768146Y-102602448D01*
X217742551Y-102604366D01*
X217716594Y-102605012D01*
X217690636Y-102604356D01*
X217665039Y-102602409D01*
X217639834Y-102599204D01*
X217615050Y-102594773D01*
X217590719Y-102589147D01*
X217566870Y-102582361D01*
X217543534Y-102574445D01*
X217520741Y-102565432D01*
X217498522Y-102555354D01*
X217476907Y-102544244D01*
X217455926Y-102532134D01*
X217435610Y-102519057D01*
X217415989Y-102505043D01*
X217397094Y-102490127D01*
X217378954Y-102474340D01*
X217361600Y-102457715D01*
X217345063Y-102440283D01*
X217329373Y-102422077D01*
X217314560Y-102403130D01*
X217300654Y-102383473D01*
X217287687Y-102363140D01*
X217275687Y-102342161D01*
X217264687Y-102320570D01*
X217254715Y-102298399D01*
X217245803Y-102275681D01*
X217237981Y-102252446D01*
X217231279Y-102228729D01*
X217225727Y-102204560D01*
X217221356Y-102179974D01*
X217218197Y-102155000D01*
X217216279Y-102129673D01*
X217215633Y-102104024D01*
X217215633Y-100029507D01*
X216534770Y-100029507D01*
X216534770Y-100022449D01*
X216508812Y-100021803D01*
X216483216Y-100019885D01*
X216458011Y-100016725D01*
X216433227Y-100012354D01*
X216408896Y-100006802D01*
X216385048Y-100000100D01*
X216361712Y-99992277D01*
X216338920Y-99983365D01*
X216316702Y-99973393D01*
X216295087Y-99962392D01*
X216274107Y-99950392D01*
X216253791Y-99937424D01*
X216234171Y-99923518D01*
X216215276Y-99908704D01*
X216197137Y-99893013D01*
X216179784Y-99876475D01*
X216163248Y-99859120D01*
X216147558Y-99840979D01*
X216132746Y-99822083D01*
X216118841Y-99802461D01*
X216105874Y-99782143D01*
X216093875Y-99761161D01*
X216082876Y-99739545D01*
X216072905Y-99717325D01*
X216063993Y-99694531D01*
X216056171Y-99671193D01*
X216049469Y-99647343D01*
X216043918Y-99623010D01*
X216039548Y-99598225D01*
X216036388Y-99573018D01*
X216034470Y-99547420D01*
X216033824Y-99521461D01*
X216034480Y-99495501D01*
X216036427Y-99469903D01*
X216039632Y-99444696D01*
X216044063Y-99419911D01*
X216049688Y-99395578D01*
X216056475Y-99371728D01*
X216064390Y-99348390D01*
X216073402Y-99325596D01*
X216083479Y-99303376D01*
X216094588Y-99281760D01*
X216106698Y-99260778D01*
X216119774Y-99240461D01*
X216133786Y-99220839D01*
X216148701Y-99201942D01*
X216164487Y-99183801D01*
X216181112Y-99166447D01*
X216198542Y-99149909D01*
X216216746Y-99134217D01*
X216235692Y-99119404D01*
X216255347Y-99105497D01*
X216275679Y-99092529D01*
X216296656Y-99080530D01*
X216318245Y-99069528D01*
X216340414Y-99059557D01*
X216363130Y-99050644D01*
X216386362Y-99042821D01*
X216410078Y-99036119D01*
X216434244Y-99030567D01*
X216458828Y-99026196D01*
X216483799Y-99023036D01*
X216509124Y-99021118D01*
X216534770Y-99020472D01*
X218898402Y-99020472D01*
X218924360Y-99021118D01*
G37*
G36*
X219118325Y-103444392D02*
G01*
X219142487Y-103446080D01*
X219166618Y-103448942D01*
X219190677Y-103452988D01*
X219214621Y-103458227D01*
X219238407Y-103464669D01*
X219261993Y-103472323D01*
X219285336Y-103481200D01*
X219308393Y-103491308D01*
X219331122Y-103502658D01*
X219353481Y-103515260D01*
X219375164Y-103529289D01*
X219395886Y-103544227D01*
X219415638Y-103560030D01*
X219434410Y-103576657D01*
X219452192Y-103594063D01*
X219468975Y-103612208D01*
X219484749Y-103631048D01*
X219499505Y-103650540D01*
X219513231Y-103670642D01*
X219525920Y-103691311D01*
X219537561Y-103712504D01*
X219548144Y-103734180D01*
X219557660Y-103756295D01*
X219566100Y-103778807D01*
X219573453Y-103801672D01*
X219579709Y-103824849D01*
X219584860Y-103848295D01*
X219588895Y-103871967D01*
X219591805Y-103895822D01*
X219593580Y-103919818D01*
X219594210Y-103943913D01*
X219593685Y-103968062D01*
X219591997Y-103992225D01*
X219589135Y-104016358D01*
X219585090Y-104040419D01*
X219579851Y-104064365D01*
X219573410Y-104088153D01*
X219565756Y-104111741D01*
X219556880Y-104135086D01*
X219546772Y-104158145D01*
X219535423Y-104180877D01*
X219522823Y-104203237D01*
X218143443Y-106489439D01*
X218126053Y-106516552D01*
X218107015Y-106542291D01*
X218086417Y-106566604D01*
X218064346Y-106589438D01*
X218040890Y-106610743D01*
X218016137Y-106630466D01*
X217990175Y-106648556D01*
X217963092Y-106664961D01*
X217934975Y-106679630D01*
X217905913Y-106692511D01*
X217875992Y-106703552D01*
X217845302Y-106712701D01*
X217813929Y-106719907D01*
X217781961Y-106725118D01*
X217749487Y-106728283D01*
X217716594Y-106729349D01*
X217709499Y-106729349D01*
X217693327Y-106729082D01*
X217677228Y-106728283D01*
X217661212Y-106726960D01*
X217645292Y-106725118D01*
X217629478Y-106722765D01*
X217613780Y-106719907D01*
X217598211Y-106716550D01*
X217582780Y-106712701D01*
X217552379Y-106703552D01*
X217522665Y-106692511D01*
X217493726Y-106679631D01*
X217465650Y-106664962D01*
X217438525Y-106648557D01*
X217412438Y-106630467D01*
X217387478Y-106610743D01*
X217363732Y-106589439D01*
X217341288Y-106566604D01*
X217330582Y-106554630D01*
X217320235Y-106542292D01*
X217310257Y-106529598D01*
X217300659Y-106516553D01*
X217291453Y-106503165D01*
X217282649Y-106489439D01*
X215903270Y-104203237D01*
X215890359Y-104180867D01*
X215878739Y-104158107D01*
X215868398Y-104135002D01*
X215859325Y-104111597D01*
X215851506Y-104087935D01*
X215844933Y-104064063D01*
X215839591Y-104040024D01*
X215835471Y-104015863D01*
X215832559Y-103991624D01*
X215830845Y-103967352D01*
X215830318Y-103943092D01*
X215830964Y-103918888D01*
X215832773Y-103894785D01*
X215835734Y-103870828D01*
X215839834Y-103847060D01*
X215845062Y-103823527D01*
X215851406Y-103800273D01*
X215858854Y-103777342D01*
X215867396Y-103754780D01*
X215877019Y-103732630D01*
X215887712Y-103710938D01*
X215899463Y-103689748D01*
X215912260Y-103669104D01*
X215926092Y-103649052D01*
X215940948Y-103629635D01*
X215956815Y-103610898D01*
X215973682Y-103592886D01*
X215991538Y-103575644D01*
X216010370Y-103559216D01*
X216030168Y-103543646D01*
X216050919Y-103528979D01*
X216072612Y-103515260D01*
X216094970Y-103502659D01*
X216117699Y-103491308D01*
X216140756Y-103481200D01*
X216164099Y-103472323D01*
X216187685Y-103464669D01*
X216211471Y-103458227D01*
X216235414Y-103452988D01*
X216259473Y-103448943D01*
X216283603Y-103446080D01*
X216307764Y-103444392D01*
X216331912Y-103443868D01*
X216356004Y-103444498D01*
X216379998Y-103446273D01*
X216403851Y-103449183D01*
X216427521Y-103453218D01*
X216450965Y-103458369D01*
X216474140Y-103464626D01*
X216497004Y-103471979D01*
X216519514Y-103480419D01*
X216541628Y-103489936D01*
X216563302Y-103500520D01*
X216584494Y-103512161D01*
X216605162Y-103524850D01*
X216625263Y-103538578D01*
X216644754Y-103553334D01*
X216663593Y-103569108D01*
X216681737Y-103585892D01*
X216699143Y-103603675D01*
X216715769Y-103622448D01*
X216731572Y-103642201D01*
X216746510Y-103662924D01*
X216760539Y-103684608D01*
X217713039Y-105261664D01*
X218665553Y-103684608D01*
X218679582Y-103662924D01*
X218694518Y-103642201D01*
X218710320Y-103622448D01*
X218726945Y-103603675D01*
X218744351Y-103585892D01*
X218762494Y-103569108D01*
X218781332Y-103553334D01*
X218800823Y-103538578D01*
X218820924Y-103524850D01*
X218841592Y-103512161D01*
X218862784Y-103500520D01*
X218884458Y-103489936D01*
X218906572Y-103480419D01*
X218929082Y-103471979D01*
X218951946Y-103464626D01*
X218975122Y-103458369D01*
X218998566Y-103453218D01*
X219022236Y-103449183D01*
X219046090Y-103446273D01*
X219070085Y-103444498D01*
X219094177Y-103443868D01*
X219118325Y-103444392D01*
G37*
G36*
X218924360Y-112223232D02*
G01*
X218949957Y-112225150D01*
X218975162Y-112228310D01*
X218999946Y-112232681D01*
X219024277Y-112238233D01*
X219048126Y-112244935D01*
X219071462Y-112252758D01*
X219094255Y-112261670D01*
X219116474Y-112271642D01*
X219138089Y-112282643D01*
X219159070Y-112294643D01*
X219179386Y-112307611D01*
X219199007Y-112321517D01*
X219217903Y-112336331D01*
X219236043Y-112352022D01*
X219253396Y-112368560D01*
X219269933Y-112385915D01*
X219285624Y-112404056D01*
X219300437Y-112422952D01*
X219314342Y-112442574D01*
X219327310Y-112462891D01*
X219339309Y-112483873D01*
X219350310Y-112505490D01*
X219360281Y-112527710D01*
X219369193Y-112550504D01*
X219377015Y-112573841D01*
X219383718Y-112597691D01*
X219389269Y-112622024D01*
X219393640Y-112646809D01*
X219396800Y-112672016D01*
X219398718Y-112697614D01*
X219399364Y-112723574D01*
X219398708Y-112749533D01*
X219396761Y-112775131D01*
X219393556Y-112800338D01*
X219389125Y-112825123D01*
X219383500Y-112849456D01*
X219376713Y-112873306D01*
X219368798Y-112896643D01*
X219359785Y-112919437D01*
X219349708Y-112941657D01*
X219338599Y-112963274D01*
X219326490Y-112984256D01*
X219313413Y-113004573D01*
X219299401Y-113024195D01*
X219284485Y-113043091D01*
X219268699Y-113061232D01*
X219252075Y-113078587D01*
X219234644Y-113095125D01*
X219216439Y-113110816D01*
X219197493Y-113125630D01*
X219177837Y-113139536D01*
X219157505Y-113152504D01*
X219136527Y-113164504D01*
X219114938Y-113175505D01*
X219092768Y-113185477D01*
X219070050Y-113194389D01*
X219046817Y-113202212D01*
X219023101Y-113208915D01*
X218998934Y-113214466D01*
X218974348Y-113218837D01*
X218949376Y-113221997D01*
X218924050Y-113223915D01*
X218898402Y-113224561D01*
X216534770Y-113224561D01*
X216508812Y-113223915D01*
X216483216Y-113221997D01*
X216458011Y-113218837D01*
X216433227Y-113214466D01*
X216408896Y-113208915D01*
X216385048Y-113202212D01*
X216361712Y-113194389D01*
X216338920Y-113185477D01*
X216316702Y-113175505D01*
X216295087Y-113164504D01*
X216274107Y-113152504D01*
X216253791Y-113139536D01*
X216234171Y-113125630D01*
X216215276Y-113110816D01*
X216197137Y-113095125D01*
X216179784Y-113078587D01*
X216163248Y-113061232D01*
X216147558Y-113043091D01*
X216132746Y-113024195D01*
X216118841Y-113004573D01*
X216105874Y-112984256D01*
X216093875Y-112963274D01*
X216082876Y-112941657D01*
X216072905Y-112919437D01*
X216063993Y-112896643D01*
X216056171Y-112873306D01*
X216049469Y-112849456D01*
X216043918Y-112825123D01*
X216039548Y-112800338D01*
X216036388Y-112775131D01*
X216034470Y-112749533D01*
X216033824Y-112723574D01*
X216034480Y-112697614D01*
X216036427Y-112672016D01*
X216039632Y-112646809D01*
X216044063Y-112622024D01*
X216049688Y-112597691D01*
X216056475Y-112573841D01*
X216064390Y-112550504D01*
X216073402Y-112527710D01*
X216083479Y-112505490D01*
X216094588Y-112483873D01*
X216106698Y-112462891D01*
X216119774Y-112442574D01*
X216133786Y-112422952D01*
X216148701Y-112404056D01*
X216164487Y-112385915D01*
X216181112Y-112368560D01*
X216198542Y-112352022D01*
X216216746Y-112336331D01*
X216235692Y-112321517D01*
X216255347Y-112307611D01*
X216275679Y-112294643D01*
X216296656Y-112282643D01*
X216318245Y-112271642D01*
X216340414Y-112261670D01*
X216363130Y-112252758D01*
X216386362Y-112244935D01*
X216410078Y-112238233D01*
X216434244Y-112232681D01*
X216458828Y-112228310D01*
X216483799Y-112225150D01*
X216509124Y-112223232D01*
X216534770Y-112222586D01*
X218898402Y-112222586D01*
X218924360Y-112223232D01*
G37*
G36*
X215049039Y-107281862D02*
G01*
X215132098Y-107288192D01*
X215213958Y-107298614D01*
X215294515Y-107313026D01*
X215373667Y-107331325D01*
X215451310Y-107353406D01*
X215527341Y-107379167D01*
X215601656Y-107408505D01*
X215674151Y-107441316D01*
X215744725Y-107477496D01*
X215813272Y-107516942D01*
X215879691Y-107559551D01*
X215943877Y-107605220D01*
X216005727Y-107653845D01*
X216065138Y-107705323D01*
X216122007Y-107759550D01*
X216176229Y-107816423D01*
X216227703Y-107875839D01*
X216276324Y-107937694D01*
X216321989Y-108001886D01*
X216364594Y-108068309D01*
X216404038Y-108136863D01*
X216440215Y-108207442D01*
X216473022Y-108279943D01*
X216502358Y-108354264D01*
X216528117Y-108430300D01*
X216550196Y-108507949D01*
X216568493Y-108587107D01*
X216582904Y-108667671D01*
X216593326Y-108749537D01*
X216599654Y-108832602D01*
X216601787Y-108916763D01*
X216599654Y-109000924D01*
X216593326Y-109083989D01*
X216582904Y-109165855D01*
X216568493Y-109246419D01*
X216550196Y-109325577D01*
X216528117Y-109403226D01*
X216502358Y-109479262D01*
X216473022Y-109553583D01*
X216440215Y-109626085D01*
X216404038Y-109696664D01*
X216364594Y-109765217D01*
X216321989Y-109831641D01*
X216276324Y-109895832D01*
X216227703Y-109957687D01*
X216176229Y-110017103D01*
X216122007Y-110073976D01*
X216065138Y-110128203D01*
X216005727Y-110179681D01*
X215943877Y-110228306D01*
X215879691Y-110273975D01*
X215813272Y-110316584D01*
X215744725Y-110356031D01*
X215674151Y-110392211D01*
X215601656Y-110425021D01*
X215527341Y-110454359D01*
X215451310Y-110480120D01*
X215373667Y-110502202D01*
X215294515Y-110520500D01*
X215213958Y-110534912D01*
X215132098Y-110545335D01*
X215049039Y-110551664D01*
X214964885Y-110553797D01*
X214880729Y-110551664D01*
X214797669Y-110545335D01*
X214715809Y-110534912D01*
X214635250Y-110520500D01*
X214556098Y-110502202D01*
X214478454Y-110480120D01*
X214402423Y-110454359D01*
X214328108Y-110425021D01*
X214255612Y-110392211D01*
X214185039Y-110356031D01*
X214116491Y-110316584D01*
X214050073Y-110273975D01*
X213985887Y-110228306D01*
X213924037Y-110179681D01*
X213864626Y-110128203D01*
X213807758Y-110073976D01*
X213753535Y-110017103D01*
X213702062Y-109957687D01*
X213653442Y-109895832D01*
X213607777Y-109831641D01*
X213565172Y-109765217D01*
X213525729Y-109696664D01*
X213489553Y-109626085D01*
X213456745Y-109553583D01*
X213427411Y-109479262D01*
X213401652Y-109403226D01*
X213379573Y-109325577D01*
X213361276Y-109246419D01*
X213346865Y-109165855D01*
X213336444Y-109083989D01*
X213330116Y-109000924D01*
X213327983Y-108916763D01*
X214329890Y-108916763D01*
X214330721Y-108949626D01*
X214333185Y-108982036D01*
X214337242Y-109013956D01*
X214342851Y-109045346D01*
X214349972Y-109076167D01*
X214358563Y-109106381D01*
X214368585Y-109135949D01*
X214379996Y-109164832D01*
X214392756Y-109192992D01*
X214406824Y-109220389D01*
X214422160Y-109246986D01*
X214438722Y-109272742D01*
X214456470Y-109297620D01*
X214475363Y-109321581D01*
X214495362Y-109344585D01*
X214516423Y-109366595D01*
X214538509Y-109387571D01*
X214561576Y-109407474D01*
X214585586Y-109426267D01*
X214610496Y-109443910D01*
X214636268Y-109460364D01*
X214662858Y-109475590D01*
X214690228Y-109489550D01*
X214718337Y-109502206D01*
X214747143Y-109513518D01*
X214776605Y-109523447D01*
X214806685Y-109531955D01*
X214837339Y-109539003D01*
X214868529Y-109544552D01*
X214900213Y-109548564D01*
X214932350Y-109550999D01*
X214964900Y-109551820D01*
X214997459Y-109550989D01*
X215029625Y-109548525D01*
X215061355Y-109544468D01*
X215092608Y-109538858D01*
X215123341Y-109531737D01*
X215153513Y-109523144D01*
X215183082Y-109513122D01*
X215212006Y-109501710D01*
X215240242Y-109488949D01*
X215267749Y-109474880D01*
X215294485Y-109459543D01*
X215320408Y-109442980D01*
X215345475Y-109425230D01*
X215369645Y-109406335D01*
X215392876Y-109386335D01*
X215415126Y-109365272D01*
X215436353Y-109343185D01*
X215456514Y-109320116D01*
X215475569Y-109296104D01*
X215493474Y-109271192D01*
X215510188Y-109245419D01*
X215525669Y-109218826D01*
X215539875Y-109191454D01*
X215552763Y-109163344D01*
X215564293Y-109134536D01*
X215574422Y-109105071D01*
X215583107Y-109074989D01*
X215590308Y-109044333D01*
X215595981Y-109013141D01*
X215600086Y-108981455D01*
X215602579Y-108949315D01*
X215603420Y-108916763D01*
X215602589Y-108883890D01*
X215600124Y-108851450D01*
X215596065Y-108819483D01*
X215590452Y-108788029D01*
X215583325Y-108757128D01*
X215574724Y-108726820D01*
X215564688Y-108697145D01*
X215553259Y-108668143D01*
X215540476Y-108639854D01*
X215526379Y-108612319D01*
X215511008Y-108585577D01*
X215494403Y-108559668D01*
X215476605Y-108534633D01*
X215457653Y-108510511D01*
X215437587Y-108487343D01*
X215416448Y-108465168D01*
X215394275Y-108444026D01*
X215371109Y-108423959D01*
X215346990Y-108405005D01*
X215321957Y-108387205D01*
X215296051Y-108370599D01*
X215269311Y-108355227D01*
X215241779Y-108341128D01*
X215213493Y-108328344D01*
X215184494Y-108316914D01*
X215154822Y-108306877D01*
X215124517Y-108298275D01*
X215093620Y-108291147D01*
X215062169Y-108285534D01*
X215030205Y-108281475D01*
X214997769Y-108279009D01*
X214964900Y-108278179D01*
X214932040Y-108279009D01*
X214899632Y-108281475D01*
X214867715Y-108285534D01*
X214836327Y-108291147D01*
X214805508Y-108298275D01*
X214775297Y-108306877D01*
X214745731Y-108316914D01*
X214716850Y-108328344D01*
X214688692Y-108341128D01*
X214661297Y-108355227D01*
X214634702Y-108370599D01*
X214608948Y-108387205D01*
X214584071Y-108405005D01*
X214560113Y-108423959D01*
X214537110Y-108444026D01*
X214515102Y-108465168D01*
X214494127Y-108487343D01*
X214474225Y-108510511D01*
X214455434Y-108534633D01*
X214437792Y-108559668D01*
X214421340Y-108585577D01*
X214406114Y-108612319D01*
X214392155Y-108639854D01*
X214379501Y-108668143D01*
X214368190Y-108697145D01*
X214358261Y-108726820D01*
X214349754Y-108757128D01*
X214342706Y-108788029D01*
X214337158Y-108819483D01*
X214333146Y-108851450D01*
X214330711Y-108883890D01*
X214329890Y-108916763D01*
X213327983Y-108916763D01*
X213330116Y-108832602D01*
X213336444Y-108749537D01*
X213346865Y-108667671D01*
X213361276Y-108587107D01*
X213379573Y-108507949D01*
X213401652Y-108430300D01*
X213427411Y-108354264D01*
X213456745Y-108279943D01*
X213489553Y-108207442D01*
X213525729Y-108136863D01*
X213565172Y-108068309D01*
X213607777Y-108001886D01*
X213653442Y-107937694D01*
X213702062Y-107875839D01*
X213753535Y-107816423D01*
X213807758Y-107759550D01*
X213864626Y-107705323D01*
X213924037Y-107653845D01*
X213985887Y-107605220D01*
X214050073Y-107559551D01*
X214116491Y-107516942D01*
X214185039Y-107477496D01*
X214255612Y-107441316D01*
X214328108Y-107408505D01*
X214402423Y-107379167D01*
X214478454Y-107353406D01*
X214556098Y-107331325D01*
X214635250Y-107313026D01*
X214715809Y-107298614D01*
X214797669Y-107288192D01*
X214880729Y-107281862D01*
X214964885Y-107279730D01*
X215049039Y-107281862D01*
G37*
G36*
X87164357Y-106334847D02*
G01*
X87189953Y-106336765D01*
X87215158Y-106339925D01*
X87239941Y-106344296D01*
X87264272Y-106349848D01*
X87288120Y-106356551D01*
X87311456Y-106364373D01*
X87334248Y-106373286D01*
X87356466Y-106383258D01*
X87378081Y-106394259D01*
X87399061Y-106406259D01*
X87419377Y-106419227D01*
X87438997Y-106433133D01*
X87457892Y-106447947D01*
X87476032Y-106463638D01*
X87493385Y-106480176D01*
X87509921Y-106497531D01*
X87525611Y-106515671D01*
X87540424Y-106534568D01*
X87554329Y-106554190D01*
X87567296Y-106574507D01*
X87579295Y-106595489D01*
X87590295Y-106617105D01*
X87600266Y-106639326D01*
X87609178Y-106662120D01*
X87617000Y-106685457D01*
X87623702Y-106709308D01*
X87629253Y-106733640D01*
X87633624Y-106758425D01*
X87636783Y-106783632D01*
X87638701Y-106809231D01*
X87639347Y-106835190D01*
X87638691Y-106861150D01*
X87636745Y-106886748D01*
X87633540Y-106911955D01*
X87629108Y-106936740D01*
X87623484Y-106961073D01*
X87616697Y-106984923D01*
X87608782Y-107008260D01*
X87599770Y-107031054D01*
X87589693Y-107053275D01*
X87578584Y-107074891D01*
X87566475Y-107095873D01*
X87553398Y-107116190D01*
X87539386Y-107135812D01*
X87524472Y-107154709D01*
X87508686Y-107172850D01*
X87492062Y-107190204D01*
X87474631Y-107206742D01*
X87456427Y-107222433D01*
X87437481Y-107237247D01*
X87417826Y-107251153D01*
X87397494Y-107264121D01*
X87376517Y-107276121D01*
X87354928Y-107287122D01*
X87332759Y-107297094D01*
X87310042Y-107306007D01*
X87286810Y-107313829D01*
X87263094Y-107320532D01*
X87238928Y-107326084D01*
X87214343Y-107330455D01*
X87189372Y-107333614D01*
X87164046Y-107335533D01*
X87138399Y-107336179D01*
X85917778Y-107336179D01*
X85917778Y-110987752D01*
X85917132Y-111013711D01*
X85915214Y-111039309D01*
X85912055Y-111064516D01*
X85907684Y-111089301D01*
X85902133Y-111113634D01*
X85895431Y-111137484D01*
X85887609Y-111160821D01*
X85878697Y-111183615D01*
X85868726Y-111205836D01*
X85857726Y-111227452D01*
X85845727Y-111248434D01*
X85832760Y-111268751D01*
X85818855Y-111288373D01*
X85804042Y-111307270D01*
X85788352Y-111325410D01*
X85771815Y-111342765D01*
X85754462Y-111359303D01*
X85736323Y-111374994D01*
X85717428Y-111389808D01*
X85697807Y-111403714D01*
X85677492Y-111416682D01*
X85656511Y-111428682D01*
X85634897Y-111439683D01*
X85612678Y-111449655D01*
X85589886Y-111458568D01*
X85566551Y-111466390D01*
X85542702Y-111473093D01*
X85518371Y-111478645D01*
X85493588Y-111483016D01*
X85468384Y-111486175D01*
X85442787Y-111488094D01*
X85416830Y-111488740D01*
X85390872Y-111488084D01*
X85365276Y-111486137D01*
X85340071Y-111482931D01*
X85315288Y-111478500D01*
X85290957Y-111472875D01*
X85267109Y-111466088D01*
X85243773Y-111458172D01*
X85220981Y-111449159D01*
X85198763Y-111439082D01*
X85177148Y-111427972D01*
X85156168Y-111415862D01*
X85135852Y-111402784D01*
X85116232Y-111388771D01*
X85097337Y-111373855D01*
X85079197Y-111358068D01*
X85061844Y-111341442D01*
X85045308Y-111324010D01*
X85029618Y-111305805D01*
X85014805Y-111286857D01*
X85000900Y-111267201D01*
X84987933Y-111246867D01*
X84975934Y-111225889D01*
X84964934Y-111204298D01*
X84954963Y-111182127D01*
X84946051Y-111159408D01*
X84938229Y-111136174D01*
X84931527Y-111112457D01*
X84925976Y-111088288D01*
X84921605Y-111063701D01*
X84918445Y-111038728D01*
X84916527Y-111013401D01*
X84915881Y-110987752D01*
X84915881Y-107336179D01*
X83695261Y-107336179D01*
X83669303Y-107335533D01*
X83643707Y-107333614D01*
X83618502Y-107330455D01*
X83593719Y-107326084D01*
X83569388Y-107320532D01*
X83545540Y-107313829D01*
X83522205Y-107306007D01*
X83499412Y-107297094D01*
X83477194Y-107287122D01*
X83455579Y-107276121D01*
X83434599Y-107264121D01*
X83414284Y-107251153D01*
X83394663Y-107237247D01*
X83375768Y-107222433D01*
X83357629Y-107206742D01*
X83340275Y-107190204D01*
X83323739Y-107172850D01*
X83308049Y-107154709D01*
X83293236Y-107135812D01*
X83279331Y-107116190D01*
X83266364Y-107095873D01*
X83254365Y-107074891D01*
X83243365Y-107053275D01*
X83233394Y-107031054D01*
X83224482Y-107008260D01*
X83216660Y-106984923D01*
X83209958Y-106961073D01*
X83204407Y-106936740D01*
X83200036Y-106911955D01*
X83196876Y-106886748D01*
X83194958Y-106861150D01*
X83194312Y-106835190D01*
X83194968Y-106809231D01*
X83196915Y-106783632D01*
X83200120Y-106758425D01*
X83204551Y-106733640D01*
X83210176Y-106709308D01*
X83216962Y-106685457D01*
X83224878Y-106662120D01*
X83233890Y-106639326D01*
X83243967Y-106617105D01*
X83255076Y-106595489D01*
X83267185Y-106574507D01*
X83280261Y-106554190D01*
X83294273Y-106534568D01*
X83309188Y-106515671D01*
X83324974Y-106497531D01*
X83341598Y-106480176D01*
X83359029Y-106463638D01*
X83377233Y-106447947D01*
X83396179Y-106433133D01*
X83415834Y-106419227D01*
X83436166Y-106406259D01*
X83457143Y-106394259D01*
X83478732Y-106383258D01*
X83500901Y-106373286D01*
X83523618Y-106364373D01*
X83546850Y-106356551D01*
X83570566Y-106349848D01*
X83594732Y-106344296D01*
X83619317Y-106339925D01*
X83644289Y-106336765D01*
X83669614Y-106334847D01*
X83695261Y-106334201D01*
X87138399Y-106334201D01*
X87164357Y-106334847D01*
G37*
G36*
X220548902Y-113283144D02*
G01*
X220631961Y-113289473D01*
X220713821Y-113299896D01*
X220794378Y-113314308D01*
X220873530Y-113332606D01*
X220951173Y-113354688D01*
X221027203Y-113380449D01*
X221101518Y-113409787D01*
X221174014Y-113442597D01*
X221244587Y-113478777D01*
X221313135Y-113518224D01*
X221379553Y-113560833D01*
X221443740Y-113606502D01*
X221505590Y-113655127D01*
X221565001Y-113706604D01*
X221621869Y-113760832D01*
X221676092Y-113817705D01*
X221727565Y-113877121D01*
X221776186Y-113938976D01*
X221821851Y-114003167D01*
X221864457Y-114069591D01*
X221903900Y-114138144D01*
X221940077Y-114208723D01*
X221972885Y-114281224D01*
X222002220Y-114355545D01*
X222027979Y-114431582D01*
X222050059Y-114509230D01*
X222068356Y-114588388D01*
X222082767Y-114668952D01*
X222093188Y-114750818D01*
X222099517Y-114833883D01*
X222101650Y-114918044D01*
X222099517Y-115002205D01*
X222093188Y-115085270D01*
X222082767Y-115167136D01*
X222068356Y-115247700D01*
X222050059Y-115326858D01*
X222027979Y-115404507D01*
X222002220Y-115480544D01*
X221972885Y-115554864D01*
X221940077Y-115627366D01*
X221903900Y-115697945D01*
X221864457Y-115766498D01*
X221821851Y-115832922D01*
X221776186Y-115897113D01*
X221727565Y-115958969D01*
X221676092Y-116018385D01*
X221621869Y-116075258D01*
X221565001Y-116129485D01*
X221505590Y-116180963D01*
X221443740Y-116229588D01*
X221379553Y-116275257D01*
X221313135Y-116317866D01*
X221244587Y-116357312D01*
X221174014Y-116393493D01*
X221101518Y-116426303D01*
X221027203Y-116455641D01*
X220951173Y-116481402D01*
X220873530Y-116503484D01*
X220794378Y-116521782D01*
X220713821Y-116536194D01*
X220631961Y-116546616D01*
X220548902Y-116552946D01*
X220464748Y-116555078D01*
X220380592Y-116552946D01*
X220297532Y-116546616D01*
X220215671Y-116536194D01*
X220135112Y-116521782D01*
X220055959Y-116503483D01*
X219978315Y-116481402D01*
X219902284Y-116455640D01*
X219827968Y-116426303D01*
X219755472Y-116393492D01*
X219684898Y-116357312D01*
X219616349Y-116317865D01*
X219549930Y-116275256D01*
X219485744Y-116229587D01*
X219423893Y-116180962D01*
X219364482Y-116129484D01*
X219307613Y-116075257D01*
X219253390Y-116018384D01*
X219201916Y-115958968D01*
X219153295Y-115897113D01*
X219107630Y-115832921D01*
X219065024Y-115766497D01*
X219025580Y-115697944D01*
X218989403Y-115627365D01*
X218956595Y-115554864D01*
X218927260Y-115480543D01*
X218901501Y-115404507D01*
X218879421Y-115326857D01*
X218861124Y-115247699D01*
X218846713Y-115167136D01*
X218836292Y-115085270D01*
X218829963Y-115002205D01*
X218827831Y-114918044D01*
X219829753Y-114918044D01*
X219830584Y-114950606D01*
X219833048Y-114982775D01*
X219837107Y-115014509D01*
X219842721Y-115045765D01*
X219849848Y-115076501D01*
X219858449Y-115106677D01*
X219868485Y-115136249D01*
X219879914Y-115165175D01*
X219892697Y-115193415D01*
X219906795Y-115220925D01*
X219922166Y-115247663D01*
X219938771Y-115273589D01*
X219956569Y-115298659D01*
X219975521Y-115322831D01*
X219995587Y-115346065D01*
X220016727Y-115368317D01*
X220038900Y-115389545D01*
X220062066Y-115409709D01*
X220086186Y-115428765D01*
X220111220Y-115446672D01*
X220137126Y-115463388D01*
X220163866Y-115478870D01*
X220191400Y-115493078D01*
X220219686Y-115505968D01*
X220248686Y-115517498D01*
X220278359Y-115527628D01*
X220308664Y-115536314D01*
X220339563Y-115543516D01*
X220371015Y-115549190D01*
X220402980Y-115553295D01*
X220435417Y-115555788D01*
X220468288Y-115556629D01*
X220501147Y-115555798D01*
X220533553Y-115553333D01*
X220565469Y-115549274D01*
X220596856Y-115543661D01*
X220627674Y-115536533D01*
X220657884Y-115527930D01*
X220687449Y-115517894D01*
X220716330Y-115506464D01*
X220744487Y-115493679D01*
X220771881Y-115479581D01*
X220798475Y-115464209D01*
X220824229Y-115447603D01*
X220849104Y-115429802D01*
X220873063Y-115410849D01*
X220896065Y-115390781D01*
X220918073Y-115369640D01*
X220939047Y-115347465D01*
X220958949Y-115324297D01*
X220977740Y-115300175D01*
X220995381Y-115275139D01*
X221011834Y-115249230D01*
X221027059Y-115222488D01*
X221041018Y-115194953D01*
X221053672Y-115166664D01*
X221064983Y-115137662D01*
X221074912Y-115107987D01*
X221083419Y-115077679D01*
X221090466Y-115046778D01*
X221096015Y-115015324D01*
X221100026Y-114983357D01*
X221102462Y-114950917D01*
X221103282Y-114918044D01*
X221102452Y-114885181D01*
X221099988Y-114852771D01*
X221095931Y-114820851D01*
X221090322Y-114789462D01*
X221083201Y-114758640D01*
X221074610Y-114728426D01*
X221064588Y-114698858D01*
X221053177Y-114669975D01*
X221040417Y-114641816D01*
X221026349Y-114614418D01*
X221011014Y-114587822D01*
X220994452Y-114562065D01*
X220976704Y-114537187D01*
X220957810Y-114513227D01*
X220937813Y-114490222D01*
X220916751Y-114468213D01*
X220894666Y-114447237D01*
X220871599Y-114427333D01*
X220847590Y-114408541D01*
X220822680Y-114390898D01*
X220796909Y-114374444D01*
X220770319Y-114359218D01*
X220742950Y-114345257D01*
X220714843Y-114332602D01*
X220686037Y-114321290D01*
X220656576Y-114311361D01*
X220626497Y-114302853D01*
X220595844Y-114295805D01*
X220564655Y-114290256D01*
X220532973Y-114286244D01*
X220500836Y-114283809D01*
X220468288Y-114282988D01*
X220435727Y-114283819D01*
X220403561Y-114286283D01*
X220371829Y-114290340D01*
X220340575Y-114295950D01*
X220309841Y-114303071D01*
X220279668Y-114311664D01*
X220250098Y-114321686D01*
X220221173Y-114333098D01*
X220192936Y-114345859D01*
X220165428Y-114359929D01*
X220138692Y-114375265D01*
X220112769Y-114391829D01*
X220087701Y-114409578D01*
X220063530Y-114428473D01*
X220040299Y-114448473D01*
X220018049Y-114469536D01*
X219996822Y-114491623D01*
X219976660Y-114514693D01*
X219957605Y-114538704D01*
X219939700Y-114563616D01*
X219922986Y-114589389D01*
X219907505Y-114615982D01*
X219893299Y-114643354D01*
X219880410Y-114671464D01*
X219868880Y-114700272D01*
X219858751Y-114729737D01*
X219850066Y-114759818D01*
X219842865Y-114790475D01*
X219837192Y-114821667D01*
X219833087Y-114853352D01*
X219830594Y-114885492D01*
X219829753Y-114918044D01*
X218827831Y-114918044D01*
X218829963Y-114833883D01*
X218836292Y-114750818D01*
X218846713Y-114668952D01*
X218861124Y-114588388D01*
X218879421Y-114509230D01*
X218901501Y-114431582D01*
X218927260Y-114355545D01*
X218956595Y-114281224D01*
X218989403Y-114208723D01*
X219025580Y-114138144D01*
X219065024Y-114069591D01*
X219107630Y-114003167D01*
X219153295Y-113938976D01*
X219201916Y-113877121D01*
X219253390Y-113817705D01*
X219307613Y-113760832D01*
X219364482Y-113706604D01*
X219423893Y-113655127D01*
X219485744Y-113606502D01*
X219549930Y-113560833D01*
X219616349Y-113518224D01*
X219684898Y-113478777D01*
X219755472Y-113442597D01*
X219827968Y-113409787D01*
X219902284Y-113380449D01*
X219978315Y-113354688D01*
X220055959Y-113332606D01*
X220135112Y-113314308D01*
X220215671Y-113299896D01*
X220297532Y-113289473D01*
X220380592Y-113283144D01*
X220464748Y-113281011D01*
X220548902Y-113283144D01*
G37*
G36*
X217742552Y-113648589D02*
G01*
X217768149Y-113650536D01*
X217793354Y-113653741D01*
X217818138Y-113658173D01*
X217842469Y-113663798D01*
X217866318Y-113670585D01*
X217889654Y-113678501D01*
X217912446Y-113687514D01*
X217934666Y-113697591D01*
X217956281Y-113708701D01*
X217977262Y-113720811D01*
X217997578Y-113733889D01*
X218017199Y-113747902D01*
X218036094Y-113762818D01*
X218054234Y-113778605D01*
X218071588Y-113795230D01*
X218088125Y-113812662D01*
X218103815Y-113830868D01*
X218118628Y-113849815D01*
X218132534Y-113869472D01*
X218145501Y-113889806D01*
X218157501Y-113910784D01*
X218168501Y-113932375D01*
X218178472Y-113954546D01*
X218187385Y-113977264D01*
X218195207Y-114000498D01*
X218201909Y-114024216D01*
X218207461Y-114048384D01*
X218211832Y-114072971D01*
X218214991Y-114097944D01*
X218216909Y-114123272D01*
X218217555Y-114148921D01*
X218217555Y-117013729D01*
X219328807Y-117013729D01*
X219367610Y-117017256D01*
X219370369Y-117016635D01*
X219373325Y-117016092D01*
X219376427Y-117015621D01*
X219379621Y-117015217D01*
X219382857Y-117014875D01*
X219386084Y-117014590D01*
X219392299Y-117014170D01*
X219397853Y-117013915D01*
X219402333Y-117013784D01*
X219406413Y-117013729D01*
X219406459Y-117013729D01*
X219432416Y-117014385D01*
X219458011Y-117016332D01*
X219483215Y-117019537D01*
X219507998Y-117023969D01*
X219532328Y-117029594D01*
X219556176Y-117036381D01*
X219579511Y-117044297D01*
X219602303Y-117053310D01*
X219624521Y-117063387D01*
X219646136Y-117074497D01*
X219667116Y-117086607D01*
X219687431Y-117099685D01*
X219707052Y-117113698D01*
X219725947Y-117128614D01*
X219744086Y-117144401D01*
X219761440Y-117161026D01*
X219777976Y-117178458D01*
X219793666Y-117196664D01*
X219808479Y-117215611D01*
X219822385Y-117235268D01*
X219835352Y-117255602D01*
X219847351Y-117276580D01*
X219858351Y-117298171D01*
X219868323Y-117320342D01*
X219877235Y-117343060D01*
X219885057Y-117366295D01*
X219891759Y-117390012D01*
X219897311Y-117414180D01*
X219901681Y-117438767D01*
X219904841Y-117463741D01*
X219906759Y-117489068D01*
X219907405Y-117514717D01*
X219907405Y-120506536D01*
X219906759Y-120532496D01*
X219904841Y-120558094D01*
X219901681Y-120583301D01*
X219897311Y-120608086D01*
X219891759Y-120632419D01*
X219885057Y-120656269D01*
X219877235Y-120679606D01*
X219868323Y-120702400D01*
X219858351Y-120724621D01*
X219847351Y-120746237D01*
X219835352Y-120767219D01*
X219822385Y-120787536D01*
X219808479Y-120807158D01*
X219793666Y-120826055D01*
X219777976Y-120844195D01*
X219761440Y-120861550D01*
X219744086Y-120878088D01*
X219725947Y-120893779D01*
X219707052Y-120908593D01*
X219687431Y-120922499D01*
X219667116Y-120935467D01*
X219646136Y-120947467D01*
X219624521Y-120958468D01*
X219602303Y-120968440D01*
X219579511Y-120977352D01*
X219556176Y-120985175D01*
X219532328Y-120991877D01*
X219507998Y-120997429D01*
X219483215Y-121001800D01*
X219458011Y-121004960D01*
X219432416Y-121006878D01*
X219406459Y-121007524D01*
X219380501Y-121006868D01*
X219354904Y-121004921D01*
X219329699Y-121001716D01*
X219304916Y-120997285D01*
X219280584Y-120991659D01*
X219256735Y-120984873D01*
X219233399Y-120976957D01*
X219210607Y-120967944D01*
X219188387Y-120957866D01*
X219166772Y-120946756D01*
X219145792Y-120934646D01*
X219125476Y-120921569D01*
X219105854Y-120907555D01*
X219086959Y-120892639D01*
X219068819Y-120876852D01*
X219051465Y-120860227D01*
X219034928Y-120842795D01*
X219019238Y-120824589D01*
X219004425Y-120805642D01*
X218990519Y-120785985D01*
X218977552Y-120765652D01*
X218965553Y-120744673D01*
X218954552Y-120723083D01*
X218944581Y-120700912D01*
X218935669Y-120678193D01*
X218927846Y-120654959D01*
X218921144Y-120631241D01*
X218915592Y-120607073D01*
X218911222Y-120582486D01*
X218908062Y-120557513D01*
X218906144Y-120532185D01*
X218905498Y-120506536D01*
X218905498Y-118015705D01*
X218217571Y-118015705D01*
X218217571Y-120506536D01*
X218216924Y-120532496D01*
X218215007Y-120558094D01*
X218211847Y-120583301D01*
X218207477Y-120608086D01*
X218201925Y-120632419D01*
X218195224Y-120656269D01*
X218187402Y-120679606D01*
X218178490Y-120702400D01*
X218168519Y-120724621D01*
X218157519Y-120746237D01*
X218145521Y-120767219D01*
X218132554Y-120787536D01*
X218118649Y-120807158D01*
X218103837Y-120826055D01*
X218088147Y-120844195D01*
X218071611Y-120861550D01*
X218054258Y-120878088D01*
X218036119Y-120893779D01*
X218017224Y-120908593D01*
X217997603Y-120922499D01*
X217977288Y-120935467D01*
X217956308Y-120947467D01*
X217934693Y-120958468D01*
X217912475Y-120968440D01*
X217889682Y-120977352D01*
X217866347Y-120985175D01*
X217842498Y-120991877D01*
X217818168Y-120997429D01*
X217793384Y-121001800D01*
X217768179Y-121004960D01*
X217742582Y-121006878D01*
X217716624Y-121007524D01*
X217690667Y-121006868D01*
X217665070Y-121004921D01*
X217639864Y-121001716D01*
X217615081Y-120997285D01*
X217590750Y-120991659D01*
X217566901Y-120984873D01*
X217543565Y-120976957D01*
X217520772Y-120967944D01*
X217498553Y-120957866D01*
X217476938Y-120946756D01*
X217455957Y-120934646D01*
X217435641Y-120921569D01*
X217416020Y-120907555D01*
X217397124Y-120892639D01*
X217378984Y-120876852D01*
X217361631Y-120860227D01*
X217345093Y-120842795D01*
X217329403Y-120824589D01*
X217314590Y-120805642D01*
X217300685Y-120785985D01*
X217287717Y-120765652D01*
X217275718Y-120744673D01*
X217264718Y-120723083D01*
X217254746Y-120700912D01*
X217245834Y-120678193D01*
X217238012Y-120654959D01*
X217231309Y-120631241D01*
X217225758Y-120607073D01*
X217221387Y-120582486D01*
X217218227Y-120557513D01*
X217216309Y-120532185D01*
X217215663Y-120506536D01*
X217215663Y-118015705D01*
X216527736Y-118015705D01*
X216527736Y-120506536D01*
X216527090Y-120532496D01*
X216525172Y-120558094D01*
X216522013Y-120583301D01*
X216517642Y-120608086D01*
X216512091Y-120632419D01*
X216505389Y-120656269D01*
X216497567Y-120679606D01*
X216488656Y-120702400D01*
X216478685Y-120724621D01*
X216467685Y-120746237D01*
X216455686Y-120767219D01*
X216442719Y-120787536D01*
X216428815Y-120807158D01*
X216414002Y-120826055D01*
X216398313Y-120844195D01*
X216381776Y-120861550D01*
X216364423Y-120878088D01*
X216346284Y-120893779D01*
X216327389Y-120908593D01*
X216307769Y-120922499D01*
X216287453Y-120935467D01*
X216266473Y-120947467D01*
X216244859Y-120958468D01*
X216222640Y-120968440D01*
X216199848Y-120977352D01*
X216176512Y-120985175D01*
X216152664Y-120991877D01*
X216128333Y-120997429D01*
X216103550Y-121001800D01*
X216078344Y-121004960D01*
X216052748Y-121006878D01*
X216026790Y-121007524D01*
X216000832Y-121006868D01*
X215975235Y-121004921D01*
X215950030Y-121001716D01*
X215925246Y-120997285D01*
X215900915Y-120991659D01*
X215877066Y-120984873D01*
X215853730Y-120976957D01*
X215830937Y-120967944D01*
X215808718Y-120957866D01*
X215787103Y-120946756D01*
X215766122Y-120934646D01*
X215745806Y-120921569D01*
X215726185Y-120907555D01*
X215707290Y-120892639D01*
X215689150Y-120876852D01*
X215671796Y-120860227D01*
X215655259Y-120842795D01*
X215639569Y-120824589D01*
X215624756Y-120805642D01*
X215610850Y-120785985D01*
X215597882Y-120765652D01*
X215585883Y-120744673D01*
X215574883Y-120723083D01*
X215564911Y-120700912D01*
X215555999Y-120678193D01*
X215548177Y-120654959D01*
X215541475Y-120631241D01*
X215535923Y-120607073D01*
X215531552Y-120582486D01*
X215528393Y-120557513D01*
X215526475Y-120532185D01*
X215525829Y-120506536D01*
X215525829Y-117514717D01*
X215526485Y-117488758D01*
X215528431Y-117463159D01*
X215531637Y-117437953D01*
X215536068Y-117413168D01*
X215541693Y-117388835D01*
X215548479Y-117364985D01*
X215556395Y-117341648D01*
X215565407Y-117318854D01*
X215575484Y-117296634D01*
X215586593Y-117275017D01*
X215598703Y-117254035D01*
X215611779Y-117233718D01*
X215625792Y-117214096D01*
X215640707Y-117195199D01*
X215656493Y-117177059D01*
X215673118Y-117159704D01*
X215690549Y-117143166D01*
X215708753Y-117127475D01*
X215727700Y-117112661D01*
X215747355Y-117098755D01*
X215767688Y-117085787D01*
X215788665Y-117073787D01*
X215810255Y-117062786D01*
X215832424Y-117052814D01*
X215855142Y-117043901D01*
X215878375Y-117036079D01*
X215902091Y-117029376D01*
X215926258Y-117023824D01*
X215950844Y-117019453D01*
X215975816Y-117016293D01*
X216001142Y-117014375D01*
X216026790Y-117013729D01*
X216065593Y-117017256D01*
X216068352Y-117016635D01*
X216071308Y-117016092D01*
X216074410Y-117015621D01*
X216077604Y-117015217D01*
X216080840Y-117014875D01*
X216084066Y-117014590D01*
X216090282Y-117014170D01*
X216095836Y-117013915D01*
X216100316Y-117013784D01*
X216104396Y-117013729D01*
X217215648Y-117013729D01*
X217215648Y-114148921D01*
X217216294Y-114122961D01*
X217218212Y-114097363D01*
X217221371Y-114072156D01*
X217225742Y-114047371D01*
X217231293Y-114023039D01*
X217237995Y-113999189D01*
X217245817Y-113975851D01*
X217254728Y-113953057D01*
X217264699Y-113930837D01*
X217275699Y-113909221D01*
X217287698Y-113888239D01*
X217300665Y-113867922D01*
X217314569Y-113848300D01*
X217329382Y-113829403D01*
X217345071Y-113811262D01*
X217361608Y-113793908D01*
X217378961Y-113777370D01*
X217397100Y-113761679D01*
X217415995Y-113746865D01*
X217435615Y-113732959D01*
X217455931Y-113719990D01*
X217476911Y-113707991D01*
X217498525Y-113696989D01*
X217520744Y-113687018D01*
X217543536Y-113678105D01*
X217566872Y-113670282D01*
X217590720Y-113663580D01*
X217615051Y-113658028D01*
X217639834Y-113653657D01*
X217665039Y-113650497D01*
X217690636Y-113648579D01*
X217716594Y-113647933D01*
X217742552Y-113648589D01*
G37*
G36*
X85961374Y-119367610D02*
G01*
X85986971Y-119369528D01*
X86012176Y-119372688D01*
X86036959Y-119377059D01*
X86061289Y-119382611D01*
X86085138Y-119389314D01*
X86108473Y-119397136D01*
X86131265Y-119406049D01*
X86153484Y-119416021D01*
X86175099Y-119427022D01*
X86196079Y-119439021D01*
X86216394Y-119451990D01*
X86236015Y-119465896D01*
X86254910Y-119480710D01*
X86273049Y-119496401D01*
X86290403Y-119512939D01*
X86306939Y-119530293D01*
X86322629Y-119548434D01*
X86337442Y-119567330D01*
X86351347Y-119586953D01*
X86364314Y-119607270D01*
X86376313Y-119628252D01*
X86387313Y-119649868D01*
X86397284Y-119672088D01*
X86406196Y-119694882D01*
X86414018Y-119718219D01*
X86420720Y-119742070D01*
X86426271Y-119766403D01*
X86430642Y-119791188D01*
X86433801Y-119816394D01*
X86435719Y-119841993D01*
X86436365Y-119867952D01*
X86435709Y-119893912D01*
X86433763Y-119919510D01*
X86430558Y-119944717D01*
X86426126Y-119969502D01*
X86420502Y-119993835D01*
X86413715Y-120017685D01*
X86405800Y-120041022D01*
X86396788Y-120063816D01*
X86386711Y-120086036D01*
X86375602Y-120107653D01*
X86363493Y-120128635D01*
X86350416Y-120148952D01*
X86336405Y-120168574D01*
X86321489Y-120187470D01*
X86305704Y-120205611D01*
X86289080Y-120222966D01*
X86271649Y-120239504D01*
X86253445Y-120255195D01*
X86234499Y-120270009D01*
X86214844Y-120283915D01*
X86194512Y-120296883D01*
X86173535Y-120308883D01*
X86151946Y-120319884D01*
X86129777Y-120329856D01*
X86107060Y-120338768D01*
X86083828Y-120346591D01*
X86060112Y-120353293D01*
X86035946Y-120358845D01*
X86011361Y-120363216D01*
X85986389Y-120366376D01*
X85961064Y-120368294D01*
X85935417Y-120368940D01*
X81444521Y-120368940D01*
X81418564Y-120368294D01*
X81392967Y-120366376D01*
X81367763Y-120363216D01*
X81342980Y-120358845D01*
X81318649Y-120353293D01*
X81294800Y-120346591D01*
X81271465Y-120338768D01*
X81248673Y-120329856D01*
X81226454Y-120319884D01*
X81204840Y-120308883D01*
X81183859Y-120296883D01*
X81163544Y-120283915D01*
X81143923Y-120270009D01*
X81125028Y-120255195D01*
X81106889Y-120239504D01*
X81089536Y-120222966D01*
X81072999Y-120205611D01*
X81057309Y-120187470D01*
X81042497Y-120168574D01*
X81028592Y-120148952D01*
X81015624Y-120128635D01*
X81003626Y-120107653D01*
X80992625Y-120086036D01*
X80982654Y-120063816D01*
X80973742Y-120041022D01*
X80965920Y-120017685D01*
X80959219Y-119993835D01*
X80953667Y-119969502D01*
X80949296Y-119944717D01*
X80946137Y-119919510D01*
X80944219Y-119893912D01*
X80943573Y-119867952D01*
X80944229Y-119841993D01*
X80946176Y-119816394D01*
X80949381Y-119791188D01*
X80953812Y-119766403D01*
X80959437Y-119742070D01*
X80966223Y-119718219D01*
X80974138Y-119694882D01*
X80983150Y-119672088D01*
X80993227Y-119649868D01*
X81004336Y-119628252D01*
X81016445Y-119607270D01*
X81029522Y-119586953D01*
X81043534Y-119567330D01*
X81058449Y-119548434D01*
X81074235Y-119530293D01*
X81090859Y-119512939D01*
X81108289Y-119496401D01*
X81126493Y-119480710D01*
X81145439Y-119465896D01*
X81165094Y-119451990D01*
X81185426Y-119439021D01*
X81206403Y-119427022D01*
X81227992Y-119416021D01*
X81250161Y-119406049D01*
X81272878Y-119397136D01*
X81296111Y-119389314D01*
X81319826Y-119382611D01*
X81343993Y-119377059D01*
X81368578Y-119372688D01*
X81393549Y-119369528D01*
X81418874Y-119367610D01*
X81444521Y-119366964D01*
X85935417Y-119366964D01*
X85961374Y-119367610D01*
G37*
G36*
X80980272Y-102491392D02*
G01*
X81089616Y-102499730D01*
X81197385Y-102513459D01*
X81303444Y-102532443D01*
X81407654Y-102556546D01*
X81509881Y-102585632D01*
X81609988Y-102619565D01*
X81707839Y-102658207D01*
X81803297Y-102701423D01*
X81896226Y-102749077D01*
X81986490Y-102801032D01*
X82073952Y-102857151D01*
X82158477Y-102917300D01*
X82239927Y-102981340D01*
X82318167Y-103049136D01*
X82393060Y-103120552D01*
X82464470Y-103195451D01*
X82532261Y-103273698D01*
X82596296Y-103355155D01*
X82656440Y-103439686D01*
X82712555Y-103527155D01*
X82764506Y-103617426D01*
X82812155Y-103710363D01*
X82855368Y-103805828D01*
X82894007Y-103903687D01*
X82927937Y-104003802D01*
X82957021Y-104106037D01*
X82981122Y-104210256D01*
X83000105Y-104316323D01*
X83013833Y-104424101D01*
X83022169Y-104533454D01*
X83024978Y-104644246D01*
X83022169Y-104755038D01*
X83013833Y-104864391D01*
X83000105Y-104972169D01*
X82981122Y-105078236D01*
X82957021Y-105182455D01*
X82927937Y-105284690D01*
X82894007Y-105384805D01*
X82855368Y-105482664D01*
X82812156Y-105578129D01*
X82764506Y-105671066D01*
X82712555Y-105761337D01*
X82656440Y-105848806D01*
X82596297Y-105933338D01*
X82532261Y-106014795D01*
X82464471Y-106093041D01*
X82393060Y-106167940D01*
X82318167Y-106239356D01*
X82239927Y-106307152D01*
X82158477Y-106371193D01*
X82073952Y-106431341D01*
X81986490Y-106487460D01*
X81896226Y-106539415D01*
X81803297Y-106587069D01*
X81707839Y-106630285D01*
X81609989Y-106668928D01*
X81509882Y-106702860D01*
X81407655Y-106731946D01*
X81303444Y-106756049D01*
X81197386Y-106775033D01*
X81089616Y-106788762D01*
X80980272Y-106797100D01*
X80869489Y-106799909D01*
X80758706Y-106797100D01*
X80649362Y-106788762D01*
X80541593Y-106775033D01*
X80435535Y-106756049D01*
X80331324Y-106731946D01*
X80229097Y-106702860D01*
X80128990Y-106668928D01*
X80031139Y-106630285D01*
X79935681Y-106587069D01*
X79842752Y-106539415D01*
X79752489Y-106487460D01*
X79665026Y-106431341D01*
X79580502Y-106371193D01*
X79499051Y-106307152D01*
X79420812Y-106239356D01*
X79345918Y-106167940D01*
X79274508Y-106093041D01*
X79206717Y-106014795D01*
X79142682Y-105933338D01*
X79082539Y-105848806D01*
X79026424Y-105761337D01*
X78974473Y-105671066D01*
X78926823Y-105578129D01*
X78883610Y-105482664D01*
X78844971Y-105384805D01*
X78811042Y-105284690D01*
X78781958Y-105182455D01*
X78757857Y-105078236D01*
X78738874Y-104972169D01*
X78725146Y-104864391D01*
X78716809Y-104755038D01*
X78714090Y-104647774D01*
X79715897Y-104647774D01*
X79717404Y-104707268D01*
X79721876Y-104765966D01*
X79729239Y-104823797D01*
X79739420Y-104880690D01*
X79752345Y-104936572D01*
X79767941Y-104991373D01*
X79786133Y-105045019D01*
X79806848Y-105097440D01*
X79830013Y-105148564D01*
X79855554Y-105198319D01*
X79883397Y-105246633D01*
X79913468Y-105293435D01*
X79945694Y-105338653D01*
X79980002Y-105382215D01*
X80016317Y-105424050D01*
X80054566Y-105464086D01*
X80094676Y-105502251D01*
X80136572Y-105538473D01*
X80180182Y-105572681D01*
X80225431Y-105604803D01*
X80272245Y-105634767D01*
X80320552Y-105662502D01*
X80370278Y-105687936D01*
X80421348Y-105710997D01*
X80473689Y-105731614D01*
X80527229Y-105749714D01*
X80581892Y-105765226D01*
X80637605Y-105778079D01*
X80694295Y-105788201D01*
X80751889Y-105795519D01*
X80810311Y-105799963D01*
X80869489Y-105801460D01*
X80928978Y-105799952D01*
X80987672Y-105795480D01*
X81045498Y-105788116D01*
X81102386Y-105777934D01*
X81158264Y-105765008D01*
X81213060Y-105749412D01*
X81266702Y-105731218D01*
X81319119Y-105710501D01*
X81370239Y-105687334D01*
X81419990Y-105661792D01*
X81468300Y-105633947D01*
X81515098Y-105603873D01*
X81560313Y-105571644D01*
X81603871Y-105537334D01*
X81645703Y-105501015D01*
X81685735Y-105462763D01*
X81723897Y-105422650D01*
X81760116Y-105380750D01*
X81794321Y-105337137D01*
X81826441Y-105291885D01*
X81856403Y-105245066D01*
X81884135Y-105196756D01*
X81909567Y-105147026D01*
X81932626Y-105095952D01*
X81953241Y-105043606D01*
X81971340Y-104990063D01*
X81986851Y-104935395D01*
X81999703Y-104879677D01*
X82009824Y-104822982D01*
X82017141Y-104765385D01*
X82021585Y-104706957D01*
X82023082Y-104647774D01*
X82021574Y-104588581D01*
X82017103Y-104530124D01*
X82009739Y-104472478D01*
X81999558Y-104415719D01*
X81986633Y-104359922D01*
X81971038Y-104305160D01*
X81952846Y-104251509D01*
X81932130Y-104199045D01*
X81908966Y-104147842D01*
X81883425Y-104097974D01*
X81855582Y-104049518D01*
X81825511Y-104002547D01*
X81793284Y-103957137D01*
X81758977Y-103913363D01*
X81722661Y-103871299D01*
X81684412Y-103831021D01*
X81644303Y-103792604D01*
X81602406Y-103756122D01*
X81558797Y-103721650D01*
X81513548Y-103689264D01*
X81466733Y-103659038D01*
X81418427Y-103631047D01*
X81368701Y-103605366D01*
X81317631Y-103582071D01*
X81265289Y-103561235D01*
X81211750Y-103542934D01*
X81157087Y-103527244D01*
X81101374Y-103514238D01*
X81044684Y-103503991D01*
X80987090Y-103496580D01*
X80928668Y-103492078D01*
X80869489Y-103490561D01*
X80810311Y-103492068D01*
X80751889Y-103496541D01*
X80694295Y-103503907D01*
X80637605Y-103514093D01*
X80581892Y-103527026D01*
X80527229Y-103542632D01*
X80473689Y-103560839D01*
X80421348Y-103581575D01*
X80370278Y-103604765D01*
X80320552Y-103630337D01*
X80272245Y-103658217D01*
X80225431Y-103688334D01*
X80180182Y-103720613D01*
X80136572Y-103754983D01*
X80094676Y-103791369D01*
X80054566Y-103829699D01*
X80016317Y-103869899D01*
X79980002Y-103911898D01*
X79945694Y-103955622D01*
X79913468Y-104000997D01*
X79883397Y-104047951D01*
X79855554Y-104096411D01*
X79830013Y-104146304D01*
X79806848Y-104197557D01*
X79786133Y-104250097D01*
X79767941Y-104303850D01*
X79752345Y-104358745D01*
X79739420Y-104414707D01*
X79729239Y-104471664D01*
X79721876Y-104529543D01*
X79717404Y-104588270D01*
X79715897Y-104647774D01*
X78714090Y-104647774D01*
X78714000Y-104644246D01*
X78716809Y-104533454D01*
X78725146Y-104424101D01*
X78738874Y-104316323D01*
X78757857Y-104210256D01*
X78781958Y-104106037D01*
X78811042Y-104003802D01*
X78844971Y-103903687D01*
X78883610Y-103805828D01*
X78926823Y-103710363D01*
X78974473Y-103617426D01*
X79026424Y-103527155D01*
X79082539Y-103439686D01*
X79142682Y-103355155D01*
X79206717Y-103273698D01*
X79274508Y-103195451D01*
X79345918Y-103120552D01*
X79420811Y-103049136D01*
X79499051Y-102981340D01*
X79580502Y-102917300D01*
X79665026Y-102857151D01*
X79752489Y-102801032D01*
X79842752Y-102749077D01*
X79935681Y-102701423D01*
X80031139Y-102658207D01*
X80128990Y-102619565D01*
X80229097Y-102585632D01*
X80331324Y-102556546D01*
X80435535Y-102532443D01*
X80541593Y-102513459D01*
X80649362Y-102499730D01*
X80758706Y-102491392D01*
X80869489Y-102488583D01*
X80980272Y-102491392D01*
G37*
G36*
X83407243Y-108370565D02*
G01*
X83432840Y-108372512D01*
X83458045Y-108375717D01*
X83482828Y-108380149D01*
X83507158Y-108385774D01*
X83531007Y-108392561D01*
X83554342Y-108400477D01*
X83577134Y-108409490D01*
X83599353Y-108419567D01*
X83620968Y-108430677D01*
X83641948Y-108442787D01*
X83662263Y-108455865D01*
X83681884Y-108469878D01*
X83700779Y-108484794D01*
X83718918Y-108500581D01*
X83736272Y-108517207D01*
X83752808Y-108534639D01*
X83768498Y-108552844D01*
X83783311Y-108571792D01*
X83797216Y-108591448D01*
X83810183Y-108611782D01*
X83822182Y-108632760D01*
X83833182Y-108654351D01*
X83843153Y-108676522D01*
X83852065Y-108699241D01*
X83859887Y-108722475D01*
X83866589Y-108746193D01*
X83872140Y-108770361D01*
X83876511Y-108794948D01*
X83879670Y-108819922D01*
X83881588Y-108845249D01*
X83882234Y-108870898D01*
X83882234Y-112183774D01*
X83881578Y-112209733D01*
X83879631Y-112235331D01*
X83876426Y-112260538D01*
X83871995Y-112285323D01*
X83866371Y-112309656D01*
X83859584Y-112333506D01*
X83851669Y-112356843D01*
X83842657Y-112379637D01*
X83832580Y-112401858D01*
X83821471Y-112423474D01*
X83809362Y-112444456D01*
X83796285Y-112464773D01*
X83782273Y-112484395D01*
X83767358Y-112503292D01*
X83751573Y-112521433D01*
X83734949Y-112538787D01*
X83717518Y-112555325D01*
X83699314Y-112571016D01*
X83680368Y-112585830D01*
X83660713Y-112599736D01*
X83640381Y-112612704D01*
X83619404Y-112624704D01*
X83597815Y-112635705D01*
X83575646Y-112645677D01*
X83552929Y-112654590D01*
X83529697Y-112662412D01*
X83505981Y-112669115D01*
X83481815Y-112674667D01*
X83457230Y-112679038D01*
X83432258Y-112682198D01*
X83406933Y-112684116D01*
X83381286Y-112684762D01*
X80442625Y-112684762D01*
X80416667Y-112684116D01*
X80391071Y-112682198D01*
X80365866Y-112679038D01*
X80341083Y-112674667D01*
X80316752Y-112669115D01*
X80292904Y-112662412D01*
X80269569Y-112654590D01*
X80246776Y-112645677D01*
X80224558Y-112635705D01*
X80202943Y-112624704D01*
X80181963Y-112612704D01*
X80161647Y-112599736D01*
X80142027Y-112585830D01*
X80123132Y-112571016D01*
X80104992Y-112555325D01*
X80087639Y-112538787D01*
X80071103Y-112521433D01*
X80055413Y-112503292D01*
X80040600Y-112484395D01*
X80026695Y-112464773D01*
X80013728Y-112444456D01*
X80001729Y-112423474D01*
X79990729Y-112401858D01*
X79980758Y-112379637D01*
X79971846Y-112356843D01*
X79964024Y-112333506D01*
X79957322Y-112309656D01*
X79951770Y-112285323D01*
X79947400Y-112260538D01*
X79944240Y-112235331D01*
X79942322Y-112209733D01*
X79941676Y-112183774D01*
X79942332Y-112157814D01*
X79944279Y-112132216D01*
X79947484Y-112107009D01*
X79951915Y-112082225D01*
X79957540Y-112057892D01*
X79964326Y-112034041D01*
X79972242Y-112010704D01*
X79981254Y-111987910D01*
X79991331Y-111965690D01*
X80002440Y-111944074D01*
X80014549Y-111923092D01*
X80027625Y-111902775D01*
X80041637Y-111883153D01*
X80056552Y-111864256D01*
X80072338Y-111846115D01*
X80088962Y-111828761D01*
X80106393Y-111812223D01*
X80124597Y-111796531D01*
X80143543Y-111781718D01*
X80163198Y-111767811D01*
X80183530Y-111754843D01*
X80204506Y-111742843D01*
X80226095Y-111731842D01*
X80248264Y-111721870D01*
X80270981Y-111712958D01*
X80294214Y-111705135D01*
X80317929Y-111698433D01*
X80342096Y-111692881D01*
X80366681Y-111688510D01*
X80391652Y-111685350D01*
X80416978Y-111683432D01*
X80442625Y-111682786D01*
X80442625Y-111689840D01*
X82880338Y-111689840D01*
X82880338Y-111001863D01*
X80442625Y-111001863D01*
X80416667Y-111001217D01*
X80391071Y-110999299D01*
X80365866Y-110996139D01*
X80341083Y-110991768D01*
X80316752Y-110986216D01*
X80292904Y-110979514D01*
X80269569Y-110971691D01*
X80246776Y-110962779D01*
X80224558Y-110952807D01*
X80202943Y-110941806D01*
X80181963Y-110929806D01*
X80161647Y-110916838D01*
X80142027Y-110902932D01*
X80123132Y-110888118D01*
X80104992Y-110872427D01*
X80087639Y-110855889D01*
X80071103Y-110838534D01*
X80055413Y-110820393D01*
X80040600Y-110801497D01*
X80026695Y-110781875D01*
X80013728Y-110761558D01*
X80001729Y-110740576D01*
X79990729Y-110718959D01*
X79980758Y-110696739D01*
X79971846Y-110673945D01*
X79964024Y-110650607D01*
X79957322Y-110626757D01*
X79951770Y-110602424D01*
X79947400Y-110577639D01*
X79944240Y-110552432D01*
X79942322Y-110526834D01*
X79941676Y-110500874D01*
X79942332Y-110474915D01*
X79944279Y-110449317D01*
X79947484Y-110424110D01*
X79951915Y-110399325D01*
X79957540Y-110374992D01*
X79964326Y-110351142D01*
X79972242Y-110327805D01*
X79981254Y-110305011D01*
X79991331Y-110282791D01*
X80002440Y-110261174D01*
X80014549Y-110240192D01*
X80027625Y-110219875D01*
X80041637Y-110200253D01*
X80056552Y-110181356D01*
X80072338Y-110163216D01*
X80088962Y-110145861D01*
X80106393Y-110129323D01*
X80124597Y-110113632D01*
X80143543Y-110098818D01*
X80163198Y-110084912D01*
X80183530Y-110071944D01*
X80204506Y-110059944D01*
X80226095Y-110048943D01*
X80248264Y-110038971D01*
X80270981Y-110030058D01*
X80294214Y-110022236D01*
X80317929Y-110015533D01*
X80342096Y-110009981D01*
X80366681Y-110005610D01*
X80391652Y-110002451D01*
X80416978Y-110000532D01*
X80442625Y-109999886D01*
X82880338Y-109999886D01*
X82880338Y-109371886D01*
X80442625Y-109371886D01*
X80416667Y-109371240D01*
X80391071Y-109369322D01*
X80365866Y-109366162D01*
X80341083Y-109361791D01*
X80316752Y-109356239D01*
X80292904Y-109349537D01*
X80269569Y-109341714D01*
X80246776Y-109332801D01*
X80224558Y-109322830D01*
X80202943Y-109311829D01*
X80181963Y-109299829D01*
X80161647Y-109286861D01*
X80142027Y-109272955D01*
X80123132Y-109258141D01*
X80104992Y-109242450D01*
X80087639Y-109225912D01*
X80071103Y-109208557D01*
X80055413Y-109190416D01*
X80040600Y-109171520D01*
X80026695Y-109151898D01*
X80013728Y-109131581D01*
X80001729Y-109110599D01*
X79990729Y-109088982D01*
X79980758Y-109066762D01*
X79971846Y-109043968D01*
X79964024Y-109020631D01*
X79957322Y-108996781D01*
X79951770Y-108972448D01*
X79947400Y-108947663D01*
X79944240Y-108922456D01*
X79942322Y-108896858D01*
X79941676Y-108870898D01*
X79942332Y-108844938D01*
X79944279Y-108819340D01*
X79947484Y-108794133D01*
X79951915Y-108769348D01*
X79957540Y-108745015D01*
X79964326Y-108721165D01*
X79972242Y-108697828D01*
X79981254Y-108675034D01*
X79991331Y-108652813D01*
X80002440Y-108631197D01*
X80014549Y-108610215D01*
X80027625Y-108589898D01*
X80041637Y-108570276D01*
X80056552Y-108551379D01*
X80072338Y-108533238D01*
X80088962Y-108515884D01*
X80106393Y-108499346D01*
X80124597Y-108483655D01*
X80143543Y-108468841D01*
X80163198Y-108454935D01*
X80183530Y-108441966D01*
X80204506Y-108429967D01*
X80226095Y-108418966D01*
X80248264Y-108408994D01*
X80270981Y-108400081D01*
X80294214Y-108392259D01*
X80317929Y-108385556D01*
X80342096Y-108380004D01*
X80366681Y-108375633D01*
X80391652Y-108372473D01*
X80416978Y-108370555D01*
X80442625Y-108369909D01*
X83381286Y-108369909D01*
X83407243Y-108370565D01*
G37*
G36*
X215056119Y-100317415D02*
G01*
X215139178Y-100323744D01*
X215221038Y-100334166D01*
X215301595Y-100348578D01*
X215380747Y-100366877D01*
X215458390Y-100388958D01*
X215534421Y-100414720D01*
X215608736Y-100444057D01*
X215681231Y-100476868D01*
X215751805Y-100513048D01*
X215820352Y-100552494D01*
X215886771Y-100595104D01*
X215950957Y-100640772D01*
X216012807Y-100689397D01*
X216072218Y-100740875D01*
X216129087Y-100795102D01*
X216183309Y-100851975D01*
X216234783Y-100911391D01*
X216283404Y-100973247D01*
X216329069Y-101037438D01*
X216371674Y-101103862D01*
X216411118Y-101172415D01*
X216447295Y-101242994D01*
X216480103Y-101315495D01*
X216509438Y-101389816D01*
X216535197Y-101465853D01*
X216557276Y-101543501D01*
X216575573Y-101622660D01*
X216589984Y-101703223D01*
X216600406Y-101785089D01*
X216606734Y-101868155D01*
X216608867Y-101952315D01*
X216606734Y-102036476D01*
X216600406Y-102119541D01*
X216589984Y-102201407D01*
X216575573Y-102281971D01*
X216557276Y-102361129D01*
X216535197Y-102438778D01*
X216509438Y-102514815D01*
X216480103Y-102589135D01*
X216447295Y-102661637D01*
X216411118Y-102732216D01*
X216371674Y-102800769D01*
X216329069Y-102867193D01*
X216283404Y-102931384D01*
X216234783Y-102993239D01*
X216183309Y-103052655D01*
X216129087Y-103109529D01*
X216072218Y-103163756D01*
X216012807Y-103215233D01*
X215950957Y-103263858D01*
X215886771Y-103309527D01*
X215820352Y-103352136D01*
X215751805Y-103391583D01*
X215681231Y-103427763D01*
X215608736Y-103460573D01*
X215534421Y-103489911D01*
X215458390Y-103515672D01*
X215380747Y-103537754D01*
X215301595Y-103556052D01*
X215221038Y-103570464D01*
X215139178Y-103580887D01*
X215056119Y-103587216D01*
X214971965Y-103589349D01*
X214887811Y-103587216D01*
X214804752Y-103580887D01*
X214722892Y-103570464D01*
X214642335Y-103556052D01*
X214563183Y-103537754D01*
X214485540Y-103515672D01*
X214409509Y-103489911D01*
X214335195Y-103460573D01*
X214262699Y-103427763D01*
X214192125Y-103391583D01*
X214123578Y-103352136D01*
X214057159Y-103309527D01*
X213992973Y-103263858D01*
X213931123Y-103215233D01*
X213871712Y-103163756D01*
X213814843Y-103109529D01*
X213760621Y-103052655D01*
X213709147Y-102993239D01*
X213660526Y-102931384D01*
X213614861Y-102867193D01*
X213572256Y-102800769D01*
X213532812Y-102732216D01*
X213496635Y-102661637D01*
X213463828Y-102589135D01*
X213434493Y-102514815D01*
X213408733Y-102438778D01*
X213386654Y-102361129D01*
X213368357Y-102281971D01*
X213353946Y-102201407D01*
X213343524Y-102119541D01*
X213337196Y-102036476D01*
X213335063Y-101952315D01*
X214333431Y-101952315D01*
X214334261Y-101985188D01*
X214336725Y-102017628D01*
X214340782Y-102049595D01*
X214346391Y-102081049D01*
X214353512Y-102111950D01*
X214362103Y-102142259D01*
X214372125Y-102171933D01*
X214383536Y-102200935D01*
X214396296Y-102229224D01*
X214410364Y-102256759D01*
X214425699Y-102283502D01*
X214442261Y-102309410D01*
X214460009Y-102334446D01*
X214478902Y-102358568D01*
X214498900Y-102381736D01*
X214519962Y-102403911D01*
X214542046Y-102425052D01*
X214565114Y-102445119D01*
X214589123Y-102464073D01*
X214614033Y-102481873D01*
X214639803Y-102498479D01*
X214666394Y-102513852D01*
X214693763Y-102527950D01*
X214721870Y-102540734D01*
X214750675Y-102552165D01*
X214780137Y-102562201D01*
X214810215Y-102570803D01*
X214840869Y-102577931D01*
X214872058Y-102583545D01*
X214903740Y-102587604D01*
X214935876Y-102590069D01*
X214968425Y-102590899D01*
X215000984Y-102590069D01*
X215033150Y-102587604D01*
X215064880Y-102583545D01*
X215096133Y-102577931D01*
X215126867Y-102570803D01*
X215157040Y-102562201D01*
X215186609Y-102552165D01*
X215215533Y-102540734D01*
X215243770Y-102527950D01*
X215271278Y-102513852D01*
X215298014Y-102498479D01*
X215323937Y-102481873D01*
X215349005Y-102464073D01*
X215373176Y-102445119D01*
X215396408Y-102425052D01*
X215418658Y-102403911D01*
X215439886Y-102381736D01*
X215460048Y-102358567D01*
X215479103Y-102334446D01*
X215497009Y-102309410D01*
X215513724Y-102283502D01*
X215529205Y-102256759D01*
X215543412Y-102229224D01*
X215556301Y-102200935D01*
X215567831Y-102171933D01*
X215577960Y-102142259D01*
X215586646Y-102111950D01*
X215593847Y-102081049D01*
X215599521Y-102049595D01*
X215603625Y-102017628D01*
X215606119Y-101985188D01*
X215606960Y-101952315D01*
X215606129Y-101919453D01*
X215603664Y-101887042D01*
X215599605Y-101855123D01*
X215593992Y-101823733D01*
X215586865Y-101792912D01*
X215578264Y-101762698D01*
X215568228Y-101733130D01*
X215556799Y-101704247D01*
X215544015Y-101676087D01*
X215529918Y-101648690D01*
X215514547Y-101622093D01*
X215497942Y-101596337D01*
X215480144Y-101571459D01*
X215461191Y-101547498D01*
X215441126Y-101524494D01*
X215419986Y-101502484D01*
X215397813Y-101481508D01*
X215374646Y-101461604D01*
X215350526Y-101442812D01*
X215325493Y-101425169D01*
X215299586Y-101408715D01*
X215272846Y-101393489D01*
X215245313Y-101379528D01*
X215217026Y-101366873D01*
X215188027Y-101355561D01*
X215158354Y-101345632D01*
X215128048Y-101337124D01*
X215097149Y-101330076D01*
X215065698Y-101324527D01*
X215033733Y-101320515D01*
X215001295Y-101318080D01*
X214968425Y-101317259D01*
X214935565Y-101318090D01*
X214903157Y-101320554D01*
X214871240Y-101324611D01*
X214839853Y-101330221D01*
X214809034Y-101337342D01*
X214778823Y-101345934D01*
X214749257Y-101355957D01*
X214720377Y-101367369D01*
X214692220Y-101380130D01*
X214664825Y-101394199D01*
X214638231Y-101409536D01*
X214612477Y-101426099D01*
X214587602Y-101443849D01*
X214563643Y-101462744D01*
X214540641Y-101482743D01*
X214518634Y-101503807D01*
X214497660Y-101525894D01*
X214477759Y-101548963D01*
X214458968Y-101572974D01*
X214441328Y-101597887D01*
X214424876Y-101623660D01*
X214409651Y-101650253D01*
X214395692Y-101677625D01*
X214383038Y-101705735D01*
X214371728Y-101734543D01*
X214361800Y-101764008D01*
X214353293Y-101794089D01*
X214346246Y-101824746D01*
X214340697Y-101855938D01*
X214336686Y-101887624D01*
X214334251Y-101919763D01*
X214333431Y-101952315D01*
X213335063Y-101952315D01*
X213337196Y-101868155D01*
X213343524Y-101785089D01*
X213353946Y-101703223D01*
X213368357Y-101622660D01*
X213386654Y-101543501D01*
X213408733Y-101465853D01*
X213434493Y-101389816D01*
X213463828Y-101315495D01*
X213496635Y-101242994D01*
X213532812Y-101172415D01*
X213572256Y-101103862D01*
X213614861Y-101037438D01*
X213660526Y-100973247D01*
X213709147Y-100911391D01*
X213760621Y-100851975D01*
X213814843Y-100795102D01*
X213871712Y-100740875D01*
X213931123Y-100689397D01*
X213992973Y-100640772D01*
X214057159Y-100595104D01*
X214123578Y-100552494D01*
X214192125Y-100513048D01*
X214262699Y-100476868D01*
X214335195Y-100444057D01*
X214409509Y-100414720D01*
X214485540Y-100388958D01*
X214563183Y-100366877D01*
X214642335Y-100348578D01*
X214722892Y-100334166D01*
X214804752Y-100323744D01*
X214887811Y-100317415D01*
X214971965Y-100315282D01*
X215056119Y-100317415D01*
G37*
G36*
X220548902Y-107281862D02*
G01*
X220631961Y-107288192D01*
X220713821Y-107298614D01*
X220794378Y-107313026D01*
X220873530Y-107331325D01*
X220951173Y-107353406D01*
X221027203Y-107379167D01*
X221101518Y-107408505D01*
X221174014Y-107441316D01*
X221244587Y-107477496D01*
X221313135Y-107516942D01*
X221379553Y-107559551D01*
X221443740Y-107605220D01*
X221505590Y-107653845D01*
X221565001Y-107705323D01*
X221621869Y-107759550D01*
X221676092Y-107816423D01*
X221727565Y-107875839D01*
X221776186Y-107937694D01*
X221821851Y-108001886D01*
X221864457Y-108068309D01*
X221903900Y-108136863D01*
X221940077Y-108207442D01*
X221972885Y-108279943D01*
X222002220Y-108354264D01*
X222027979Y-108430300D01*
X222050059Y-108507949D01*
X222068356Y-108587107D01*
X222082767Y-108667671D01*
X222093188Y-108749537D01*
X222099517Y-108832602D01*
X222101650Y-108916763D01*
X222099517Y-109000924D01*
X222093188Y-109083989D01*
X222082767Y-109165855D01*
X222068356Y-109246419D01*
X222050059Y-109325577D01*
X222027979Y-109403226D01*
X222002220Y-109479262D01*
X221972885Y-109553583D01*
X221940077Y-109626085D01*
X221903900Y-109696664D01*
X221864457Y-109765217D01*
X221821851Y-109831641D01*
X221776186Y-109895832D01*
X221727565Y-109957687D01*
X221676092Y-110017103D01*
X221621869Y-110073976D01*
X221565001Y-110128203D01*
X221505590Y-110179681D01*
X221443740Y-110228306D01*
X221379553Y-110273975D01*
X221313135Y-110316584D01*
X221244587Y-110356031D01*
X221174014Y-110392211D01*
X221101518Y-110425021D01*
X221027203Y-110454359D01*
X220951173Y-110480120D01*
X220873530Y-110502202D01*
X220794378Y-110520500D01*
X220713821Y-110534912D01*
X220631961Y-110545335D01*
X220548902Y-110551664D01*
X220464748Y-110553797D01*
X220380592Y-110551664D01*
X220297532Y-110545335D01*
X220215671Y-110534912D01*
X220135112Y-110520500D01*
X220055959Y-110502202D01*
X219978315Y-110480120D01*
X219902284Y-110454359D01*
X219827968Y-110425021D01*
X219755472Y-110392211D01*
X219684898Y-110356031D01*
X219616349Y-110316584D01*
X219549930Y-110273975D01*
X219485744Y-110228306D01*
X219423893Y-110179681D01*
X219364482Y-110128203D01*
X219307613Y-110073976D01*
X219253390Y-110017103D01*
X219201916Y-109957687D01*
X219153295Y-109895832D01*
X219107630Y-109831641D01*
X219065024Y-109765217D01*
X219025580Y-109696664D01*
X218989403Y-109626085D01*
X218956595Y-109553583D01*
X218927260Y-109479262D01*
X218901501Y-109403226D01*
X218879421Y-109325577D01*
X218861124Y-109246419D01*
X218846713Y-109165855D01*
X218836292Y-109083989D01*
X218829963Y-109000924D01*
X218827831Y-108916763D01*
X219829753Y-108916763D01*
X219830584Y-108949626D01*
X219833048Y-108982036D01*
X219837107Y-109013956D01*
X219842721Y-109045346D01*
X219849848Y-109076167D01*
X219858449Y-109106381D01*
X219868485Y-109135949D01*
X219879914Y-109164832D01*
X219892697Y-109192992D01*
X219906795Y-109220389D01*
X219922166Y-109246986D01*
X219938771Y-109272742D01*
X219956569Y-109297620D01*
X219975521Y-109321581D01*
X219995587Y-109344585D01*
X220016727Y-109366595D01*
X220038900Y-109387571D01*
X220062066Y-109407474D01*
X220086186Y-109426267D01*
X220111220Y-109443910D01*
X220137126Y-109460364D01*
X220163866Y-109475590D01*
X220191400Y-109489550D01*
X220219686Y-109502206D01*
X220248686Y-109513518D01*
X220278359Y-109523447D01*
X220308664Y-109531955D01*
X220339563Y-109539003D01*
X220371015Y-109544552D01*
X220402980Y-109548564D01*
X220435417Y-109550999D01*
X220468288Y-109551820D01*
X220501147Y-109550989D01*
X220533553Y-109548525D01*
X220565469Y-109544468D01*
X220596856Y-109538858D01*
X220627674Y-109531737D01*
X220657884Y-109523144D01*
X220687449Y-109513122D01*
X220716330Y-109501710D01*
X220744487Y-109488949D01*
X220771881Y-109474880D01*
X220798475Y-109459543D01*
X220824229Y-109442980D01*
X220849104Y-109425230D01*
X220873063Y-109406335D01*
X220896065Y-109386335D01*
X220918073Y-109365272D01*
X220939047Y-109343185D01*
X220958949Y-109320116D01*
X220977740Y-109296104D01*
X220995381Y-109271192D01*
X221011834Y-109245419D01*
X221027059Y-109218826D01*
X221041018Y-109191454D01*
X221053672Y-109163344D01*
X221064983Y-109134536D01*
X221074912Y-109105071D01*
X221083419Y-109074989D01*
X221090466Y-109044333D01*
X221096015Y-109013141D01*
X221100026Y-108981455D01*
X221102462Y-108949315D01*
X221103282Y-108916763D01*
X221102452Y-108883890D01*
X221099988Y-108851450D01*
X221095931Y-108819483D01*
X221090322Y-108788029D01*
X221083201Y-108757128D01*
X221074610Y-108726820D01*
X221064588Y-108697145D01*
X221053177Y-108668143D01*
X221040417Y-108639854D01*
X221026349Y-108612319D01*
X221011014Y-108585577D01*
X220994452Y-108559668D01*
X220976704Y-108534633D01*
X220957810Y-108510511D01*
X220937813Y-108487343D01*
X220916751Y-108465168D01*
X220894666Y-108444026D01*
X220871599Y-108423959D01*
X220847590Y-108405005D01*
X220822680Y-108387205D01*
X220796909Y-108370599D01*
X220770319Y-108355227D01*
X220742950Y-108341128D01*
X220714843Y-108328344D01*
X220686037Y-108316914D01*
X220656576Y-108306877D01*
X220626497Y-108298275D01*
X220595844Y-108291147D01*
X220564655Y-108285534D01*
X220532973Y-108281475D01*
X220500836Y-108279009D01*
X220468288Y-108278179D01*
X220435727Y-108279009D01*
X220403561Y-108281475D01*
X220371829Y-108285534D01*
X220340575Y-108291147D01*
X220309841Y-108298275D01*
X220279668Y-108306877D01*
X220250098Y-108316914D01*
X220221173Y-108328344D01*
X220192936Y-108341128D01*
X220165428Y-108355227D01*
X220138692Y-108370599D01*
X220112769Y-108387205D01*
X220087701Y-108405005D01*
X220063530Y-108423959D01*
X220040299Y-108444026D01*
X220018049Y-108465168D01*
X219996822Y-108487343D01*
X219976660Y-108510511D01*
X219957605Y-108534633D01*
X219939700Y-108559668D01*
X219922986Y-108585577D01*
X219907505Y-108612319D01*
X219893299Y-108639854D01*
X219880410Y-108668143D01*
X219868880Y-108697145D01*
X219858751Y-108726820D01*
X219850066Y-108757128D01*
X219842865Y-108788029D01*
X219837192Y-108819483D01*
X219833087Y-108851450D01*
X219830594Y-108883890D01*
X219829753Y-108916763D01*
X218827831Y-108916763D01*
X218829963Y-108832602D01*
X218836292Y-108749537D01*
X218846713Y-108667671D01*
X218861124Y-108587107D01*
X218879421Y-108507949D01*
X218901501Y-108430300D01*
X218927260Y-108354264D01*
X218956595Y-108279943D01*
X218989403Y-108207442D01*
X219025580Y-108136863D01*
X219065024Y-108068309D01*
X219107630Y-108001886D01*
X219153295Y-107937694D01*
X219201916Y-107875839D01*
X219253390Y-107816423D01*
X219307613Y-107759550D01*
X219364482Y-107705323D01*
X219423893Y-107653845D01*
X219485744Y-107605220D01*
X219549930Y-107559551D01*
X219616349Y-107516942D01*
X219684898Y-107477496D01*
X219755472Y-107441316D01*
X219827968Y-107408505D01*
X219902284Y-107379167D01*
X219978315Y-107353406D01*
X220055959Y-107331325D01*
X220135112Y-107313026D01*
X220215671Y-107298614D01*
X220297532Y-107288192D01*
X220380592Y-107281862D01*
X220464748Y-107279730D01*
X220548902Y-107281862D01*
G37*
D15*
X75129432Y-75193428D02*
X74986575Y-75193428D01*
X74986575Y-75193428D02*
X74843718Y-75264857D01*
X74843718Y-75264857D02*
X74772290Y-75336285D01*
X74772290Y-75336285D02*
X74700861Y-75479142D01*
X74700861Y-75479142D02*
X74629432Y-75764857D01*
X74629432Y-75764857D02*
X74629432Y-76122000D01*
X74629432Y-76122000D02*
X74700861Y-76407714D01*
X74700861Y-76407714D02*
X74772290Y-76550571D01*
X74772290Y-76550571D02*
X74843718Y-76622000D01*
X74843718Y-76622000D02*
X74986575Y-76693428D01*
X74986575Y-76693428D02*
X75129432Y-76693428D01*
X75129432Y-76693428D02*
X75272290Y-76622000D01*
X75272290Y-76622000D02*
X75343718Y-76550571D01*
X75343718Y-76550571D02*
X75415147Y-76407714D01*
X75415147Y-76407714D02*
X75486575Y-76122000D01*
X75486575Y-76122000D02*
X75486575Y-75764857D01*
X75486575Y-75764857D02*
X75415147Y-75479142D01*
X75415147Y-75479142D02*
X75343718Y-75336285D01*
X75343718Y-75336285D02*
X75272290Y-75264857D01*
X75272290Y-75264857D02*
X75129432Y-75193428D01*
X73986576Y-76550571D02*
X73915147Y-76622000D01*
X73915147Y-76622000D02*
X73986576Y-76693428D01*
X73986576Y-76693428D02*
X74058004Y-76622000D01*
X74058004Y-76622000D02*
X73986576Y-76550571D01*
X73986576Y-76550571D02*
X73986576Y-76693428D01*
X72486575Y-76693428D02*
X73343718Y-76693428D01*
X72915147Y-76693428D02*
X72915147Y-75193428D01*
X72915147Y-75193428D02*
X73058004Y-75407714D01*
X73058004Y-75407714D02*
X73200861Y-75550571D01*
X73200861Y-75550571D02*
X73343718Y-75622000D01*
D16*
X159018855Y-131696943D03*
X159793854Y-133039282D03*
D17*
X166984749Y-122294278D03*
D18*
X170094749Y-127680956D03*
D19*
X164208789Y-130086174D03*
X166200648Y-128936174D03*
D16*
X176582148Y-122744588D03*
X176983317Y-124241773D03*
D20*
X186710200Y-115724036D03*
D18*
X188320055Y-121732095D03*
D19*
X182012138Y-122531959D03*
X184233767Y-121936675D03*
D16*
X195984060Y-118514673D03*
X195984060Y-120064672D03*
D21*
X207584060Y-114354673D03*
D18*
X207584060Y-120574673D03*
D19*
X201284060Y-119714673D03*
X203584060Y-119714673D03*
D16*
X262791152Y-109270405D03*
X262521998Y-110796856D03*
D22*
X274937299Y-107187923D03*
D18*
X273857207Y-113313428D03*
D19*
X267802255Y-111372510D03*
X270067313Y-111771900D03*
D16*
X246692867Y-96933155D03*
X246423713Y-98459606D03*
D22*
X258839014Y-94850673D03*
D18*
X257758922Y-100976178D03*
D19*
X251703970Y-99035260D03*
X253969028Y-99434650D03*
D16*
X227054110Y-99149316D03*
X226945987Y-100695540D03*
D23*
X238916040Y-95808625D03*
D18*
X238482154Y-102013473D03*
D19*
X232257491Y-100716102D03*
X234551889Y-100876542D03*
D16*
X228240677Y-82196103D03*
X228132554Y-83742327D03*
D23*
X240102607Y-78855412D03*
D18*
X239668721Y-85060260D03*
D19*
X233444058Y-83762889D03*
X235738456Y-83923329D03*
D16*
X229433013Y-65241303D03*
X229324890Y-66787527D03*
D23*
X241294943Y-61900612D03*
D18*
X240861057Y-68105460D03*
D19*
X234636394Y-66808089D03*
X236930792Y-66968529D03*
D16*
X208956538Y-89372882D03*
X208956538Y-90922881D03*
D21*
X220556538Y-85212882D03*
D18*
X220556538Y-91432882D03*
D19*
X214256538Y-90572882D03*
X216556538Y-90572882D03*
D16*
X190960200Y-63805072D03*
X190960200Y-65355071D03*
D21*
X202560200Y-59645072D03*
D18*
X202560200Y-65865072D03*
D19*
X196260200Y-65005072D03*
X198560200Y-65005072D03*
D16*
X190960200Y-80809740D03*
X190960200Y-82359739D03*
D21*
X202560200Y-76649740D03*
D18*
X202560200Y-82869740D03*
D19*
X196260200Y-82009740D03*
X198560200Y-82009740D03*
D16*
X190960200Y-97802066D03*
X190960200Y-99352065D03*
D21*
X202560200Y-93642066D03*
D18*
X202560200Y-99862066D03*
D19*
X196260200Y-99002066D03*
X198560200Y-99002066D03*
D16*
X172959967Y-100621375D03*
X172959967Y-102171374D03*
D21*
X184559967Y-96461375D03*
D18*
X184559967Y-102681375D03*
D19*
X178259967Y-101821375D03*
X180559967Y-101821375D03*
D16*
X172959967Y-83608089D03*
X172959967Y-85158088D03*
D21*
X184559967Y-79448089D03*
D18*
X184559967Y-85668089D03*
D19*
X178259967Y-84808089D03*
X180559967Y-84808089D03*
D16*
X172959967Y-66527947D03*
X172959967Y-68077946D03*
D21*
X184559967Y-62367947D03*
D18*
X184559967Y-68587947D03*
D19*
X178259967Y-67727947D03*
X180559967Y-67727947D03*
D16*
X92319405Y-118511657D03*
X92319405Y-120061656D03*
D21*
X103919405Y-114351657D03*
D18*
X103919405Y-120571657D03*
D19*
X97619405Y-119711657D03*
X99919405Y-119711657D03*
X119150053Y-122862875D03*
X116928423Y-122267591D03*
D18*
X122791172Y-124728848D03*
D24*
X124401026Y-118720789D03*
D16*
X111718430Y-121233924D03*
X112119599Y-119736740D03*
X130857018Y-125890295D03*
X130082018Y-127232634D03*
D25*
X142982912Y-128087630D03*
D18*
X139872912Y-133474308D03*
D19*
X134846952Y-129579526D03*
X136838811Y-130729526D03*
X122930625Y-84725630D03*
X120630625Y-84725630D03*
D18*
X126930625Y-85585630D03*
D21*
X126930625Y-79365630D03*
D16*
X115330625Y-85075629D03*
X115330625Y-83525630D03*
X115330625Y-66516315D03*
X115330625Y-68066314D03*
D21*
X126930625Y-62356315D03*
D18*
X126930625Y-68576315D03*
D19*
X120630625Y-67716315D03*
X122930625Y-67716315D03*
D16*
X115330625Y-100517955D03*
X115330625Y-102067954D03*
D21*
X126930625Y-96357955D03*
D18*
X126930625Y-102577955D03*
D19*
X120630625Y-101717955D03*
X122930625Y-101717955D03*
X104933378Y-99002067D03*
X102633378Y-99002067D03*
D18*
X108933378Y-99862067D03*
D21*
X108933378Y-93642067D03*
D16*
X97333378Y-99352066D03*
X97333378Y-97802067D03*
X97333378Y-80802067D03*
X97333378Y-82352066D03*
D21*
X108933378Y-76642067D03*
D18*
X108933378Y-82862067D03*
D19*
X102633378Y-82002067D03*
X104933378Y-82002067D03*
D16*
X97327226Y-63812070D03*
X97327226Y-65362069D03*
D21*
X108927226Y-59652070D03*
D18*
X108927226Y-65872070D03*
D19*
X102627226Y-65012070D03*
X104927226Y-65012070D03*
D16*
X79326274Y-89362615D03*
X79326274Y-90912614D03*
D21*
X90926274Y-85202615D03*
D18*
X90926274Y-91422615D03*
D19*
X84626274Y-90562615D03*
X86926274Y-90562615D03*
D16*
X79328179Y-72365632D03*
X79328179Y-73915631D03*
D21*
X90928179Y-68205632D03*
D18*
X90928179Y-74425632D03*
D19*
X84628179Y-73565632D03*
X86928179Y-73565632D03*
D16*
X79341199Y-55372883D03*
X79341199Y-56922882D03*
D21*
X90941199Y-51212883D03*
D18*
X90941199Y-57432883D03*
D19*
X84641199Y-56572883D03*
X86941199Y-56572883D03*
X52443529Y-115525355D03*
X50178471Y-115924746D03*
D18*
X56532097Y-115677697D03*
D26*
X55452005Y-109552193D03*
D16*
X45019766Y-117189763D03*
X44750612Y-115663312D03*
D19*
X67681328Y-83665081D03*
X65386931Y-83825521D03*
D18*
X71731575Y-84243960D03*
D27*
X71297689Y-78039112D03*
D16*
X60124256Y-84544377D03*
X60016133Y-82998153D03*
D19*
X49491745Y-98783161D03*
X47226687Y-99182552D03*
D18*
X53580313Y-98935503D03*
D26*
X52500221Y-92809999D03*
D16*
X42067982Y-100447569D03*
X41798828Y-98921118D03*
D19*
X68879593Y-100734839D03*
X66585196Y-100895279D03*
D18*
X72929840Y-101313718D03*
D27*
X72495954Y-95108870D03*
D16*
X61322521Y-101614135D03*
X61214398Y-100067911D03*
D19*
X66485446Y-66711657D03*
X64191049Y-66872097D03*
D18*
X70535693Y-67290536D03*
D27*
X70101807Y-61085688D03*
D16*
X58928374Y-67590953D03*
X58820251Y-66044729D03*
D19*
X33347361Y-111123163D03*
X31082303Y-111522554D03*
D18*
X37435929Y-111275505D03*
D26*
X36355837Y-105150001D03*
D16*
X25923598Y-112787571D03*
X25654444Y-111261120D03*
X38856095Y-82178925D03*
X39125249Y-83705376D03*
D26*
X49557488Y-76067806D03*
D18*
X50637580Y-82193310D03*
D19*
X44283954Y-82440359D03*
X46549012Y-82040968D03*
D28*
X156392565Y-107434348D03*
X156392565Y-108174348D03*
X156392565Y-108914348D03*
X156392565Y-109654348D03*
X156392565Y-110394348D03*
X156392565Y-111134348D03*
D29*
X139500000Y-112000000D03*
D18*
X161800000Y-51200000D03*
X161800000Y-58200000D03*
D30*
X159700000Y-61500000D03*
X163900000Y-53000000D03*
X163900000Y-56000000D03*
X163900000Y-60000000D03*
D31*
X266420000Y-51505000D03*
X263880000Y-51505000D03*
X261340000Y-51505000D03*
X258800000Y-51505000D03*
X256260000Y-51505000D03*
X253720000Y-51505000D03*
X251180000Y-51505000D03*
X251180000Y-67695000D03*
X253720000Y-67695000D03*
X256260000Y-67695000D03*
X258800000Y-67695000D03*
X261340000Y-67695000D03*
X263880000Y-67695000D03*
X266420000Y-67695000D03*
D32*
X267372000Y-58330000D03*
X267372000Y-60870000D03*
X264832000Y-58330000D03*
X264832000Y-60870000D03*
X259117000Y-55155000D03*
X261022000Y-55155000D03*
D14*
X213000000Y-99000000D03*
X92000000Y-99000000D03*
D29*
X34300000Y-121014348D03*
D33*
X63750000Y-51350000D03*
X66750000Y-51400000D03*
D34*
X179500000Y-51350000D03*
X174500000Y-51350000D03*
D35*
X173500000Y-53850000D03*
X180500000Y-53850000D03*
D29*
X265700000Y-121000000D03*
X243000000Y-52700000D03*
D33*
X233550000Y-51350000D03*
X236550000Y-51400000D03*
D29*
X57000000Y-52700000D03*
D28*
X143597565Y-111134348D03*
X143597565Y-110394348D03*
X143597565Y-109654348D03*
X143597565Y-108914348D03*
X143597565Y-108174348D03*
X143597565Y-107434348D03*
D14*
X208000000Y-99000000D03*
D34*
X125500000Y-51350000D03*
X120500000Y-51350000D03*
D35*
X119500000Y-53850000D03*
X126500000Y-53850000D03*
D18*
X138200000Y-51200000D03*
X138200000Y-58200000D03*
D30*
X136100000Y-61500000D03*
X140300000Y-53000000D03*
X140300000Y-56000000D03*
X140300000Y-60000000D03*
D28*
X156422565Y-65034348D03*
X156422565Y-65774348D03*
X156422565Y-66514348D03*
X156422565Y-67254348D03*
X156422565Y-67994348D03*
X156422565Y-68734348D03*
D14*
X87000000Y-99000000D03*
D29*
X160500000Y-112000000D03*
X131200000Y-52700000D03*
D28*
X143627565Y-68734348D03*
X143627565Y-67994348D03*
X143627565Y-67254348D03*
X143627565Y-66514348D03*
X143627565Y-65774348D03*
X143627565Y-65034348D03*
D31*
X33580000Y-67695000D03*
X36120000Y-67695000D03*
X38660000Y-67695000D03*
X41200000Y-67695000D03*
X43740000Y-67695000D03*
X46280000Y-67695000D03*
X48820000Y-67695000D03*
X48820000Y-51505000D03*
X46280000Y-51505000D03*
X43740000Y-51505000D03*
X41200000Y-51505000D03*
X38660000Y-51505000D03*
X36120000Y-51505000D03*
X33580000Y-51505000D03*
D32*
X32628000Y-60870000D03*
X32628000Y-58330000D03*
X35168000Y-60870000D03*
X35168000Y-58330000D03*
X40883000Y-64045000D03*
X38978000Y-64045000D03*
D29*
X168800000Y-52700000D03*
D16*
X208956538Y-72367536D03*
X208956538Y-73917535D03*
D21*
X220556538Y-68207536D03*
D18*
X220556538Y-74427536D03*
D19*
X214256538Y-73567536D03*
X216556538Y-73567536D03*
X216556538Y-56564943D03*
X214256538Y-56564943D03*
D18*
X220556538Y-57424943D03*
D21*
X220556538Y-51204943D03*
D16*
X208956538Y-56914942D03*
X208956538Y-55364943D03*
X249633483Y-80189586D03*
X249364329Y-81716037D03*
D22*
X261779630Y-78107104D03*
D18*
X260699538Y-84232609D03*
D19*
X254644586Y-82291691D03*
X256909644Y-82691081D03*
D16*
X243738278Y-113678630D03*
X243469124Y-115205081D03*
D22*
X255884425Y-111596148D03*
D18*
X254804333Y-117721653D03*
D19*
X248749381Y-115780735D03*
X251014439Y-116180125D03*
%LPD*%
M02*
